<mxfile host="app.diagrams.net" modified="2024-07-18T07:40:26.898Z" agent="Mozilla/5.0 (Windows NT 10.0; Win64; x64) AppleWebKit/537.36 (KHTML, like Gecko) Chrome/126.0.0.0 Safari/537.36" etag="NgLehghPCUsYODUcmjaK" version="24.7.0" type="github">
  <diagram name="第 1 页" id="tfLTZSyMEBZAcIgDe6J7">
    <mxGraphModel dx="1050" dy="530" grid="1" gridSize="10" guides="1" tooltips="1" connect="1" arrows="1" fold="1" page="1" pageScale="1" pageWidth="827" pageHeight="1169" math="0" shadow="0">
      <root>
        <mxCell id="0" />
        <mxCell id="1" parent="0" />
        <mxCell id="q-sqeVSz4Pgh850xunst-1" value="" style="shape=image;verticalLabelPosition=bottom;labelBackgroundColor=default;verticalAlign=top;aspect=fixed;imageAspect=0;image=data:image/png,iVBORw0KGgoAAAANSUhEUgAAA2EAAAFxCAYAAAD6RaCNAAAAAXNSR0IArs4c6QAAAARnQU1BAACxjwv8YQUAAAAJcEhZcwAAFxEAABcRAcom8z8AAP+lSURBVHhe7J0HeJRHkvf39vbbu9u73bvN611v8DrnnO11xDlnG4OxAZNsk4xNMM6AEyaYZLABAyYHg0km55wkJKIQAkkESYAkokj19a81jV+Gd6QZaSTNSPV/nn4mvfOG7uqq+ldXd/9EFAqFQqFQKBQKhUJRblASplAoFAqFQqFQKBTlCCVhCoVCoVAoFAqFQlGOUBKmUCgUCoVCoVAoFOUIJWEKhUKhUCgUCoVCUY5QEqZQKBQKhUKhUCgU5QglYQqFQqFQKBQKhUJRjlASplAoFAqFQqFQKBTlCCVhCoVCoVAoFAqFQlGOUBKmUCgUCoVCoVAoFOUIJWEKhUKhUCgUCoVCUY5QEqZQKBQKhUKhUCgU5QglYQqFQqFQKBQKhUJRjlASplAoFAqFQqFQKBTlCCVhCoVCoVAoFAqFQlGOUBKmUCgUCoVCoVAoFOUIJWEKhUKhUCgUCoVCUY5QEqZQKBQKhUKhUCgU5QglYQqFQqFQKBQKhUJRjlASplAoFAqFQqFQKBTliJgmYfn5+bJz507JysrSEuMlOztbCgoKAi2nUCgUCoVCoVAoQiFmSdjatWuldu3a0qBBA2ncuLG89tprWmK00D4vvviitG3bNtB6CoVCoVAoFAqFIhRiloRNnTpVWrRoIRkZGXY0bMeOHVpitDAStnTpUnnmmWcCradQKBQKhUKhUChCIWZJ2PTp06Vdu3aBT4pYB2TspZdeCnxSKBQKhUKhUCgUoRDTJOyDDz6Qo0ePBr5RxDLS09NtSqLiVJBaO2PGDJk5c6YWLVq0aAmjoDPnzp0reXl5AU1asVi/fr31S/zuVYsWLfFT0C0MHMQClIQpooKtW7dK3bp1A58UDkeOHJHhw4fLihUrZM2aNZKcnKxFixYtWoopkJ4RI0ZIYmJiQJtWHA4cOCDjxo2TxYsX26Ca3/1q0aIl9suGDRtk7NixMmvWrEDvrlgoCVNEBczbu/fee6Vfv34yYMCAYkvfvn3tvD9ISmXG4cOHrfHmVaFQKBThY9GiRbJy5crAp4rD3r17rb3av39/4BuFQhGvIJAyZ86cwKeKhZIwRVTASNhNN90kHTt2lC5dukjnzp1Dlq5du9r5fk8//bQdHarMcCRs3759gW8UCoVCEQ7mz58vq1atCnyqOKC/p0yZInv27Al8o1Ao4hWrV6+2qc6xACVhiqhg3bp18uSTTwY+FQ/a9a233pKFCxcGvqkYpOw8IMnb9smx48cD30QXSsIUCoWiZFASplAoog0lYWFASVh8gfz9J554IvCpeJBj//bbb9sc+/LAwk25Mj8lN/BJZM+BIzJqRZbU7r9WmgzdKAcPHwv8El0oCVMoFIqSQUmYQqGINpSEhQElYfGFSEkYufVs7lwUCcs1RCn/4FHZsuuQrNm2T3L2nTyvit/Wbd8vyZn7ZFfgN0a0svcetqQqJeuAbMs9JFnmc/sJafKhKWk5ByXP/C8xY6/0nbtdhi3dKa1Hb5L9BWUjZ0rCFAqFomRQEqZQKKINJWFhQElYfKEsSNjAhTvknbGp0va7VGk6bKM0H75RNu48YH/bsuug/a3lyBR5Y0SKvGleV2fsk72HjlrC1XHKVmk8ZIN8NTdTvk/IkXoD1kmjb9eb/2yWBSk/Lnm8bEu+tByVoiRMoVAoYgxKwhQKRbShJCwMKAmLL5QFCes+M0OaDt0o6bsPSXb+YUu0us3IkGPHjkvnqVvlg3GbZfe+I3bEjM/vmc+MekHK3h2XKpl7Dsme/UdknyFmXaenS5dp6bIzr+AkwrUoNU9JmCIqYKVP0mwVCkV0oCRMoTgV+BWKkkNJWBhQEhZ7YOmKUOtXbN60MeokrKchYb1mZQQ+iXy3Mkve/36zZBhS1njIehm7Kjvwi8jSzfny6uD1snXXQWkzetNJv4Gv526T3nO2BT79iHgjYWxcunHjRruqJNsC+IFr8dvxMlpspKTYvXu3fPLJJ7J9+/bANyVDz549LekPF7RBZmamFBQU2M8sN71p0ya7TG0kGzZCslDcLCZz7NiPcwjdezaB7NWrl30f6dYLLJc7evTowKfwwHOkpKTY58jI+LGflAeWLVsm06ZNK5PgAs+EkYwUtO/SpUslO/vkvl9a7Nq1y7ZtUlJS4JuyBXWKXszPzw98U7Zg7xwnt7GGeCBh6FlWB2ZxKnRzcN9HLtEZ7EvkdFAsYdKkSTJw4MDAp5KB/vrll18GPoUH6tLZMHQoOpo6RLdHUk/oPp4BnR4M+u4PP/xQIn1SEnAv7AnqtQ/RxObNm+W1116T119/XdLS0gLfxg7Gjx8v33//feBTxSA3N9duxlzU/oJKwsKAkrDYAy79+BXb5cMx66T71E3y7fytMmpJpvywOlv6T1wsDz8afRLWe3Zm4JPIqOWFJAyiBeGamLgr8ItxCtMgYRt+JGErT3bEOE9vQ8SCsdT8DxJ2+GjsL8yBsW/YsKHcd9999vWWW26Rd999Vw4dOmR/5xVHga0CmjZtWm4kDAekqHZ0SE9Pl0svvbTUzuy1114rEydODHw6FRh2nHGHLVu2yK233mqNI3j11Vdt3TVp0kRuvPFGW4fF1VVWVpbUqlVL7r//frn77rulevXq1sADlH779u2lVatW8sYbb9hVP2mHSPDpp59KnTp1Ap9OBSNs7JnkHWnjPzxXo0aN5M4775QWLVqUyMnbtm2bPXc44PzU2z333COPPPKIVKtWLerkhG0skO9I5TcnJ0cef/xxa4ABcrlkyRL7vqSgHXnWhx9+WC655BJ58803o763If3C239SU1OtnJXX/ljfffed7QexiHggYQkJCXL99dfb/vvMM8/YPgFpBzjKL7zwgjz11FNy8803W/ksr4DJ8uXLwwp4sUDW888/H/hUMowcOdI+X1EgcAOJcOjevbvVxQDySr2hY5999ln7PhwnediwYXLbbbfZADB2r3fv3oFfCveYY+/Sxx57zN4bejnagDDS/g6DBw+WmjVrltlIFfX16KOPWvlC38UamjVrZu1DWSJYX3oxb948eeihh2y56KKLrD32s4lKwsKAkrDYRMZuQ4C+SZBqHebKo58vlEc7LZSHOy+VZr2myBMRLFEfDgnrYUjYGyNTJHNPgU0tbDZsgwxcuF0OHD4m7SakyQfjN9tURFY6/GJGhnw8aYtdlKPlqE0yZsXJJOxLQ8I6TEyzC3iQngjpyt1/RKat3W2vweja/oLoE7FokjCia5dffrl19iEACxYskHPOOUfGjBljf+fzK6+8Yg1ZuNsFeCN2KHVvf/NT8hA9lKD3f4MGDbLOB06z13Emku8dreN/OHsYYkZxkIFwwX25EQ5IENFNB4iJd0SL3fBxelyds0P+b3/7W5k9e7b9jLGuV6+eHZkjOn3GGWfIkCFD7G+hgDLHmFPvRGyvvvpq+eijj+xv1AVtcOGFF8rPf/5zeeedd8IexeCZeDZGIpxD4sAzOdKFsccxZ9TLgXZ+8cUX7T3hsF9wwQV2jz4H7guC5SUNtI9rY+rn4MGDNnKJYUdWiyM+X331la0/2hDy+dxzz0nt2rUDv/qD+3DyQr14HVmu535DHrgnZCNY9vhMe3nhnoP/cy88J2TZ1Rlyyf0BfvMjT8U5S5A45IZ7xsH6+9//HhY5wvBDAr39yYFrIkMOQ4cOtfLKc7j2od+44IoDzxaq7hghj1THcC7qihFN+pQXXN8FGRycbNBO1LeDXx26Zykt4oGEMQpz/vnn2xFF+iwBMPQDdUv/Q8fwP9qcABLkoziEqmve++lNrot8OCA7yP7w4cPtZycngLal3zuwZyeBHOA9RzhwMjR58mRLeLzgOvRlwPUhJ+gPB8jfAw88YN/Tz6hDXnmWli1byhVXXOFb3w7ooKuuusrqbq5DP0IHQzzp6w8++KDV0egcbOM///nPsBxv9Ewo8sr9ePtFhw4dpHHjxvY9bYacUIfe+uZ8wfrM2zc4Ppy+QpsSEHJt6gXX8Npa4M7pbK33nvzA8V6dirw6XQq8/0cOvZ+d3Lz//vs2UBUMr47w2movOEdwPbn/cS0nC7Q3e8xyv8H1BtFHZ3AsgYFf//rXvtsgKQkLA0rCYhNHTWf4elaaPPDpAnmiyyJ54LMF8sHYFFm4fLU8+0x0SRgphC8PWGdXL2SRjddHbJSd+YVRjbXb90vz4Sl2FIu5Yi1GpMjmnAOy9+BRS8K+CxoJm7Fuj12OnuOWb8m3C3wwqtZk6Aap+806ed2ca9iSnVHfLwwlEk0Sdt1110mnTp0C34g19n369LHvccQ4BiUNKQoHpH59+OGH1nnHaEE0cMr4jmgkIxLu3klZwbC/9NJL1mkkyuuiwH/+859tNNKlIvTv398SQY5jlMg5ljjwzZs3tyNJGGA3osVoFeSSUYBg4NygdHkm0jCuueYa69gAjD9RXAgJ9QBJueGGG+QPf/iDHamZMGGCJX9/+9vfbJQM8FzeqCj/ZxQJY8WoDtej8J7/otCp9xEjRgT+IfL555+fILoYKuqLuiHSzXMUt/8d7YQBJ2KHA8RIC84bwHGj3iE3RBYxLJCt3/zmN/beuTaoX7++vW8H6pRnBlOnTrV1Rr3Qrm50iHvt16+fbW/OBfHjP3/84x/tvfOMEAjq0dUDBRLIPfPM6GUH2rs4ZwkHAeeL++Y5cPh79Ohhf8OIMvJFiinf40gR5eU7gFGmDmrUqGGJIo6bM8w8EylQjDQgt7Qf6a6kNOG402bIJTLIc3HfTgbA119/besCfPbZZ8Wm0XAvPKuTvVCA/NEWtCH35R2N456dLONo4sAzmnnaaafZ/oOuAOhG+iag35CChBPL+Zzs4gzy/OgDnpERcuTdAWelW7dugU8ng/6J00x7ILeOhOGwcl/UN/fpTVOkbjkfx3PPAwYMsN+jL7gn5xDhvCGXyHFpEQ8kjIAQOtARDlKyIAPusxfUczipn/SVrl27Wh3AqD0yhV6njxKMgVQARtUaNGhgdQEy4PomuoU+jX1AdmhXnF9G65Aj2tYFshhRZzQJMnHXXXfZQJ4LIn377bcn+mow6D9Ohhi9Qv4Az012AfeO/mFE6ptvvpG//OUvtv/QL5BdrsvzAHQc94q+Beif//3f/7UpZTxjsF5GjyHf//rXv074iBBLSBk2AR1w3nnn2UCIA9fy6q5gcN/IMfdM/0WGsakA2f74449tv0X+GXHjOrQz5I7veAbuj7rneO6R8/Eb9Y2ed4QaucYuErCj3jjGPTv44osvTiFb7733nvzpT3+y9q1169b2O67B99Q/7U/buWClkyH0PAEkdKDTq9wf9+ZS4JFvAo2kdHJv6FRkCtuBPAN8NWTXZV7QFyC72HPsF+2K/PBMwSCQhY6HoGFD0GMufdTpN+wwbQSRc6NXpOmj45AlCp9pc+dvMIofCtT1ZZddZtspGErCwoCSsNjCVkNwxq/cLn1np8mYpdvk1W9WyT0fz5PmgxJl94FjsiV1o1U0kQDlUZSzynywXrMyDeHaJ3M27LFLy3uRd+CIzEvJlalrdtv34JjxAxgNY5VEL46YH9bv2C+z1++xI14sYc9y9ayyyCjb5uyDhuAdtimX0US0SRjGEqcZhYqzj2ManN6CwQuXhGHkcO5RfLzn3L///e+tM4fziJHBYQM4x6T0YcxR0IwmoeggIChllDQRRBQlBhUigDHFWKKwMbwoRRQ818IIoLRR5Dj5EDRvGiEg+gdRgSwwDw7DhTFHbtANOIMod+qAc3I/GB/uh/vAEYTYnX766SeRMJQ+bQOJZHQRh4T7pT69BUeBiCuG0hsw6Nu3rz0Pht8RTAgl1+YegiN6wcCBxXFjVIX7JNWNOgUdO3a0909kEGNBfeOsk1JDuzOyB15++WVr+HgOvsPB4bzUBeeGlOLI40TxjBBdJ0NEVHlmnAYi8xg26hQHGicHo+6tB5xyHDP6OO3pgCFjdMjr7AQDEsb9YDS5HilEkGKXHopTifOEzueZcRS4JoB0Y7SRI+qK87ggBMYZWcAxwAHCIeHZMLrIG/aDNnJyibOKAwrojxzrngUnyI1shgL3TQDARX1DATnimjhDOB04dIC6pQ25b+QdB4iUMWTm9ttvP3GfOIP0E54J4FhxfziW9A9kBZmnb3AcTiNyTB+mftxICf2SdnPkyAGHiH5N+9Nn7rjjDlv/gDqgf9JvuEfuyzkxjLTSD7gWz3Duuefa+0XGuCeXloWD6vpGaREPJAy9yGg6JJX+Rx/xjkjTjtQXupU+EI5Pg/5Et9H/6Z///d//LW3atLF1jBzjHNOutBNyhGzRlldeeaUlPaT30cchBPQbdIQLntGuBBxcu6Ljfve731mHFnm8+OKLT6T1YaORh2AZIpiADCHrXBeiyCgfICsAOeTe+A1ygX6AsPEM9HtklxE4Lwnj3jke+ScIgVxyDvqxVxdR0OXUtevPgGck8ELAh/Oh07yjhujLolLl0FPYauwFupJngmgCSDA6FJuIPFLnPBd9kzql7yIb1CGyD5AHSLcjj7SnC7QxSvOrX/3KBoFoU37zBtTq1q1r68oLrsu5CRhRT4C2o4+is9GRyAXyAbAHtAPyiQ2hXahjCA726mc/+9mJ+kNGnG6jfahfjkEXOxuNzEACuSb9ku94Rq6BnGL/IEfITDCwl+hqArncJ3oE0oVcYduRA77nGdHLkFCAL0OACh3PNbCryDSyQZ0jH6FAG5GS6HeMkrAwgKHAiCgJqzgUHDkmi1N2y5AF6TJw7laZsnqn7A7sx9Vh7Hp5qfcy2bCtMNqHo0qEBgeJDlRcIaqE8irKwH4xLV26T/8xOhSPiDYJQyGiSHG8GGr3iwRFQsIwuihx51zghDFvywEjw+iDA8Ye0oDzz//AqFGjrJPoQETVaxwdHDnAIAEUPzKD8QP09WBjjzHE+DniAVDSOAEcS3QMo8y5HHAuvfeDk+glYTgnGAsMFo4Rskg7hQLPDBGkrhwwzjy/18hzjuAUrlCAwHrrFcNKnQLaFOMB4aLNAU4M0Ubqw4ERIvccFEg5hhGD5drGAQPrUoE4lgi3A/VFZDIc4ERyXw7IAkbSe1/BoH1JQ3XRewDJdCO4kCzvXA4IBvKNQ0DbuzRSQGTXzV+iDZwTB3AuIHTOueQ+vXNdcBxw0iBryA9OlhutoN6KAvoNooETEQ5wYLhvHCv6LKDOkf9g4Bx5A1iQeAIS9BPqgDQtb91RBzw3BAjH1o204XjjzPE9oD85+fECx8kRQ4Bz5e6R6yKHpPRSkBuOB8gU3wHqjb7riDTnox8B+pSXhJQG8UDC6AMErmhD6o968fotyBpyQGAjWI+EAjqK0QtA38L5dQFLRmJpLzdaAHDksTPYBvQxgDy5kVUcUdoSxzUYkCFGsxzQ34yGAj+dDAiGeXU8MuxkCAIEiST447V79Gk3egogV67/4hQTzKF/oIuoJ9q+KHB+732jf3l+CC91HBwIYBTQpQ4WBewFhAJ55zkBvopXXzugt9HDDvQPnomAFc/CyL4Dv6G70DXe+gL0aeTDwU8f0ZfpZ06/QWQhmt465Td0Jv0TAuhIJEB2uT6BHAgIASFsAaN9+GQuCAg4Fp3D8yHTPA91wjm9csezUt8OyI2THS8IJHh1NfeJLobIUk/etvbqeOwC9+gF8u2tKz+gAzm/CyAHo0qSMISKhsUgF1c4DoFFOfgZEUXZYmvOfpmcsEN6TEuVQfO3ytrMvXIgaPXAEYszZVHKjw4nSh7DQcQDElBcQTkw2uJ1YoMxf2OuLNz0455e8YhokzAUFpEogIHAmfUqRUD9hkvCMJgYA+dcYBhR7A44ZPRDDDEpJhhS2g6j5IwIzoL3erx30TgvULg4KET0ARFbDAF9PhQwiERYvaN9GAKIA8Bh5f6I5DNqgp7BWKCknQEOJmHcN/fP6JKX3OGg4CyRTkHBmDD6gWxzD874AYgOzkJJ9RMGD8PngCFjdM4BIoYzS8SPEUDqDhLmvV/ahnvgvhyxBYy+0Be9oN7dSA/OInXkgBPOtZyzBeFAthippB545b/UJ4bUm+LG6BXOXVEjf7QvhMeNlADuwREv3lPPDpAwyDXP+o9//OOk/2FUGZEBRJG9cuZImJMN75ww4H7nWshMcKQ5FBjRwiEjiu7nkHqBPBA8xAHm/ugvLk2LqDLyHgwcNZfaCnCKcHzoJxArRg2RAQeXSkjEnvagDwOi4chLqDkXDoyYEQRwoA1xdGhfHDjuHUeIEVmIlYu649Q6uYEcco8u+AHh5Ry0Fd8XNTIaCeKBhPE9+oHfaDtkHTvoB+SV/lIckFMX7EAO0F8uS4DrIVPIInJB36V/QkoIoDmizCioSzfjHBAUnM9g0BcYJXJgZII+XxTQCy5oBOhzTs4B7cb1caZdfyQg4q0XLwmDzDMCx++QWpcGSJ9F3tHFTi+TNsdzExBB5lyf5FiCEKTPcT5G6ryj1si1H5FyoN9gF9ALBIhoU0gIgBR6pwE4UHdeYoetJ1BFEObss8+2I4UOkHHIKeQJ/e69d85NfRUFgkfoSte+yBuy5NXl1Dt9mOsjF8FBWvo9skL/Ru9ApLlnyKwj/fgPXIc6YOSO/gypw1+jDb0EkWf16u5Qc8KwGd7ng+Dhu6AveAZ0l4NXx2MjggkX2QvcXyhAGJFF+loofV3lSBiNRiOQS4qAE7EtquDsIUAY4uKMniI6OHT4mKxI22NXPIR8jV2+TbbtOWjqP3CAB3y19+DJkRqcRCJNipMRbRKGwnLROQwVhsvlbDsQcQ9WXChlCEswMOw4mI4IkUrgjdZDFoiEo/DPPPPME6vo0Z8ZkQIYQ4yUA84mhMGBc2NAHJlxhIHILuSAcxNxhWh5I8iA+2YEAgMGOAeOBvNQvMBRYw4AeeYYPpxRR5BwZIkkO6XL87qcei8gay5Nh4LRcakzPA8pMg4Yo+IcFYBji3EPJmvk0ZNy4oDj4/qP91hG+bgu9UBdkUrkgOGEeAYDx4tUFNfe/Jc6w/ChTzGcLkIOMOoQWwfuF0cPkko98Iqjzn9xOLwRTXQ1BtHdM/8NDqzQvjhjLiqMY0QanXPOICDekTmiptQvMoNT5R0lo56wCwAnwatzcMIgn44s40xgR7yA+EImcAC8qa/ct3P8vEAmkW2/NCaeK5h8EoHFCSIFCODYIG8A+aNvudFS6gmHASfGLVAAaDeOw1GgDojoOgcJYEeRH+6X/7mRMI6nvngWwHXc/BAvcNYhcQ44mlyP9uV8OGh+oL/TPwBtyH/cSBjX4pzIFqPn0UI8kDDkmCCQG4Gk/nBckUecV6/Tis5APgC/8Z9g3QCQY9dfSNNCf7lRLK7n2g8S4CXwtJGbS0RbopsBckQf9I5iO4JC0MD1KYB8Of0YSoboRxBFB1LE0E/A+7zIKYEIgE0iwOKArUG/AfoiOgv97gV1iN5CFzu9jAxyT8gGRMfNLcKRx1bQZ3k2HHlnJ2g3+pHTDfSRYJuMDiIDwbUHOghSAdB73lE3zsdzUndeAgvpwVZw3+gN6sUB8uN0J21EG7pr0Qe9o9Pcf7Cs0Ya0tSNW9FfO4bVL3nbhN9IevYDAICPoP0ZYCf6h+zmvy2bAx3AjaAQukRt0DX4Gup5nc6COXDCL+6E98eGDwXXQgzwDoC64T/oA5/eSc2TG6RDkBZ3iBcG14NExB2wd9+gNMvmhypEwjAqVyjAiEQycsKIKURsiHjhSRaUJlQZeRREMOgadFAPpwHdF/aesgbLGASZKRDoCiplOioPpvS+cApSSV7FT/3xHJ/Hi6LHjkrO3QKauzpKOEzbYlMOFG43DXII9syBhXiWlKES0SRjGHQXmQL9yESaUKEYZpQU5g6w5J4m2cZNyvXAjYY6EYVSI5DpgkImGOweXiCSRKu7DjYRxDggaIzkQKxQhziCGneNRiMgqhpP/IbsAp4JrQVQY9aC/e9MKHVDykDccA56Vc+B4Uqc8F844+gIjj1JH1iEdXJ/7YQER5mxgtIF7jkgAESGSDOlhbgX3Hc4+LTgQ3vp1oC8TqeV8GB1GSNw9YbBwUDBMRPQwfsgRRpXPzskiEu3mGHiB3sIYUmhz/kP0GIILocRIeYk77XHuuedawu3Ibijg6FAPbn4FjperV4BxdNF3Bww4z4expS25H+7NjVQycuolGYwyOoeE0SQIG3LNMyBXTn5od6+xRUZxPJ2jhWOHXOJA0Q6AUT5G15AnpyN5RVa8/cqBdvif//kf64zhKCFnEFKAwxNMznAyuAfahnbC2eFZuDfqnvf8znlwYCDV2DucSQgm90m9MBrt+i7XoQ5w6JAXZI/noE/h6DkySdtAMOl/gBFz+kdwYAM9AYGibxO15nyOhKOrcGT5LySAaLKrb45xcoOTyD16CRKjDD/5yU8sWYkW4oGEEfTBwSdtGTAKCNHi3inoJeSItjvrrLNO9F8cZEYi0FnBoB+5EQbkg1Q9187cBzKEPcengrxAIJBRdIqTf0b1+Q1SiEyhT+i7bp4i/QwgV14igR5HPgF9gr7h9ScA8sczY3/ol/Rv+jWAJPEdBJDncKtBQhawS/QjfBJkzDnYpA/i/HtH+osDz4QuRiegVyAX2C8H3nNOAkXUFyNh6FGehfdeQgqoX9oN/UvgB53osk4YDYZo06+pH+oWv4tnZWEOyDV9mbZxxJKUQ0gdbU+hvpyuRAaoG1evjIRxTw5cIzjIh25BV3oDaPRH2pz24jnRsW7hIJ7ZpaY6IJusqAwh4tr4j//xH/9h9ai7F2QB+UD+IGfUKzLKiBuZBV4SxvWxtcgUdgw95YirF6RMkjqPjuM46tbdG3WNXOBnUK/oTCcHyGhwQBlZoR9xLpfd4oCd+OUvf2l1ESP5fPazaVWOhKG4cKCINIcLGg2lHwkJC+IYIUHD4Yi5HGsv6CR0BhweOhMGECNGJIZnqCgihjFEQeBAMWSOIkOQMKDeemWSd3BECUfMjyCxmAXEa/iiDEnZsc+SspJCSZg/oknCAIrDOxqCQ+WUDI4RxhgFTyHq5Y7FUfCmdTlAjFDaziHG4fIqNgiWc8JoYww658UouQg8IOKIEsVhABAU5oWgCB2xIvLPvbrgBsSEEQP6FDoC5z2YrADuDYOAQeRcBHJ4VowG/0fmIYZuBADwDBhhgjq0AcbRjVpA/ug7kYL/cU6uFw4BAxhX+qyfHqNuMc48N33Y1TMkkkgk/dZFvwEGE2LtUlxwTp2jHgzqGCea++X8Tm+hy9B7wRFngju0n5+MBIP7YHSUe/GSZgwnjoaTAQfaFEcJmcTBIbrp2oI2hHjg1DmQZufVzcgZbY/suag34L1LxQM8I8/hnGFAXXnlEqDb0Z8OOLMc5xcA4Pw4azjMyCCja9Q71yIggCwEw/UT+iL1yfHOcUHOcYZxbiFzrl14z306GaBPekfZkGf+w3md7OGUoQ9cn+GV/7mRSO6d/hYcfAO0IXUK+UVHOAcfIFPIHqPdBB/c+ahblxbMtTm3G20F1A+j0X4jiiVFPJAwdBHt59Xx1BXyie7ifxAdZMVbz/QXCJOfbqC9XTtTn8inq1f6LuenL9O2tBFtSV3hoDr553jaEF/KXYP7ROdAkJx80Te898U5XPor37tR3WAgN+gBZ2dcX0QPI1foPuyCCwIgn8xLRbfRH9B5jpQgR9ybV57CAXXOs+B0Q3ockQD0LUb5eV7sgzs3fQzS6CdX6Bp0A/dN3/WmyfGM9FHsmtMnXIPr0rYEynl2+qR7ZnQK56O4OgX0I45z98s9eduAfuy1r8Dpbq9+A9gyro8MeJ8JGXKjWw7IC3NVaWPA9dFtTu8A6gkdha7m/im0F3LH9b11DLgOcoCMItN+NgSdT+o8x0LSkF8vsHPoN/SOV8ejp7w20MHpS2+dAp4LcsczYf+QQz8bWSVJGEOUXoEuDnTWSElY7n7jbCXulJ15J++vEgyiDKwG5J2ICGgsJkHjuCBMKE+iNxgcUjhwJJzRjAYOHD4qyRn5vkYyGESMUCZeYByJzniHcol+EI10ecOAaKmfswAKjpSceHmhJMwfyG80SZgifoBRJtLt59xXRhCkwogGg5QmRp68TkZFgeBBqLkxkcAF6xxBqerAhhGZ9huZLQ3igYQp4gs4+94gjKLsAXH1prFXNJSEhQFHwo5GQHoYyfl84kap2XOZjFycIdmBPaW8ILpELioMmXQKN4EYdo+QeCd6O2BgIGHcTzRJGPfbb/YWeWt4sqxMy5UjR0MTIoahUR7BYNjfpRLg9PFsDHMzrAuI0pEy5CZXlxWUhPlDSVjVBZHo4FGhygqitOgYAlbBgKgwEhBJJkRZgQhqqIBUJEDfuVEhRSFJYWQ02oRJSZgimsCXY0QrkuC+ovRg1BwfOlagJCwMfP31V1Ltrrtl34FDcuQYIzbHii1ghCFfd7afZzcRbthvlU21Y4EJB4bCySMGjBq5fGWGYFm5Jng+g0NZkDAwe2223NZujjzeeZF8NG69LN202yiKwI8ekKNLGg1D/6TEuKFqhsKZB4ByIWeXUT6GYS2BNY4RQ8+kXjIfoSyhJMwfSsIUCoWiZFASplAoog0lYWGgf7+v5erb7pcvJm+QXtPTpMfUTcWW3jNSpe2IZEtonuy6WO79ZJ7c1WGuvDNyjWzPZaW/43ZioZuQSZ6qGyKFhDFi5FZ/CkYoErYsdY8Mmlc4ryrSMnpJpnSatFEe67RQnujC/c6XhzousHtwcb9eQMJI6SHPmoijW/WH/GDIIxF30hWZg0N9k/NMPjDf+S0ZGm0oCfOHkjCFQqEoGZSEKRSKaENJWBggHbHaXffInr0HZd+hI2GX0cu2yT2GzNz/6QKp33eFIUhbZEvOfpv6t2H9ervKEESM1XRYvpiVVJgIjrPM/Cq3LGwwHAlzEy4dcvILJCk9T9Zm5kdcWAyDkbsHP1sgD3Y0RMyQx7cMiZy6eqccOnzydUhHZPUbP7B6DDnOrHDDJF3AYgBulTHv/LCygpIwfygJUygUipJBSZhCoYg2lISFgRNzwo5Glv7X9YcUea77EhmyIF0yd588msRqKix/yUo5nJ9Vg1jClFVlAKSM+VReoHyZLwYJc0uwRhNDF2bIfYY0Mlo3f32OHAyxPDwLc3j3g/CCET2WQoV4MS/MfcezQTghSME4ZkgppDVaUBLmDyVh8QtGzoNXgnIgGMPvCoWi7KAkTKFQRBtKwsJAyVZHPCI/JOw8hXwB0g0Z6WLZYC9YhpPVslCyKHv2H2BFMxbuYHSJDVXZI4EVCE877TS7ciKTzJlbVtqVsZjHxgIi05Oz5PBRf2fPgQ0PubYfGMn7/e9/b/edcWBp7v/+7//2XWgEsNky1x6zNFN27T11AZNIoSTMH6UhYaS+soQ8CwD4Ld3OsrEsBxurCwTQh9xSuCUFcxrdHk/hAGLE8uxugQhIFHVHHXmX/C4KjniR8svGkH7g2cJdpj4Y9E22vIiExCFHThbK2xFk+WLvssHRBLqVZYgjnWtLG3FPfv0iGmBRlVAEPJqgXXl+v72i4hXUXUna1A/xQsKQQ6YGuD3a/EB94IfEWvCG5cJLmy3DatJu/7Nwgf/k3YsVuWEZdO9WI+GC83j3r3JgLjxL5/sFossC2Bj8sbJqY+SLJd7JiopFu8/S+pSKBP0Mv6ioNq+SJIzli+mo4YLRqkhJWFGgY7OXgRspcuAze6+4fXMgimyayggSy+2yOz1gzhXfs/AFhXlZKI3SgBTJQ4EFRYoD+yGEcoRwFlCkrPrjgEJiRZqiViRjSf9JCTuk17RUmbByh+w75D8KFw6UhPmjNCSMfXfoA2yqyi78yCOrXQL2zmAjRUZnCSIwV7A8nEaWG6ePhHMtRpbdzvslRbNmzeweMKGA8wqpcffDCBWborJ3DMC5oA7ps6wcykaRxfVbjBtzK9FZBGEYVXZ7jbAXCvdDIIY9BHkfaduysA6j1kXVIc/kJY0Ej5wsMFrPRp5ub7dI4AyU3yqGwWDvLlZepR2RMZYgj/aS7OgtVqkN1svFgWcnDdvN70UuMaylcX74LzoWPcZzlwUxQh9Q/26hJIg1C0ShqysLCF6wnQvEhHbieUvaLvFAwghSsCE7ugK/gX08g/cmot0J7rLRvHdPvLIEPgv9ojiw0S/3VhqwLxN7lhYF6sm7PyG2wW1QT50wP5++R7/GtoXT7ugjpl0gbwTsvMBOcR76FxsOYyOjDebdE3BwQE8TDI+W3xoMVsNG1tgLqyRktayBfY32NhXBgIhiH/0A4ca24hexXy4+f/AUIlAlSRgGHAeGaBFOTlGFjkrq4B133FFmwhyMWItOlSfYV23k4kz5dMJGmbkm246SRQolYf4oDQlj9Jj0WUZcMEg4wm6RFZxXdqtniwX24Pi///s/q1jCRfBqmaEc+mCngygXSs6vv3ijmoDjXHTUL0pZFBxJwEH44IMP7HsH73XYe4r5ko5YQTKoM4IkgKghe/9hLDmWxW2YD1oUqBtGwM4880z51a9+ZRW5Oz+6CUL3m9/8Ri677DK7kE+45NfVOQaUPabc/3gNdvhx5nBsHDBukDBkgZHBiy+++JQtK4LrPxgYI4gdq6kWNbKFceJ5cWJYjZVrorsZWQ81MujglQueK5Rc0S84lucOXjIaWQkmid465neOp02dfLKhLM5vaYDteeWVV6weY5EmP4c7FIoakWP0wwE9Sf1zLYC84oAGt11RgQLqgv9FilA6iLoORa5pI67lbddg3RHcVjyLC7iybQGr80ba/x3igYQxD/vss8+WRYsWWeJD32ZhLG890edxCn/xi1+c2NQ4HLj6d0DuvX3BgX7kbUOOqV279omFxrztFywHZNgQ3AHhBGe8oF05N8Fq2tkL7snrABPY8OoPplcQGAOs9nzOOefYYAT6gGMJzhQVCOEZCYSR7XPhhReedG7qCX2AvcTnxFaeccYZYe1VSLuF0qU8r1enQey8C5+hB9BL3jbifEXVa7h1Tj1TX1674MA1QvXvSPSFV068eisYTn87uGcItRCctz5CtSnyG2wvvP9zOoQVwckM8wObQRN4xS8iy+1///d/fftblSNhVB7zrogU4VjSSEUVostEL3BEvI2gKFuQxjlg7hbpPWOzzN+wy3SywA9hQEmYP1BWJSVhGClvhJJABrvOBwPHGqecPZCKAhEktmQgWke0kUVbMH69e/eWRx991I46OeOD040hZENztnTAEcdZZBTmT3/6k9SoUePEKASjtPRtjD6jUC7ayTE4tUTG2DC8X79+9nsMM+m9fgaR+iIAgwFlJIr7cmSDe4CMcE/t2rWzEXbqg1RcjmfkEH3BqKGb5wkZwyFyYISLukLhUx/cK6MwvBJZxLBQn/wPHQTxRR85pxISyrMSYaUOubdwjCjpi5BS7p96cn0FJxMHiEV1cCgA9/7HP/7REgHSTnDIkQWv4aGtrr/+evue+ucctBeE1KWDUBffffedXWyIKDOElvNhmGiPYHLLvXANoog4LsEgnduR21CgXnE4cYiQV66LMQREjHlP+9KuOCvUNd85h43NnpE3ZJM2Rh4AbU/7EnBgqw6i6tQpTj5ySVshlzjAEH/m8BKocJg8ebKNvNO+/O4WMPKCe+B+GMVwIznFgX5C20HM6atemeYeaRe+J+JPOzVp0sTWP8/vZJQ+ybEAgo18Ueg/bn9H7o375pmRH+YI80wOPCvZI8H2EucYpw27isxif50TxLHUE/VNuzMFwIHRWq5F/0I/QBqRI95zbZ4XcsQzIEsENpwDRVsx3xpCQl/89a9/bW05esfruIWDeCBh1DF90el4jjvvvPNOEGnqjnqk/iBr4ZAwZJX6Qn8i28gr16FfUFzADZ1Fm3IccsaoPWAvPKZPMPLG7+h17gc5rFOnjpUhHFZAkAnnHh1De6EjXFuSNh0qzRBnmP7dsGFD2wccoYIQkF2EnoYg0Z949r/97W9y3XXX2dEc6hHZcatTUyes8uxSyOgrLJrGc0IGnJ6moJvQuRALPvPKeVz2AyANnjbwjjpiu8hgCAXOyT3xLPSHYN1Om/A9/YXgFISRQBzkEd3LpvxkHqHPkHP0GSSN42kb6tURc56XvoQ9QhegKxkVd6DvIUde0E5//vOf5fbbb7e6EfDs6A/uixE4ruH6NzYWPUwmA7oTIoqOcODe3DVob+qG+qLu0FsUzunICu2ILGCX6fOOpPE/R3iRc7/MFQIU/Jf7Rn6pL5f9gFwSLKWe0BPoJKcn+B/6C3uHnC1cuNAGWU8//XRrQ5HPUOC8tA9bNwWjypEwgDBjdFHQvBZVYLEIOQ2jJKz8kZa9X4YtzJA+MzfLkpTdJ/Zg8+KY6SRee4ryRLHHI3bkFciU5F2yZtt+OVzEhtklQWlIGE4yRhRnC4NMBN1PoRD5YbTHz3H2gr6FEsfBw4BACjDUGANSiCAnOLkAg08UFUcK5YdDiOHEgcZYYoBxHFHEjFhj3CF0GBWXigMhuOCCC+z9o1i5R/Ll6dM4+hjqYHTr1s2mtUAkMBgoW+f4Q/BwJLkuv+PccA4MO/Xj0iQxEM7BxUBAZgBtgJKHFEKqMBw4Djg5vPKMyDFEwjmS/B8HAOcccE0MFfXE8+IsFBfl514hcxAi6pWIOHWPQaZNMaI4284gYnhw6jA8tBPH4eRivADGhf9h7LhXSAkGkPvhvi6//HLbbhgy6ovRPxwIzoszh3OCs0b6DvWFQeJaGDecN0eivYBA4UB6iY0fMOY4O8gto1O0C22Ig8J1GAmgHZFjnAWINE4FDgjOC+SHYALXod0cASf9BGcHw4tccjwOI2QBuaSdnFzy7GxW7w1YQBxwYgAOETIdCqT6IoPhkDCcAJwEnC+cE65JvdMuyCEOJ+ej/iFYyAD1D+GBYHAsCyjR/5A96o25yJA5zkcAAdlDBqgb2pr6QTfgYDi5pN34PTggQL/kejiotDeyRx8FOHq0FW0A0SHNye2TSfoWowu0H/2N3//5z39aOeFe6b+MFNNH6N9cA/INcJSQT/o6qWLoABywUClERSEeSBh9lL5BkIn+7RxuB0gQdU77QkTCIWHIBDoA3YEfBJGl39D2BH+QZ2QHX4k6pm7pb/R9+hrXoA1pfwIF2KHGjRvb0XT0APfq2hp5I5MCp522pJ85QoP8Opn2gjZmMTBkiOsSoEEPA5x93qMbqRt0B++5H8g790P/oM96SRjnQC9DXpBn+j/PR/DI6WkKsucNQAB0gbtnwO833njjSXYXx7+oVDn6kgsOUofUP/IPsLHYR/Qnz4RtYsQOfUQf4pkhxByHHgXoWEbz0GUUns8trkYAk2AMRIg2RXd5yQv2gYCNF/Rfzsc5XKCNtuc++Q1SjQ6gzQDXo0DA6Iv41MgV9Uua6n/8x39Y4gOQH2wUxIg+hx7l+bgn6hs7gR+DLscW8Tt2j2dE5rgf6v+3v/2tlddgIG/8F3vNfaLnIOmA/oG+QD+iW2g3F7BFv/zlL3+x5I1nxP6iF/k/dqCo6Tb0xXPPPdfa8mBUSRIWKagghskRGEXFYHV6nvSanipfTEmR5IyTh+dJYWQpfQccN5xaDCYOZTgF418SclIarN+xX9ZuL0zbwKxMTtolrw3eIC1GpMhL/dfKFzOMEx5ihcqSoDQkDKcRxYUjDXlCWQUDRxGF5CKgRQFFjIJzcwedgnOOGwqXKKADShbljLHEeQMoSiJrDjjTl1566YkIH3AGG0OCkQDUA04pShYQmfVLPSAqCGFzIELoRmxwyDE43vkWGEsMubs++gKj6EgYpITUQe4FUsgrhp575Prewjm4BwcIZqi8e4yBizgWB+ZvQXwd+vTpYyOMXI8+AyEIJtC0uRtpBOhCZIBnwAHj/zgN1D+G1ksEcQLc83O8IzKAZ0JeXMQZB+oPf/iDJdehUlaoE8hrqEV+vOCZMKjerT6QF0a4cMZw7BmBdKAtcfJoE+7bm1KEA+SeDWKFsUeGHWhLZBhgL3DEHNBDOBWQNc6NU+iMMbIXTFa8wEkNl4QBZA6jzkgm/YvPOAyXXHLJKU478kT9u6g3cggJxTGBqEGEHKh3ntmRGwgYzg+g7TmPG0HjeXiuYGcZneF15mgHR07paziRXBvHi3Zzx9KHXLQdQCRpC/c8yBdOtQPOtZM5ggE4y/QP0l6LmytUFOKBhCF7OJ84q9QRxNn1JX6jL/OZPv7Xv/7V2r7igBxACABEhNF+FwChz9JW3j5PgI1rEXBx6WqMjriRAuYS44C70S8v3OiEA6NqkDfAc/vZLvQFZNABR9+RD66BvXAkzwFZc6QG4Kw7EkadkC7IOQiG8eoCjjwnesWrp71+If0kmIThgFOHHOvACCByWhzoW5BM+ptbDA395+rEC8gi2Q0OkDCeiTqDMBEkckCf02e5d/qxt/9AxtDVDqF0FHofEguoF3QH9sQBYoLO4L/UIUFNB3QO9pO65vloI2wy90oAzBtEp06x/XyPPHM/tAckDwLtwLO6DA4AyfXzUwg0olMcuE/kEdIH2UamHQhY8FyAADGBAy8IZNEeRYFAJffqgsrBUBIWBly0z9vZFBWDFZv32I2why3KkNSswg64btteqdlzmSSlF5Kz9PSME6kGREqIVhRVcPhxolx0uii40an9Bcck98AROXayn2E/55nvvb/hi/A/Pu49dNQugHLo8DHpOGWrfDJ5iyVarEg5b2OurNq6V3btOyyjVmTJ81+tkWVp/vngJUFpSBh15BQzkTYMvDe9AoOEQ46xDeVAe4FDhHLDYAMUHI6iU/ZEHCE9AONBahfKE2PLtQEkCmXKcwGUNBF5P3DvzqlGKeL80a9DgXMiE17jTY65M4TUIfKCcsVgQChw+DivGxFAX3hJGAqdFU9dlJo6AxABiCvHYUh55VnceaIJjJI3OohTjUMCaAsi1Bg6yJIjgRAXLyGhbTBWPAd16Nqb58OYeYFDgiMFiHR6z+OMniPiEBPuj/8QpfQSJAfunfkefg5oMHB6MJrOUQCktVDHEAYcA29fgETjpNKOjKZ45YNzMHKA7HC/EBzvPSArzvGibXH8nVwiB8gFckydRTJKHwkJw6mkn+CIcA1HOIg607e8DgugD1L/jhA6EgbZQHdCjLyg3+GgAfq6C2Lg0OPEQU6LAjrES8Ihx9wv8sO94mjihNPGjB6683MtV7cAEoaMuv7jHcUAyLC7T9qSPkj/xOHjf+EGLIIRDySM7xnJgGATnMHRdcSZIAtyiHxSP6TYQYSpm6KALDsyhewTjHMjaPQLNzqBPaA9aT90I0EOiADAYXf3Qd8jKEG2QDBof2/wDaJC4KgooI/o1w48H/fkwD2gU9AbBO4A9+OIJcC/czKEHmDEFHIHWXFBKfoz9YAMo0Mo3K+XyPqRMOSY/uddmASdW9R8YNqW0Rn0IW2FXWOUECDPtFswuBcvscPW03fQo9gd158AI2j0Z3QkRAIC5MD1IJ9FATuNznPti35C93tTq6lrSBiyiA1xxzrgK3AtbB1tAZnhHgkSutEnngGZwh4weoi+ov9C6GlDr6/Bs3rTVZFDsjKCARn0Ph86lkACfZtn8MolOvvcc8+17/FRvGQfoFvpV6GAzPBc+B/eQIUXSsLCgJKw2AIEZlnqbjsyNn7FdukxdZPc/6lxHAYnycHDx2Xzpo220xMxCafQqensdNii2viguW7v2ZkyaOEOaTchTV75doN0mZZuSFfhf7LyD0unqenScmSKvD58o3Q27yFjlO4zM6TnrExpPGSDDF6yQ4Yv2yn1B6yTVwevl/fGbZaM3T9GyUBS5j55qd9amb+x6NXzIgEKoaQkjLQDb3QM59YZRwwGTh+pL8HRb67lF0VzUWlH5FDEGD7nKHI9IlmcD2PunAAMBk4GwNh6J2DjJKH0nVNBW7rzYTBcDjq/Ix8YIoBj7Y1SAowpDrkjUCA4tQfw7ChujC5KHGfUXZPrk7riyD1GkuhjMIgKYjxQ6DimpNXwnMU5R0UBmfardwwTxssB4oTx8so99Ui6ixvp4Rm85AkH2RE3LzCg/M+NrFCHkBU3EoXRdcYVMGKNc+Jd0QtgFDG4RI+5PyevvOde3KqcDhg3P8fakTCvs4XMcT8YWt7T9g44X8gFMhns6OAs4Nghj0RlCfJ4STKG2I2EEaUNjpjy3C6NibZ14L4dmfADDh4y5XU2aNfg50XmkC3vaBwOC3WDXOJweUc4qVOek/rHWQc8G0EF/stoAm3n+jNOFqPMRK3RIzjzLg2L/1OXjoRxf346BofSO4KJHKE3uAZ9zQU4ggEZ9LYhJIxnc9cgRZh2c/dK8AYHGbiRMPoS7Uu7hXKGikM8kDB0oiNhAN1DsIH+zegmgSS+w1n/+c9/bkdOOJa+Ql9wdegFcu/6MG3MKDhtALyEB9JCWzldwnWdU4yTj0wBZJd2cKNLADsMkAFGiRwI4Diygow73eoFbe0NGBCEgGwHg1F+FwDBmaY+HKgXZBqQAkh/CQ4CUUfUO7qQ+qDgpAcvLMR5vJkD/I4jT98BnIe+6vQA9R4sk9SV1x4SwHJZGPQhbwoz56PO+d1LRiE91IvTg96Ue+oIHUd7c6/oJvQ1QM96bYSfjqKPo/PcM/Bf2tsbZEHn8R2/cX5nwx2wxwRe+I064v4gwpzXpfbRz102CjLHiB71RSA4mNjwGRvrwIiq30gYGTH4DU7WIWXUD/2JoIWXyOHjuDRJ/hdMuJAFJzfB4D5pK0hYUYFpJWFhQElY7GL00kx5vPMiWx78bIF8My9TNqVsME53ZKuT0QlQxEW18YGCY9L2u03SbNhGWZW+VxJMqWeI1JgVWVJw9Jh0m54urcdsknXbC9MMXx+xUXoZ0pa197A0N/9pOXKTLNmcJ6nZB2XLrkPSYWKafDRxix39Ck47HLRwuzQdukF27St+VClclIaEoYxwlBxQsBhSjCeKl/k1RKSZX8KIFc4PQAn6OVcoWRSqc/RRcMzTckaH6+EooMBRkBBkFC8KG0cfEJUlwsdvOEgYBiJc3CeGmQiai3zynSMAOGQ4BaRpASKO3lQNBxxaDCERSNI/IHiOlGEwSL1AYWNoSHuBfBCxxECSrsO94wDinAAMBCk65QEcU7/0B5xI6hlZ5xicAQgPDjr3h0HmeZ1RAjhCGCeIJgaZ0ePgiCBArjBIFOoO0oVhdEQHEut1ph1x4BgIaDBoO6LitBdt/+///u/WaeQcOBFuhIt25BzBjgIGGkeDqDuOBRFWCDPng+g5g+5AOiIOJYQDJ4h5JrQzBIx2c9ejDvnsJWEQWSdDkDTmKCEzLuUKwsn5/vGPf5x0TTcSHwzuETLO3Ju///3vtg+5kTmcGfoG/dmBZ4WIUF/cJ84MJJbzcBz9ggg99Ya8U7f0F56D39woBWSK4AR1wHucVtoSZw45wJlABjiXI2Gkk1KX3tRi2jrYYWbEghQ4nhddgWPqAiE45PRrHC6eE73hRlt4Lq/DTNshj06PIbf0Z+dU4YjS3gDHjTZlFALyDpHkd9f3I0G8kDBSuxyxJsCBDgt28nB6IVOk4QNS0pAdP9uAw+r6J6NYzN31kjAXCEM/QF4YDUH/MjfNpSDijELq6SOQAn5H9tCntAejDAA5d04vQJe6YB//QQYdWXDgntC7yBdyhWy49DpkFPlAvpBhp4vRI5BV7BX90RF5AAnjfE6ewwVzkdAV6FdIDLoU+4hcMrJMH8HhxylHR9I/+I1nCh4lor1c8JG6R584ggOZo6/Qj9Dj1A/9ElvEcdQT7Us7YH8AfZLz0f+5B57djVpxfsiQq1f0vzfFjnt3BNAB3YHO8waU0FdkEGB3uA7tgL8BsCdeYgrwAdBtEC38Lubq/exnP7MBPueHYWfQ28gZ98Q50T/YAwiRl4RBigkqEWQgWIp+8dOt1AULJ+E3OD3kArT8l3Ng26lv2ozgDcCv4Zm9QI+Susr1vAshAc71n//5n1am0V/83/kjXigJCwNKwmITLF/fZfJGOwr2UMeF8oAhYY91WSZ9xi6Q5597OnBUeECB0pGKI2HvjE2VAQt+nJvTeepW+XzKVtmeWyANBq6TBSk/OlikFzLyBelqPjxFVmw5ObXwq7nb5EtD0oKxdtt+qdN/rfyQXPy+KpGgNCSMVYow/M7RwbnDQOAIoEAwoigayBSOlDPS5Fvzv2Dg5KHAnSOBIcURcPWPo+UcWNKlMJKcF+cJ4+Hug/MTUcdBAjhbGCGcV9KzUNgcixJHyQMUN+dwKyLhcAcrUEB98YykN2GoqAOXqoAyxaBj4L1zG5AjjneTlXl2/gdQts4olSUgIxhVnCI/0F6MMmIUuDecXRwC2gM9hyPhHZ3CoeN7jsf4QlZw9F0beEG74thguCEw3hQcHO7glDXqhHvBgBcFronzgLFk1JT3tCmgHTDIwc4Zzh6knedhVAtnxV2f6D+OD8c4QKpwGnlGwNwARmT5n5MvgDOPrLr/OvlChh2C5RLgRHjThQDORPDEfkD/Qn6RefoUjo0jYSxIwWhPcP0T0EAecYC4dwIBrq/zbJyDdsEJcd9Tr8irS7vlvl2KMO1OG/If+rYjufQf7tnN5cOJRXZcWxOAoT29JBHgMHLftCHndO3nQD9ipJa+TsDEjUTQh1zfBfRbrueiy/RdR5AB8u3IBefAAXdtSh3SLq4uI0E8kDCCKRBqN7IEkPPg1D8XaOAVUF84sd7+4ED9MZcRuP+5tkY3I8PobeSCkQHIEP9hZNxlOtDf+J5+667BeVzqKHPNAA6vd04OMuzION8jp356B5kj6OECgO4cXJ/vkCtIipMD6gkHHFuBXFM/rh/SV6hDr+4KB+g3+gv9lWtSn/RjQJvRh5jnCPF0Cw5xf5AQN0rmBf0DEoGu4Xm8Ngr7ihzzu7O1PAfkAZ1FfdI/aQfahjqjPRhVDNZnEDb0ntOftIELjgDkx9u/AH2P+3Pt64Dd4/pcx9uO3EdwxgPX49zOVnKf1J1rb0A9EVChcE/Yf+QHHUUf8PprPCP2FTmgrakvv3rlGgRt0HW0B/Xrnp1zcK8Egahb9KMDWQnB9cD/uBb6zHss4F6D/SJvvTsoCQsDSsJiD0eOGaWyeqe8MThRWg1LkjeHrJbmg1bLqwOTpG7nyfLgoydHLIpDJCRsyOIf0xRIM4SEbck5KHW/WWcJlwMjXI0GrZeUrAN2sQ1GyLyAgPWcdfJO85vNeZoO3SgDF0S2YWw4KA0JU8QPcFTq1KlTZApEZQHOFKNgLlrpBcaa9DqMakUDJ5Qorl9AIhIQnWeUy410xBNwjoLTeeMJ8UDCFPEFCJnfaI2i7EAwypvVU9FQEhYGlITFHliWPnf/Yck7cFjyDx6x73fvPSw5psxZsloefazsSNhnP2yxi2scOHzMkqshS3baBTdIU/zGkCfidNxfr1mZ0n5Cmh0lIx0xOfNk8sMcsU5Tt8pRQyjN4bIpq3DErMfMTCk4UvgdJVpQElY1gFJ3c0IqOxjpcCONwYCEEpV1keKKBBFZoqUuEl9SEOGmfeMRpKIx+hGvUBKmiCYYdWH0hGwNRfmBUT/v3LWKhpKwMKAkLL7AwhxPBuXuFoewSJghXR+M3ywvD1hryVXr0ZvktSEbZOuuwvQKlph/qd8a6WhIGvO9Gn273o5s7T14VOp9s04S009WtqNXZEvNr9fYeWGbcw7Ix5O2yCPdE+0rRA/CN3dDyRdnCIaSMIWiYqC2I/6hJEyhUEQbSsLCgJKw+AIpO8ETKItDuCNhrGT49dxtMsUQLkbAtuz6Mf2QES1SDhkNG7Roh6QZAgZYnp5FPBix84JVE6eu2SXDl+607/nvwk15di7ZnA17ZPra3SfOEQ0oCVMoFIqSQUmYQqGINpSEhQElYfGFsiJh7A3WclTKSQtzxBOUhCkUCkXJoCRMoVBEG0rCwoCSsPhCWZEwRrSGLN4hs9fHp/FTEqZQKBQlg5IwhUIRbSgJCwNKwuILLEMdvKlecWBJ9OJIGGBVRhbdiEc4Eha8f49CoVAoikaskTC3/LlCoYhfKAkLA0rC4gtsAlitWjW7pwNtV1xhPwv2GmIJ5eC9hioTIGHsr6MkTKFQKCID+5j5bYVQ3oCEsaeVkjCFIv7B/mMl2Ty+LKAkTBEVsJnnLbfcYke22LyUHcuLKmwOCgEL3jy0soElcSFhjIZBUImmatGiRYuWogv6ks2zgzecrQiwKTJ736HLVY9r0RK/hf7Lpt6htlkpb8Q0CcNZr8yjJJUJbOD64osvWtIcboGgVAXk5+fbjV61aNGiRUv4heBerGyATjZDenq6731q0aIlfsq2bdtsYCUWELMkDLYKCVPEB9jA9YUXXgh8UigUCoVCoVAoFKEQsySMRRuefPJJ6dSpk/To0UO6d++uJUZLz5495Z133pHq1asHWk+hUCgUCoVCoVCEQsySsIMHD9p5NH369JG+fftqifHy1VdfydKlSwOtp1AoFAqFQqFQKEIhZkmYQqFQKBQKhUKhUFRGKAlTKBQKhUKhUCgUinKEkjCFQqFQKBQKhUKhKEcoCVMoFAqFQqFQKBSKcoSSMIVCoVAoFAqFQqEoRygJUygUCoVCoVAoFIpyhJIwhUKhUCgUCkW5YdeuXfLtt99Kbm5u4JuTceDAAfniiy9C/u5w9OhROXLkiC3Hjx8PfBs7yM7OloULF9r7BLweO3bMvo8WIj1nRkaGTJkyJSbrq6pBSZhCoVAoFAqFotzAHrC1atWSgoKCwDcnA2Lx/PPP2+P8sGLFCqlZs6Y0b97clrfeekt27NgR+DV2MGvWLLnnnnssqQR16tSRwYMH2/elRVpamtStW1eaNGkir732mnz++eeyZ8+ewK+hMWnSJHnggQfk8OHDgW8UFQUlYQqFQqFQKBSKcgHE6/HHH5evv/468I0/hgwZIk888YQvWYCcnXfeeTJ9+nQ70rR48eITRCeWMHfuXLn55ptl37599vOMGTMkJSXFvi8tGM0644wzZNy4cTJhwgS56aab5Kmnngr8GhoTJ06Ue++9V0lYDKBSkrBNmzbJ9u3bA5/8sW3bNklNTQ18UigUitBITk6W5cuX2/fr168PGW3E4MaTXsExSEpKOpEqo1AoFGWNDRs2yA033HASGZk3b56888478sEHH8iSJUvsd/x+yy23yLp16+xnL3r37i1333134NPJQKd99NFH8uabb9qUR1IVAamBkLbZs2dLq1atZPPmzfZeevToYT936tRJcnJy7LGMYM2ZM8e+B5CcNWvW2PeQlzFjxlg/E3uAbejVq5e899579nfu+91335XOnTvblMpq1arJ3r177W/z588/8dyQKEb0uFdG8rZu3Wq/B5y7Y8eO8vbbb8uXX35pCWmw3Zk8ebJcf/31sn//fvsZgnfWWWfZazEqOGrUqBPXTU9Pl7Fjx9r3/M87EkZqKPdJfUGMHZnlv9988420bdvW1qO7jiJ6qHQk7NChQ/LQQw/ZyEhRoBM++OCDvpEAnCiiLHTILl26WOVQWiDAlNKCTkhHcoqiNFi6dKl8+umnIdMBFApFYdT2xRdflKFDh9rPRHCdMQsGOoO0kKKA4e/QoYN1FIJBmkijRo2kRo0aNrUEpwF0795dVq5cad/7ARKFU9KiRQtp2rSpNd7FBaIAzgNR2uLmXSgUCkW0gJ6DmBw8eNB+/uGHH+TKK6+0BADi0qZNG/s9v9966612pCcYX331lfzrX/+yvhDH4fuBhIQEueSSSyyxGTlypD3m9ddft7/h2zF6hg5///33Lenp2bOn9YNmzpwpDz/8sLz66qv2WIgPRAXdip/461//Wl566SX7G4F+zkswH5Jy2WWX2dRKzrNz5065/fbbrS7u16+fXHrppXLHHXecIDCM7HHv4IorrrAjUt26dbOplffff799DkjQo48+agnY+PHj7fNUr15d8vPz7f8cpk6dKhdffLH1dyF29erVkxdeeMHO9YLgUaeZmZn22GnTptl7BtQ3z8Y8Mu6LtE/+yzH8n/riHNThI488Yo+nbSByiuii0pEwohMIjevcoUAEmA7HsGwwPvzwQ/nNb35jIzI4NHfddZcVUucQlQQIMB2ytEhMTJQzzzzTDr2XFgsWLLDPqCRMoQgNIpfk9Ofl5dnPBHkwjH7YuHGj3HbbbXbicygQLf3JT35iyZYXGH2Mbbt27ay+qF+/vjXw4M9//nPIuRGASCbOBefkOJwM7qO4ORLLli2T6667TkmYQqEoN+ALORKAs//cc89ZwuHgfBJ+f+yxx3x1H0Ht3/72t5a44PO9/PLL9vvGjRtL7dq17XuA/j7nnHNsUGrLli1y0UUX2e+CgQ4cNGiQJVAQLwjHNddcYwkXAbPzzz/fXoffBg4ceCLtDwLFf9zCGP3797dpgW7RC+Z/QSTdiJSXhEGgXHCe4Bz6H9LEtW+88cYT/2HOF6QxGIzU/fKXv5Srr776BNmDBAJGu6666qqTSBijisCRMAD5hKytXbvWElrIG/dFwL9ly5by9NNPF+tPK0qOSkfCYPMMAzsggCNGjLBRbCecDgx9I9zBaN26tdx5552BT4XnwFFhuNqBSAXRGe95cbyYKOlAJ2SoG8KHk5SVlRX4pVDJMLzN/73fcw46LeTQb5SOtCiiJy41ygucRIafOWcwYcQ5pLPT4YgU8UzcA5EhpywA5I7juI5CoRD55JNP7MiUw5NPPmn7yIABA2zk05tSg4F2v/sBo4oRRpdguJ3uoH9CooJH2Hbv3m37Kb85QuYHzkN6jxu1p/8zV4DUG/o3I//uWugVjDf3gi7A2DsShiMxevRoG4jiGbzGF8MNQQz+XqFQKCIBo/aM9ABGfggYQYCCge569tlnbYAqGASq0HkQJPSn870gF2QwOUBo8JnI/MHfIajuzSRCZ+LzMQKGLmSEzo2qEahHHzI6h04kGE/wmoVAPvvsM3sMJMyb/UAWAqNJDhzP8zlCBXnj3gHkjPsCEESeh1fsCP+BBOEPQuogR8Hgu8svv1xWrVp1YjSR6wE+QyIZrQP4ftgc4CVhnP/3v/+9DS5SILXcP6NuEFeemXuhDlTvRx+VioSR90vEetiwYfYzhIaoCB0ENn/fffedRJJwohA6F8FwIDcXofOCYW2IGEO3ECqGpRFOoi90KqIlDLGjWFw+LcqB+yGiQM4xo04Ah4eha5wxzkPhvESl6fREwFE8zZo1O9FxHUKRsNWrV9tr03mIKtHBcLAASoZoEoSToW86OmSLjsvzO7LXtWtXe7+vvPKKjaT7ET2FoqqBvkpahgN9lD5IygxpikQhiWI60H8w0n74/vvvrS7CwNFHHbEiJYbzeAMiDjgExZEwAjnMDfjuu+/s8S4VhftCtxAlJUsAQNC4f0bVmc+A4+HSXHA0SNOGeKKfcAIA/8VhgHQyP6CokT6FQqEoCsxvggy5kTD8EOYkBQNdxugOI0/BYHQMwhTsvxEEIxXQAZ8JokLqISSM8zligt6D4OCfAQLr6DmXOgiZI00Qn4p0cIJQZBvgn+E/AUiYN6uBczmCAwiokwboR8L43gXO0NXocHQrQXJ8NWwMPiyjWH6ATF177bU2WAfw8UhbBPhvjIThrwK3cAfwkjB0O9flOHxoCCAIDs4zEjh8+PDAN4pooVKRMDoWw6hMqASMQHlHmRBqb0SF4Vpyeb3HAD8SxkRRnCQcGJQFjpQDThedHoVBhyBPF0C6XA4xThykCtAB6XxutRw6M8SNzsmcEsC5OAby54UfCaOz4DC5XGbAsqUoI37jHhwB5JlRXETXFy1aZB0wwITTCy644EQUhYmw4cwpUSgqO0jhIMUE0J8wXt7RdqKL3sgrRAbi5geMJBFFwJwvl9ICuSFq6YdwSBiBHogWfRjDyygYfR2gs9BLEEBAFBhjTJCIfo4OIMKJE4Cz4iKzOB3oUxyC9u3bW0fJIdjxUSgUinCBU49/43wvFrXAF4OwkMmDbkTHoKs4zi99EPKDznRBbwcynyAMBOPJAMBXc3PC8HP4DzoNEBBHF+LTEZQiiA0Jc74ZKXq/+tWvbACfYDULL/3iF784kbIIGPkiGOfAedDXpBwSDMPv5HgX6OJcBN0A+tb5qwTySZWELPLcBNHImMBf7Nu370mBPgfS4rmWC4pRr//85z/tc/Js6G/sERkRjHCxaAfgfzwn9oyUdeYFu3nKLO6BD4uPyCggdYgt4Bn4rIguKhUJIy0IB4mO48BoELm0EJRzzz33JBLGbxzP8K8XfiQMJUC0gJQeCA4dmQgFo1Y4PURGQMOGDe21iCjQ2VAIABL2xhtv2PdEVoIn73NenChyjomqMMJ22mmnnZIL7UfCcLLosK4zA0blGLnDucKB4no4ajiAKCUUHCTM5QijsEjB9EY/FApFYcoIUURAv2FU2REcQADGrYoFiIR60xcdiDTiaKAH0Au8nn766dY4E3xBj/ghHBKG0SZIxAgWZAvSRbQZoB/QBW4eG1FT+r2XhGFw0R+QN4JKrJLVoEEDa3hJ58EBQMcRvSaDQPWEQqEoKdB5BINdwBq9Snof/hgBZUb0AYQA8uAIjBf4ZB9//LHVj8Fg5IwgNIEjpp24USjICjrSjRwBiB9ZTeg8soHQb24kDD8O/e78MO4D/45jHHiGYN2M7iUz6ZlnnrHv8a/cPUDAnK8G8XErP+IDEiyHPOHLknEBOeS/3Bv+mfe+Ab4u/q0b7YIY8rxudI1nw6fE5yPt0JE/iCI2x60aSeCNeXTofAKILujIKwST7yDKGnyLPioVCaODEUlwy4ryihPBJFCEkQ5O9MSBKAXEx82VcICE8T8viHawHCrREKIlFBwz5nCQa+uIHB0S8sUQL50GBwh4SRj/9Y5aASJCREW4Dk4UhY4EcfICEgbhwoFywAGDmHEfDvwf0sj98swoMsgf13UklfM7EoZTyDNrJ1MoTgaRUhe8oX9g1JyTAOjPBDocSNfju2DQx9A3GF76OdFeIrYYOkagmTxOuowXkB1HwopKBUF/kGZMxBPgJND/MfwYWn4jMAOYOwpJQ5d4SRj6AJJINJXf0BPoL2eoASPzjLZFY5EhhUJRdYE/xMJn3oAOesiB70nrJthdFEIFhPg+3DlM6Ljga5cWwb5Ucef0/g7pI+DlCCa+Kr5tqDTwos5dlE8X/D+3+JQX1I2bsqKIPioVCUNgGcFyKXyM+uBsADojo1deEsZEUEesvGAIGKeF7xmqJYLAqjVuKJaIDUTLDUfTeZ3wEkEhwoNz5UgXIJfYpSMSNeG+6FAMe+PQ8X9Sk7xpTkRdgofaIV84QdwL89sgf3QS5nBBsrg+5yKy467PqBrRbRwzyKiLKjG0jgNGR2RiK89IrjCdFkLnIjQKRVUGfcfbL+nfRClJI6Y/QZBcGi9gdJxopBfoCvqol6wBorKcD12DTkHvcC76I5PX6ef8969//asdzYZkQaaClwomkEQgxi3lTMQUQkVqDyAIw/+JsKKLSKnhGhAtRuDQQ/yH6zOSh04huOOei4g0+gA9ykigm5SuUCgUJQFz4EkT9BvlAvhzkLSituaorMCvYxoJz89oH6ODTpcrKhcqFQkDEA63lCe5tUwyJ40GQsLIFLm1DqQQBacFAnJ5//73v1tnA5JGapF3bhZRZ4ZtiVQwCRLy5DYXBDha7CnhhoQBUW9G2ABKh7RFCBD5wrzHuUHZEGXnugwfM2oVPF+NXGYIHIQJh4lUKVIT6bQMf+PIcV8MLeNUQbC4HwgonZmJ9jiQkDn+x/UdCSX6wrm5B87lTetUKKoqGAWjTwL6E3qDvoReIc0PsuQiigRkWNzGm64I6MekMbvNPh2YB0C6BwEZiBT6iD5JGg393zkgpCijvyBynD94iXwCL5BFLxlE57i5augndBlkjHvHuKMzKFzHzYHgOO4HHUAKipssz2gd6T0uUOTSXxQKhaKkQG+FGmUhGOxWba2qIPCFnxacEaWoPKh0JIxoAQTCDS0TzSUtESeH71yuLyNMkBFvWpEDSoFFPlhenvQgv5xjnC4cJM7NfAlvyg7X4bpecF3vSocoGHZKJxfXe36cIXKdSQny2+OH6+IA4Txxb1zb+0zM88KRcoqN52DSpTd9kdFClw9M53YOJCBSDnlUJ0uhKAR6gLRdtxS961sQq+A+yqaZ9C83Mu5AXwse1Xbge68jwnnRV95+yWgY+gOnhOKnk/jOjc4DdIz3mgR/vCNo/E7hf95r8ZlndZPXHXhWRt+9xyoUCoVCoSgZKh0Jw0EhvQcSUxRIxSMy7AhMZQWOFyN5pCeSZsTwP1F2TTVUKMIDRIVRJiYmFweWFA5OOVQoFAqFQqEIRqUjYYCUH0aKigIRYfbIqQpgtIv0JVKKmNxPmqZCoQgfBHf8RqaDQd8KdzK4QqFQKBSKqotKScIUCoVCoVAoFAqFIlahJEyhUCgUCoVCoVAoyhFKwhQKhUKhUCgUCoWiHKEkTKFQKBQKhUKhUCjKEUrCFAqFQqFQKBQKhaIcoSRMoVAoFAqFQqFQKMoRSsIUCoVCoVAoFAqFohyhJEyhUCgUCoWiNDh2TGTaNJH+/UX69hX54QeR48cDP3qQkyMyYIDIihWBLxQKRVWFkjCFQqGoiliyROSTT0Tatxdp104kISHwg8GuXSJffy1St65Is2YiGzcGflAoFL7Yu1fkjDNE7r1X5LXXRC65ROT550UOHAgcEMAbb4j827+JNGoU+EKhUFRVKAlTKBSKqojGjQudxg8+EKlVq/D9iBGFv/XqJfLkkyJvvy1SrZrIVVcVRvAVCoU/cnNF/vAHkWHDCj8vXChy2mki48cXfgbz5on861+FpWbNwJcKhaKqQkmYQqFQVEXUry/y4IOBDwaQrgceKHy/bVvhK0hNFfnNbwrTqxQKhT8gYX/5i8jw4YWfly4V+cc/RKZOLfy8b5/IU08VBjheekmkRo3C7xUKRZWFkjCFQqGoimjYsDB1inQp0g9dGpXD4cMie/YUOo1XXy2yfXvgB4VCcQpIR2Tki1Hj554TufbawpHko0cLf6cfPf64yMGDhQRMSZhCUeWhJEyhUCiqIlq0EPnjH0XuuUfkiitEnnhCJD298DccytdfF7nlFpFf/7pw3phCoQiN/HyRP/+5kFy1bi1y5pkikyYV/paSInLddSKzZhV+ZkSsevXCxTwUCkWVhZIwhUKhqIpo0kTksssKI/R33iny6KOBHwyI3q9ZI7J4sciHH4pcfLHI998HflQoFKfApSNOnlz4mQU4IF4QLeZakppYu7ZInToiZ51VOGrWp0/hsQqFokpCSZhCoVBURTRo8OOcMFINzz5bZOjQws/BwJl84YXAB4VCcQogYb//vcjgwYWfk5NF/vpXkQkTCvsXy9dPnFhYbr5Z5PrrRVatKjxWoVBUSSgJUygUiqoIIvKMgLmUKFZIvOuuwrlgo0eLLFokkpVVuMrb3/4m8vnnhccpFIpTkZcncv75IiNHFn6mX7HYzSuvFH72gr6nS9QrFFUeSsIUCoWiKuK99wrToyBdYPr0wuXoWQ2xe3eRm24q/MyiHPXq6RL1CkVRgHStXl0YuHDYskVk3brAhwDYwHnDhsLfFApFlYaSMIVCoaiKgFRlZv44EnbkiEha2o+by7JB8+zZhWlVCoVCoVAoogolYQqFQqFQKBQKhUJRjlASplAoFAqFQhEhjgdeHbyfQ70HRf2mUCiqDmKChO3du1cWLlwoU6dOlenTp2uJYqFOly9fLofdvA9FRDh+/LgkJSXZupw2bdop9aul5IX6nDVrlmwk7U1Rpti0e5esm/yDyMefyp7+A2XejFlypFdvEVOWTp8p2wcNFvnkM1k3cbIkjRsv0rGTZA8bKQvMb0c6dxX5orv9z44hQ0U6dZZ1EyZJAseZ9/njxsl005bTfNq4shdkmLJkyRI5dOhQoLYV4QL9unnzZpkzZ66pz5kyw8hYVIo51+LFS8x550RNb3OeGeZ1/6iRsrz/NzJp0BDJf/d92dy1u4wbOkJ2tP9Icj9sL5OGDpdV3XrK3nfek/mmX03v21/2tmkrmz/vLCNGjJIdH30iuR0+lonmuASOM78tMv1wxZjv5OioUbJ09myZGoV7ds+9hq0mFGWKgwcPyrJly2Wmlb0gWSxFmTljttEtS837GVGVY15nGts7evQYGWpkd9iw6JQhQ4bJ7NlzTJkV1fudbfpEGqnylRAxQcJGjBgh1157rTRp0sSWxo0ba4lCoS5feeUVueaaa2QCy+QqIsaePXvkqquukho1akjz5s1961lLyUqLFi3kgQcekKuvvlr2798fqHFFWeDb6tXl/X/8RfY+Uk0WP3GPNGn4vKQ/fKfkPHCbvF3/Ofmh+kOSf+eN0rvW49LZfM67/1aZ++R98nqD52TrE/fKrvtulaYNqsvUZx+U/Ltvlj7muK6NnpdV5/xdht18s7z5xhvyahXU3U2bNpVGjRrJueeea5ywZYHaVoSL3Nw8ufHGG+WOajfKK41rSV0jY9EoDV+tKRdfcr48/vjjUdPbrzZrJm+Ytk79yU/k6+svl09a1JUDD90hSaZPvN28tmwx/SX/4TvkI/McE00fOvDgHTKg7tPS9bVacuCxu2T1Mw9Is2a1JePJe2Xfo3dJ+ybmuNpPycH7bpExr9SUV+66Wdb/9Kfyxf0PSCOjG/3uIZKCbNaqVUtuu+02OcJ8T0WZYdGiRfL7P/xGnq/1mNRvVMNXJiMtLzesLi8Z+Tn/gnOkXv36tj392jnSwnlee+01uf6G6+URYwuavfGyvNL0pagUzkW/e+aZZ6PW7zjP3XffLY899ligtisXYoKE9evXT9q2bRv4pIg26HBffvll4JMiEuzYsUPuvfdeyWQBA0XUMW/ePEvCdu/eHfhGURY4fM65sur5h2T7sVTZkb9a8o+lyLbcBMncvVLyjm6UrANrJCNrmew6tE52m98yzPc79xYel7kvyR7H+6z9yZKRs9wed0x2StePW8igTp0DV6m6qFmzpsydOzfwSREudu7MkgsvvFCGf9eLT7LPyGI0ynFJlyav17OjCNHGpJatpcsHTc27XNmRlyA5pu8ckC22b+zMS5T9kiZ7jm+SHaZ/5R/ZIPvM5x17k+xxhwLH0QftcUc2yg7Tt47Jduk16HPp9+47hRulRwlkGT33nCGEbrEdRZlg1qw5cvmVF0rajiVyRLb6ymSk5cDxVMnZnyQ1az0jBQXRz2T66KMOMmHqN+ZdthQYWYxG4VwNXq0la9YErQhaSkyaNMkGVCojYoKEffPNN/IGu8srygSQsK+//jrwSREJdu7cKffcc4+sX78+8I0imiDd4Prrr7cjjoqyQ5/rb5S+DZ4zbuNWS65wFnEMdxiCxfudxincsc84kfnmPb/xfeA4Xv2OyzLn2tK5rey59HKRKjySeezYMXn++edtQCGeQco6wSaep7yQlZUtl156qQwc1lUOyuZCGYtCyT+83pIw0hyjiuPHZfIbreTT1g0M8dpa2IfoE4Zw2Vc+897cg33PK5/pQ6GOM31r77EU6fZlOxlb+yWMTuBipQdBxKpAwkhrJZuC14oAcnbp5RfImk2zJffQOl+ZjLRkGxnZmrVUqtd4Snbvjr59/OCD92XYmJ6y1xA+K4tRKJyrTr3qsnz5ysBVooOxY8fKk+y5VwmhJKwK4NVXX1USVkI4ErYueK8XRVRAvreSsLLHs3dWs6ki+wMR+miUnbJFUju2lux/3SZSUBC4UtXD0aNHKwUJy83NlW+//bZc57Y5EjZgaBdDalJ95awkJa9gnTRu/rKdnxJVGEc//d9/LovfflV2QcJ8rl2Swihzz97tZcNPfyrCvMsoYfv27VWChOXl5cnEiRMrLK3dkbDklFmy5+Ba3zaOtGQZsr5l5xJLwnbtim6mCGS1LEnYsmUrAleKDr777jslYWUJJWFli1glYVu3bpXkGN+DSElY2aKykDCMWkEME5Edl14mc2o+Itmy2dd4lqQclDTp8llL+ZqFO6owKgsJw5EdNGiQkrCiYPr4otvvlIFtG8neKJOw7oaETXz4YZGExMDFSo+qQsJycnJk4MCBkp+fH/imfKEkrLAoCYscSsKqAGKVhLFq4/fffx/4FJtQEla2qCwkjNWxZs6caUcTYhErrrhSJr/4uOyKIgnbLVtkUcfWkvzQI2I898CVqh4qEwnTkbDiMahXb2nSqr4cMfLvd+2SFJzXL3q1k34dOogcjt4iGlWFhO3atUuGDBli58BVBJSEFRYlYZFDSVgVQKySsJUrV9oUglhAqFzyykbCjhw9LttyC2Tr7kNyoKD85n6EQmUhYTg5w4YNs3MwYhHP3lFNWr9eW/aFkY64M1D8fvOW7Swy8HkbOXjO+eU+Jyz3wBHZuuuQ7Mir+NFHJWElR6QkLFzZLAkJO3g4DH148KAk/f0M+f7tV+z8Sr9rB5dw7temI37ZXlb/7ncikycHLlZ6KAmLLkLNl4yUhIUjxyUlYeHY9ZKQsHDkWElY5CgXEkaKwzPPPCMNGzaUlJSUwLc/QklY2UJJWGikp6dL69at5YknnpCePXuespRvZSJhu/Ydlm4zMuStManSclSKfDQxzSj6it0/rjKRsFGjRll5qQiMHz9eqlevLrVr17b9KhhTrr5WxtR+UnYXMxKWk58gu/aaV1N43ZnnfxyFVd/6d2wlo1q1CVylfLB4c568MzZV2n6XKs2Hb5RRy7Pk8NGK2/K2MpEwUrqiTcIGDBhg7T9L+W/atCnwbSHCJWE4gE4mw5HNSEhYavZB+XbRDnnbyFTXaRmyfkcRAYWCAtloSNj0tq/InmJIWLbrS4FXPvsdR4GE9ejdXhafdx5L7QUuVnpUJRI2ePDgMiNh2KePPvpIHn30UenQocMp1wmXhCGzXhlGNvyOo0RKwtbvOCD95m+zerHX7Ewr16EQCQnLCrrnouRYSVjkKBcS1q1bN7u6yc033yxPP/104NsfoSSsbKEkLDRWrVol3bt3t/Vzxhln2M2DvahMJGxH3mGZuW6PZO89bBTqYWkxYqMMWVyxIzdKwkoP5qKhQ9lvEYeL+iQ90ovciy+RpdUfkixDnPyMJ2XPvgRJ2JpgHNEkQ9CTZPiS1ZK5u9AI+x2fb841wpCwSc1bYNUDVyp7LN+SL2u375f8g0dl7oY90nDQesnYXXHpkJWFhDGfhtHcaJIwnL0vvvjC2v+bbrrJkjEvwiVhu4zjN3dDonSakiSfTk6S0csLZTMUEYuEhI1blS29jdOakL5Pus/IkJajNhU5Kjbmix7ybuv6drl5v2tTss19bdqZIH3nJkmHCUnSa9ZqSTGfcWL9jsd5/eLLdvL1J5+wTGXgSqdik3Gs+8/fLl2np0u/edslY0/RbVWVSBjB/rKaE0bwoHPnzjJy5Eg5/fTTpUuXLoFfChEOCUOPQmTGr1otn0xKks9/SJL5KYkhSU0kJOyo6WfDl+40JGy7rM7YJx9PSpMPvt8sx0Ko5XBJGPe2fU+C8RNWm3MmyRfGNiRsDX3P4ZCwo+amlm7OM30iUzpP2yojl++UQ0eKHr1TEhYlvPPOO3LXXXcFPv0IJWFlC50TFhreNEQ2tUbJelHZ0hFzDxyVpMx9MndjrrwxMkW6TEsvT//5FCgJKz28Mjx8+HC7cXDwKmENbrtd3mv2ouwN4ehiVNdkJkrzYUnSbnySDDNG971xq42xTJTdhpz5/Yd0xJzP20jBuReI7NsXuFL5IN2QriXGkI9dmW1JWEpWxTmZlYWE8Ryk05bVEvXsBRps/8MhYcjfMiOHjQYlGX21WgYsWC3vjF0ty9MSrVPr959I0xHpQmQFTFuzW+oPXCc5+0IQIVNHi56pLgPeamj6kj8Joy+l70qQ9hOTzH0myahl3G+ScYqTZEuOf1Bj79EU6WFI2CxDVGXZ8sDFTgbO6zDjaPeZs00mrc6Rd8elyseTt0hBEQ5sVSFhBJ2SkpLKbHEkr4698847bfaMF8WRMEZyIeDfrVgt9QYkG3K+WnrOXC2dprINiH8woSTpiMjIzrwC+c7oxcZDNoQMJoRDwrgnZPWrOauNjk2Wbxetls+nrJa+81bbgJ3ff8IhYQSAIWBDl+yU8Qk50mzoRhmxLCvwqz+UhEUBrF5z++2325zzYCgJK1vEKgnbuHGj3Wk+FkAaTrVq1U5ZWKEykbAtuw4aZ2CzfDp5q/SYmSmvGSVN5FdJWOmBkwMBqsg5YTgiDzzwgB15CMbnN90sXV6tIXkhHF2MKs7ta0OSJDUrQQ4cSpC07ATZbEqokbA9kiYzOraSpTVqWee0PICs/pC0ywYQSK39zMhyo2/XS2q2krBYRnZ2ttx22202ZcyL4kgYsgep6TkzSV4fniTb9iTIPiObG3ckWEITjZGwhIx9xrncKu0npEmbMZukwcD1snt/iMUxTD/f+ov/kUVFLFFvSaMhiHX6J9vRu93G+V6SmiC1zedpaxIld/+p/3FL1K/7j/8QGTEicLGTgZouCKTd4mxPSd5tZX/LrtCjYVWFhJUXZs+eLdddd51s3rw58E0hiiNhyDDy+vrwZPly1mrZezDBysH67YUjTcHHUyIlYUs258snhpR3mJgmbxr92GzYBjkUIk07HBKG3CZnJJr+kGzJIzaB5+CeQ/W7cEjYESO7Ln2c9z1mZtj+VxSUhJUSOLYvvPDCKdEDByVhZYtYJWFEXHFgKhqTJ0+Wyy67zNeJqkwk7PtVOXbUwClA0hU6T9WRsGiAjW4TEowRqqDVuSBgTZs2lZdeeinwTRAuvEhWPvdgyHREHILOU1fLu2OTZO8B4xiY75ivEIqAUfabc33ZsaV8+2nHwEXKHqSt4GB8NSfTfiYtEZnetFNJWKwC+1+zZk156623At/8iHBIGMSr7XeFI7SZ5j2OIKMKRclmJCSMuWDMoWFBA1K5IDZE631hlOXUVm9Jl9YNzf36j4Rxb2NXJUrNr5LlzRFJ0mpUkrQcmSQtjAO+aFOi7ygCziubNQ9s25a80MDFTgZqetXWvTaI9vGkLdJ06EZ5dfB62VzE3B8lYdHD6tWrbSAhOFsGFEfCGLElHbXON8mGPCdaEuZGx4KPdSUSElZw5LgheCl2esGBw8dkfkquNDHyUZqRMOR0SWqi1OqbLInphXJLnws1+kwJl4RNW7NL2huy2GFCmtTuv9am1xYFJWGlAMPDTBi/+uqrZe7cuXYOTnDOuZKwskWskrBYAPPS/vCHP0jLli1temRwhKsykbCE9L3WwfhqbqYMXLhd6g9cL101HTHugUFt06aNXHTRRTJp0iRjAJedssBMzxtvki8bVpfc4/4jYZCw3rONo2icRj7nmc9FObm2GCc0s2Nrybvx5nJdoh75bTEiRUYuz7KBBNLHNmk6YqnBc2zbti2q6YjYekhAKPsfDgnjlTmKbUYn2eBA/oHC70ONIFAiIWEsZPDZD1tkldGPzA2r+fUa2b0/9Lys8YaEdWjdQA4WMRI2c12ivDwgWWasSbRpvolbE2XttkRLKP3+Y/cJ69VOvqtTRyTEaHr+gaPGsd4ggxfvtCvcTkrcZVPOilqAoaqQMGSWFOyySqVNS0uz0xXqmPZBvwYvMFcsCctPkM1ZCcb+JsuQJatl/6FCOQk+zlsiI2HH7CJFX87OsESdkaWXjV4MlaoaLglbuaVwRHeGkWfuuSjSSAmHhKGr636zTuZs2GNXtyWjgblhRUFJWClAGgKLcTz88MPy1FNPSYsWLU5J+VISVrZQEhYazEkjvaBWrVq2k1fmOWGQrcSAozFt7W5J3rZfVhqFXZFQElZ64Hyw8uyDDz5oHS5WSAwekatx553yZos6sj/EEvUY1wUpicY4JhuSs1rmbUyUzyYn2Xk3oZyFbEPC1n/eWjJvusUu3V1eINLLYgp9524zMrxPFm7KM/cYvb2VIkVlIWFlsTBHVlaWtfuh7H84c8JwBmcZJ/Cl/kky1DiwEJuOU5LsfMVQq8tFQsLQg4wskco1aOEOGbBgu130xReGzKT9x3/J/Ldfld0hSBh9iUU5Gg9JtqPLa7cl2HsdsXS1cUD9gxsuHXHDv/+7GCMUuNjJyDMkjJEvRjsy9xyy83lf6rdWSZgB9oPFX/aV0dzU+fPnWz+Afo6e/fLLLwO/FKI4EkabZxlZJRWR9L7pa1bbuYLMC2NELBpzwliwqN2ENOn4w1Yrx4ONnIRaNTYcEsaIc8buBHPOJHl9RLK1Cf3nrTbnLt2cMObvvmjkNjFjn12J9JXBG+RT0/eKgpKwKAFj5RepUBJWtohVEkZ0iSH+WABKCdnk1YvKRMJiEZWFhCE3waNPFQFk2E/HZl9yqcyo9ZjkhEhHtEuAG6P7/apEaT48SV75Nkm6TGV+WGhH96A512eftZRe3XsGrlI1UVlIWFktUe/gZ//DIWF21Mu8DjMErMlQZDNZ+hlnMC070ZfQUCJdmCNsFBTIkrvvlcFvNZK9RSxRj8NN6iGLcbwxojAdkQUO0kIszGFHwgwJ+94QVVm7NnCxU7EwNc9uMfL+95vtIh1fzs40dRN6MYqqQsJYc4DVEcs6HTyUn1AcCaO40bCu01ZLI6Nf0bPjVq22ZCdaC3OEC+6/OBJGIaCQlJEg7Q0Ra2juudXoJBsQCTUiFg4JI6V8+LKddpucz6dulb5zt9uFRIqCkrAyhpKwskWskjCG9YlexTKUhJUtKgsJw3Fle4Pdu6NrLKOFhMuvlB8sCQu9TxiOgIvir8ks/IyDgAPsd/wu2SJLP28t6+69v1zTEWMNlYmExepmzRAXZJMFOUjr4z2y6XcspcxImMGwvv3lzVb15XCIOWGuMFrAMvqr0xNkw/bCZwhFGnFeu/VqJ31Zot7IU1Fgo3K3eiPpZseKSCevKiSsvDZrDoVwSBjFBbQYHS1qywJKLJAwCveIHGMTWKyJBTv8jqOEQ8IcsvILZF9BoazrEvUVDCVhZYtYJWGxsE9YcVASVraoLCQMJ4dUropcHbEoPFTtbmn85ssh0xFdcSNiGN5QDqMrLFG/x5CwI+dfaNO0qiqUhJUc4ZIwipVNI5fIJu/9jnGlzEiYqZvkM8+W8W1fkdxiNmumuEVEuO9QK8pR3GbNyf/3fyLjordti5Kw8kG4JIziAgqhMgxciRUSRmHfO+65qMAHJRISFgmUhJUxlISVLZSElRxKwsoWlYmEVdQ+YeFgztXXyIi6T8vuYhzdSMo+SZNvOraSUe+8H7hK1URlIWHM1SrLdEQ/RELCIillRsJMP1932l9kytuvyJ4wSFi4xZGwxeecY5Ti1MDFSo+qRMLY/iAeSFi4JZZIWLhFSVjkUBJWBaAkrORwJGz9hg2BbxTRxPQZM5SElQNyL75Elj7/sE0hxLhHo+w3Tuioz1vL5OZVW3fj0NSoUSPuSRgObLQX5igOjoQNGtZVDhlS7ydnJSl7j2yQJq/Xs85xtDH8q77Sqk0DOSrpvtcuSWGEmjlhX332mWH1RadmRQL0UVUhYQQQKpqErU2dI3kF609p35KUnH3Jkp69TJ6v+bSxjycvZhcNfPjhBzJibC8re37XL0nhXHXrPy/Ll68MXCU6YNqKkrAyhJKwskWskjCWhGd1wlgGRqyaIWFr1q2z+7RgHo8Zp4v39rP3Pa+Bz0UeZ94X9dtJ70tyHBOH/d4HjgO+vwXec8xJ5w9Mpg8+7pRn9LmWO8773vufSdOmyZVKwsocr956u3z4Wg3JL1gr27OXRqVsK9gouz99U46dc74cy8+37V8VC3vEsQ1LvJMwnoWRE17LC46EfTOoo+wvWOcrZyUpuXsTpXHTOjJr9pyT2qrUpaBA5t33gPQxJGz/sc2yc/eKqJS9h9dLj14fytybbjKGcYX/tUtQMjMzqwQJYyuktWvX2teKgCVhl50vSWunyu78BF+ZjLTs3LVc0jLmSfXnn5TsnF2+7VvSwuj9+++/J8NGdZd9h9f5ymRJCueq8/JzsmTJMt/rlrSMGTNGSVhZIl5J2JGjx2XJ5jzpOTPDbjbHPiOxiFglYSjNhQsXBj7FJlho4fIbb5R2jzwiGZdcIhMffFDef/NNSTDEYf2VV8q7rVrJBPPbtvPOk69r1ZKur7wiGRdeKJPMcR2aN5dV5rika66RD1u0kO/NcdvNcT3q1ZNuDRrItvPPlxmG4L1tzrHKXCPZHPdxs2Yy8aGHJP2CC6THyy9Lj/r1Jd2cb+p998l7LVtKwg03yJqrrrLnG/fYY/YcvevUke7muC3sE2Wu2/7112WVOW7t1VfLB+Zev3/00RPHdW3USDLNuafee6+0N+dIMNdNvO46+59JDz9sf/uybl3p2rChvYfZ1arJ223aSLI5Jtlc9yNzf2Mff1y2mnvqaY7rZQr398P998u75v5WmutuvPxy+cD058nmfNRLn5deku7mefnPOFMH1Mtqc7515th65vlvN/W4v4yWFi4vsEw8cxJilYR1vvU2efii8+SpFo3k6VfrRKU8/sarUve2m6TbhRfJe2+9JW3atrUb8lal0tY8c+vWreWKK66QpUuXBmpbES6ys7LkUqMvrr//Tnn+9ejJ5rNN68uF115lyfE777zj23aRltZvvy3tjF7b+JOfyOsXniN3Pveo3P/4fVEpDz7zsFx5zWWy2Jx7mNHrb7z7ru89RFLeNvfbwOjdakaH43Qryg6LjB/zv3/4nTxc53l5tkk9X5mMuLxWVx5vUEvOu+xiafF6C3k7SvoVncXrDcb2X3X9lfLwMw/5ymRJykNPPyhnnXum1DM+TrT6Hedhi4tHjR9TGaEkrBRgw8QOE9PsnjXfLNguDQatlzXbYs+ZjFUSFg/Yl5cnX559tiwxBGuPUQgpHTvKrAkTJNMYyZ3G+ZoxaZKs6dZN8l57TVb26yfzRo+WXRjqzz+X2ePGSaZRIBw3a/x4Wde1q+Q2bSpLjLO+cPhwyTWEZtMnn8h0c470Dz6Q7UY5zhk79sfjBg+2x+0yZInzzZg4UTLfe0+yON/338uaHj1kjyE0SwcNkgUjRshuQ6TWd+4sM839Zbz/vuw092vvr3t3yW3SxB4339wfx2369FOZac7HdXeY42ZzPvMce8w9LR46tPD+zD1w3JRp0yTDHJdtSNbc776TpF697G/LBg6UxeZZ+A/1wrW2GcOfZUgl95Dcs6fkmeuu6N9fFowcKbvNvXJ/1Ms26qVdO1n+/POy9B//kMOGxMQzGA1hu4WKSocpFhdfLL2MIau5abPUXbsuKqVh6ma5+x3jLD7zjMydM0emTZ8uU6dOrVJlxowZMnnyZJuyvGTJkkBlK8JFjiFhlxsSdkfPXtIoJdVXzkpSGmzcJBc995y0ffNNmWNk06/tIi3owYWzZsnomjXk9povyOPfj5fHxnwXlfLkuO/livoNpMdLL8lSI09TotCXZs6caQNDOLAVNUJUVbBo7lz5zUUXyfPzF0iD9Rt8ZTLS8vK69fJCQqJceu+9MtbYT9rTr50jLeisKcZWP1Wjhtz4YTt5cuw4X5ksSXnCyPFZ1e6SAX36RK3fcR6I2AsvvBCo7coFJWGlACNhbmnNvANH5J2xqdJ//jb7OZagJKzkOJCfLwm//KUc69JFcK+hCgVHjghUm8+HzXsSPfJNOXj8uBQcPep7HO/dcYeOHZND5jjecxzn4DiK33HufO64UOfje74LdX8c572/4s534v4MwThxnPn+pONMOXFciPNRL373x/tsQ/xW/PWvciTOSViso+cNN0gdQ+Y/MO/fi1JpbUp/Y2z3XnqpHDX9hEWzkZWqVEizJdULByHWR/WLA2k/rO7Ja3kBEnaZkZ+nDPH42Hz2k7OSlHamXN+4sQw1vgXwa7uIi9Fh4DtD7B4x9uBT8/7DKBWe/dH+/eU7Q8IkLU3YcdD3HiIoyGZ6erpNRzxYjpupVwR4Vp6R14rAwtmz5bRrrpUWublW9vxkMtLCcketTLm5enXZtW2bfTa/do600L8P7dsnbxhiU2vpUit7fjJZkvKRKdc1aCBrly0z76LT7wDpiHXr1rXvKxuUhJUCR02nmJCQY0fDKPUGrLO72ccalISVHKQjNrn9dlk7ZUoh4TDOppboFIwBE26rV4E5CxWNl40MV2vd2hrKt6NUWprSo2dPybjuOtmXkyP5pg392rkyF+QWHcHqiPFOwliinhXmynNhDkfCnvj+e2lvPvvJWUkKDux1r7wiA7/6So4YR86v7SIuxsk/tH277PjFL+SzTz6RNkHXLE3hfh/p3VvW/sS4ZH37Sp757HsPERRkc+PGjfLss89WehLGnOLRo0fLvgpKa4eE/enqq6WZkWfa0q+NIy3vmPJGQYHcaNovc/Nm255+7RxpIXU+1+jrZm3ayPNz5tjAnN/1S1J49mvq1JFVCxZYAuV3/UjLkSNH7IJBdcx5KyOUhJUCExNzbAri8rR82brroN3FfsCC7YFfYwexSsK2bNkiSUlJgU+xiT3GwWpz882yYeJEOagkLKoFt2Btr17y7RVXyKFKMBJWniMIkSLvkkukuzFijF75GU+/ghNA8fuNQsT3ge7d5YtWreQYI53GAfJr58pcKhsJGzRoUFyQsOJkM1wStm9vvhw+uM+++v1+UjE66rB5XXbPPdL444+LvH6kBUf44S+/lHFPPCFHEhIk37SB7z1EUKoSCWN1RPa4q6h08JKSsKLkmO/DJWEH9++VggN7fX8LLkrCYgtKwkqBQYu2S0NDwrbkHJQVW/dK3W/WyqCFOhIWLpYtWybjxo0LfIpNkI648pe/lEMffRSV6KQWT6E+27WTrb/5jRyJ84U5cHLI2Y/VVR7XX365fFavXkTR+7cOH5M2B474/kbhXB/26CErHnhADhgHHifVt50rcalsJKy8N2suKQmzsnnoqO9vlHBIGMRr565cWZWaLVnmtVgiZhz848eOydBPPpF7TInmyB2O8IOGhPV//30pyM2NSkCjqpGwitysuaQkDBl+q8BfjsMlYcjt5u27Zc3WnLCCCUrCYgtKwkqBrL2H5bMftkjr0Zukx8wM6TJtq0xO2hX4NXYQqyQsHvYJYwPTLy66SLYPHCj7jx/3VRJaSlYOm/qcN2iQvHfXXXIwzkfCMJDDhw+3c2piEQ9VqyY3tW1rR6/8jGdwedeUZpvypP6MDGl77LjvMS1MGdarlxw+4wzJ377dpmv5tXNlLkrCSoeSkDCc01dWZEmjxTutnPodEw4JY+Rg0YYsqT9wrSxLyZZDxY0kmLYuMM7rxn/+U9oaEtY26JqlKdwv6YgJv/qVyOjRkheFrAslYeWHkpAw5Ljhwu3y6qpsOwfM7/dwSBgjuQPnpcvbYzZaGd7rc4y3KAmLLSgJKyVYmGN7boEcOnxMjhhn5YB5jTUoCSs5coxyr3XffbLaKCsWlPBTElpKVphyCwlrc++9st8YmHgGBjKW9wmbc9VV0uK113wNp7dg+HFsMaZNknfLS6M3hSRhGO9nu3eX/ka/HDUGV9MR45uEEXCK5XREJ5uUejMz5OWp6aUmYQvWGzI3aJ2s3JQjcmy/HC/YZ1O7/I4nyFBg7jfttNPkA0PC3gq6ZmkK9/uwIWELzjpLjo8fL3ksjOR3DxEUJWHlh0hImFeO60zcIg3mbys1CRtkSNh7Y1NEjuwXMTJ87FDoFFslYbGFciNhONsjR470nTcRzyQsHqAkrGhkGcX5xRdfSHJycuCbH7HPKIGZv/+97OvUqTB9LkhBaClFMfW598MPZQvpiJVgJKyiSRjpkCysgNEKxuELL7T7tbHalp/xpGD02x49Ls3T8uXNnQekcdIuqT0uNSQJw4lo1KOHTKheXQpM++01xbedK3GpTCQM56ysFuZw9j949bpwSRiySepW881GNrMOSP3ZmZaIlZaELTQkrMmQ9TJ22TYZsSRDRizOsKldB/b5EzHzADKoSxe5s4zSEXt26yYFhjBBJvyuH0mpSiQsx5CKgQMHlikJow6/MvLktx9guCTMyvH+I9IsNU9a5hyUuj9staNhpSVhgxekS9sxG2Xxxiz5dn66TFixTXbtyZP9PnKsJCy2UC4kjOja6aefLjfeeKPvfhVKwsoWsTwnjNXxKhLbt2+XWrVqyU9+8hPp06dP4NsfAQmb9sc/yt7One0S635KojKUPFOInB0tIoIW7YJbsKZXLxlcCRbmqGgS9r1xYs8++2y57LLLbFpZMFgd8a7WrUMaXEvADh+z6YcvDNsotcenSa3hKVLHvL5tHE+//7xuynem/eQvf5G8zMyYSUfEKWE0Iy/P//dolspEwiBIOLPRXmAG5xj7f/PNN59i/8MhYchm672Hpc4EI5MjUuSlsalSc+A6aWCImJ/zSgmXhC3ZkG3ncr8xYoN0nLzZErJ3v0uR7N15pxIxo6PYimHeffdJbUPCQl27JIX7ZSRs3oUXyrGZMyUvClkXVYmEIVdr164ts/3Q6BOtWrWS//qv/5L33qPlT0Y4JAw5brn7kA1svTjKyPF3qVLjm3XyyuKdpSZhoxZnSo2vkuUdI7uf/7BZXh6wVr6avdXa8r1B9lxJWGyhXEjYpk2bpLNxYu+8805fZaAkrGwRqyQMuYCIVSRIY1ixYoXccccdviQMp+Spxx6TFYsXR02pxGLZbxT19pxcmbdup2QZB6Q8iBhbPEweOVJefvLJuE9HxLANHTq0wuaEpaWlWSKGjkWmg9HROMBPGx0bynFkROHVldlS89v10nLXQXlr/xGp/f1mqW0chbeP+/+H0rJHD5lr2u8gkXtTB37tXF7FzYVYmpIl6zN2yYFQaWVRLJWJhJUVUlJSrP2vVq3aKaNs4ZKwBvO3ywtDNkibg0ftCMILRk7rzcgoNQlbvCFL6vRfI5NWbbepXCs2ZctL/dbKjKQdcihYfsy9H9q2TbJ++lPpaEhYJCuNFle430eM/Un62c9E+vXTJepjDEePHpUNGzZIs2bNpHVrWv5khEPCyCioNz3dELBNNuD1xvb9UqP/Wmm0aEepSdiwhRnyyrfrrN6Towdk7PJtNs2W0bBgW64kLLZQbumIAwYMsI6ukrDyR6ySsFjCPffcI7179w58+hF5ubny1XnnyU4jo/ujMFk6Vsth45AkbM6xUeENGbuLn6QehcJ6iNs7dpTF//iHHDaGIZ6BoVizZk2F7VMDuP5tt93mS8LkggtkYK1adm8vP+MJCbMpXgHHltJ0/R6pPTY1ZDoie4490r279GjbVo6avhGNFKrSFOdstB61UQYtSBc5XPZz1JSEhQfsPwGCSEkYjmjb48dtMOCVZVlWLpHVBnO3WVmNRjriq4MDc8KMvJCKyGjYmKWZp5Iw07ePmfuf2LSpPG1IWDSdV871kLE/g4wfdHjrVtkbwuGOpCgJiz7aGOLCiFgwiiNhyDErer44fKM0XrP7hBy/PCU66YiD5qdLu+83yXEjw0fN53lrd0rjwettQDU4JVFJWGyh3EgYRAslrOmI5Q8lYUWDVANIGPnewThgHMsV//M/UtC+faWeE4ZDsjotRxp9u0627NxjJ6kzuTfkJPUoFGjX1s6dZYkhYfG+RH0sYPXq1XL77bfbBRaCMeC66+TVxo2tYfczntaxNSSs/iwPCduQWyQJQ2MP7NVL8i+8UPbu3Fnh6YiOhL0zJkVGLMk0d3fALrRwxDglwSk50SqViYTh7Gzbtq1M9rvDxjMShmPmRbgk7KUxqfJaYBU5K6vzokfCGDFYnpJt/nFAUjJ3S4OB6+SHhO2+JOy48V/GNG8uD336adgrjYZTLAn78ksZ+fLLckRJWMRAZiEXwXMOow1GwUoyEuZIWK1hG6XJhj0/krBp6VEhYcwDY04YwVM5dkBmJe+QV40tz1ESFvMoFxKGAujWrZtce+211mAFdxQlYWULJWGhgfLGaWW+YqdOnU4JErBZ8+u33SZrp0yRQ1FYsSpWiyNhjYesl1HGgf169hYZaBR7WaZ1HTN64PsxY6TuU0+Za8T3SFhFA4O3wBi+q40jkJ6efoqOrXHHHXLrW2/Z0Ss/44lD0GjxDjvn5q2DR+Xto8eknnEQXhqzKWQ6IvHgrj17ytarrpL92dl2CW+/di6v4kjYB+M2Sc8ZaTJx1TbpMT3NOtSQsOKWbi5JqUwkDD3I/K1oL8zh7P91111n99Hzyma4C3OQxsVcMAICbx04YlO66k0vfTriIkPCnv8qWTr9sFmWbcqWL2emWVK2ZceeU+eEmec4tH27ZP3sZ2WTjti7t6z5t39j2FDyTB2ddO0SlKpEwpgHO2HCBEswygrUJ74UJbiPhJuOyLzGOpO32M+t8w/LC4M3RIGE7bXpiM/3WWNtNnL8/tgUeX9civ1d0xFjG+VCwj799FO599575YYbbpDmzZufsqGpkrCyRaySsC1btkhCQkLgU8UAI1W7dm0rm4yGsYiMF5Cw1rfcIusnT5aDlZyErdm6S2oah6TN6I3Se+YWeW3IOrvsLRua+q2yVNqCW7C+Rw8ZYZyweF+YA8cSw1wWowjhgEVBHn30Ubn++uvlhRdeOGWVsOxLLpEexoiFchwx+EwarzUyRV4cuUnqTCxcBKGucRhCjYThNN/Xvbt0adlSjpm+UdFL1Dtn45OJqfJC32TpMiVNuk0zTs83a2WSIWSHD0T//ioTCcORLYsl6j8xhCWU/Q+HhBEgeHPnATsnrPa4zVLn+832PSmJpRkJY6RrZWqOfDYptVDfDV5vg1DTknbYwNMppN3oqMOmjlbdeqs0+/hj22f8rh1cOM4Vv98pbiRsgunDR5KS7Pyzk64dKIzqoqv9fgsuVYmEMXcb2S2r1RHR702bNrVTaihfmrbyItyFOVps3SsvDFovdcZvtrL8wrcb5JWlpVuYAzmemrjdBhI+NbLccOBaaTNqo6w19twvgFpaElaUHIdDwtDTZNkwD50FwfyO8RYlYVEAjcHERsBIg46ElS9ilYQtX77cLiZQkcBpdk4HMkqH9+KgUQJJ//3fcrh9+6hMlo7VgmFP2pIjtfuvsRuXMkl9wfqdUqf/Wlm4IcumPPj9r1SF+mzXTrayRH2cpyMiQ9OnT7fOQEUAuUXPAj8du+zKK6Vd/fpF7m2EcW2VVyCvrTIGelOetNxzSFpk7rPpYH7Hc653evaU5cz1NY51NFKoSlO8I2GfTU6VffuMhB3eZx0TCit/Bv+ntKWykbCy2Ky5KPsf7kiYJWI5B21KYvPNefJm9kF5M+tgSIcwHBLmCgEmRr3Wpu+StB17Tk1DdAUH39iLQZ06ye2GWBZ1v65wf2z7wLL6LLHvdwwFR5gl6ge0bSsF2dmnbPfASC4O65w1O2Wp0c/hzL+sSiSsPPYJc7JLcbrWIRwSRkGO39ix38rx64aQvWHkomXOIV855rtwSBgF+XAjt0lpOXZ1z1BTCUpLwt4qCC3HxZEwiBdB3ckJ2yUja4/peyf/7leUhJUDlISVLWKVhMXDZs2k6HS55BLJGDxY9hvl66ckKkNx6YivDV4nm7fvsQ5r1u5cO7kXw18WJOyIqc+ZQ4fKm/ffbwxGMSNhkGPj7EpmpohxUk4BI1DGUMnWrYEvyhcYyOHDh1fY6ojF4Yk775RbjdENlY7oCoYfR4HCez/nwJUWpgzt1UsO//3vkr9tW+zMCfsuRcYsM3JyZL+V669mbbGjY0rCikZZkbCiEC4Jo0Qim5GQMJeqitMaan8wW4x8Q5BSzjxT3v74Y2kbdM3gwv29ZYgXab2knb26Isveu9+x3C/piAn/8z+mUw2VPKPPvNeGKLLSXZtRKdJ1Spp1Zoub56gkrPwQLgmjhCvHfB82CaMEZAI5Dk5B9JaSkjDu57WEHGm4YHuRclwUCSPAsTFjtw32rkrNsQuCBR8TXJSElQOUhJUtlISVHDlGub/wwAOSMG+eFFTydERIGJPSIWFM7k0wn+sNWCsL1pXNSNhhQ8LmDRokb999tzUwRcI4h3L99SJPPy1SrZpIo0asy174G+TrxRdFrr1W5J//FKlbF/Zc+Fs5gfuv6M2ai8L0q66SNsYpLc5xjKRgvJ/r0UMG1qtnCM4hu3CBXzuXV3GOx3uGhPWdY8j4YUPsDRHrOqUwTUdJWNEoq3TEohAJCYukRELCwi6mrQuM85pqSNj7hoQVNapMcU4r2z68sfOAtNpT4Hschftln7AF55wjxydPlrwgW+NI2HtjN8mXM7YYWd4rxwr2WSc2FBmraiSMjcbjgYSFWyIhYZGUSEkY90GBeLGCbt3JW0tFwlj8hgXASJdEP6OXi1qNWUlYOUBJWNlCSVjJsc84JlP/9CfJ69q1Um/WbNMRDel6qleSfDE1TWYl75S3xmy088Ny2Hm/iMhaiQv12a6dZPz618WnI775psi554qsXSsyc6bIJZeI1K5d+JsxgPLJJyKJiSLffSfyi1+IGHJQnoh1Enb8wgulvyGqLKbhZzxLUpjHUMfU8yhDeg8zChYDJIwNmlmquXb/tTJySYZ8v2Kb1B+wVkYtzQwr6hppqUwkjOfBkVUSFrocP3ZMhnbsKPeEk4545JjUm5khdSekSVtSEUMscENx6Yh9zLkLjJMcnG7oSFi7cZvk44mp0m/OVukwIVVYSn93rvndRz9XNRLGKK6SsOJLJCSMe3j72HFplppn9+djFOzlqemlImGbtu22GTZDFmbYuZhkKbCkfqj0SSVh5QAlYWULnRNWcuw1JGzi6afL0UD9uZzwWC3uHtmvyk+hhSooQNIEvjRKkdJ06Hqb1sX8MAia339KWw6a+0w2jsewyy+XguJIGHuz3Hxz4IPB+0bdM/JFGiLFC74vZ30S6ySs4W23yYNt20oH8x6jG40CoRvdt68I0Xvj/CB9wfJYkuLAHAxGZ/xkx68wIgAJG7k40zqpn0zcJK8MWidfz94qe3LLZgPyykTCqHuWqHfzt8oDjoQ9PXWqfGo++8lZSQpyfkPTpjJiUOFCS8EyVpISOJEsePBBqWtIWKiVGSk4qc2N48pmvDUHrLP7nDXfsrfQqfUp3PPDRhfOvewyOWYc4/wgB9aRsPbjU20qFzLdd/YWu7H0hJXbfXV0VSJhOPzsk1ieAQQvIGGnGbvzhrFj0dKxpI6zkNK/atSQvEAKvp9cRloAmQst33uvSBKGrLbed1jqTEqTWsM32tVJWUik/syit4YojoSlGhLG8vlsLj3UELHOU9Kk/sC1NhPHT46VhJUDlISVLWKVhLED/eLFiwOfYhN7cnPl/ptukneaNJFuPXtKly5dYrp89tln0r9/f8k2SjtSIoYTy3K3zIsgWrXbOK4hJ6lHoRw1BmGyIS61n3pK9huHoUi8Y0zCWWcVjnQNGGA0/TUinTsHfvTAyJT89a+Fx5UjcHhieU7YJ7feKrc99pg8NXGSPDnu+6iUxyZPlloNG0kn0y5fdOokXb74wlcmIy2dTbtS0A0lif4SUCB9NtcQstTtu+3ncCaAl6RUJhJWEcjJypaLL7xQrm7dWp6Lomw+Y8511r33Sq3q1aVHjx6+chZp+bxbN+ljyFfqT34iXYyeLW6JejsfbEa6XZacUQQ++x1HwXm1S9T/9Kc29Tp4iXpHwt4fu8mm1rLS55FD++TjCal2IRp0Ncd4/1OVSFhFY9G8efKrM8+UBwYOkqfHT/CVyUjLU9+Pl4dHjpKzb7xRPvrwQ/kiSvqV83Qy8nvvww9LTUPCipon3HDRDnlh8Hq7cm7L7IPy4vAUeXlqFNIRB62TKQnbbTpibm6+JWRsKUKKbfB/lISVA5SElS1ilYT5rUYYa8jPy5Nuf/6zDH/xRfl68GDp169fzBbIV58+feTpp5+WOUa5+inBcIqbpF4WIwfewthXjnFqVpx+uhzeX8zCHO3aiTBp3RBi+d3vRGrWJPwZ+DEAonzPPCPy4IMMowS+LB8wakN6bUWlwxSLy6+QLy88S97o9I60afdGVMr7nd6Vxx+4Q1594kmbxuYnkyUpAwzJfvPNN+X111+39RqcmhVuQX6R47LYH8wVJWGlQ3Z2jlxy8cXy6DMPyvufv+0rZyUp737aRm669XrrVwwYONBXziItfY1+HWpks/vjj8tTxokNNYLgCo5qg/nbpX4R+5m5wrkeNCSs/7vvyuGsrFNWR/SSsD4zt1q5ppDO1Xb0RsnepSSsIrFwwUL5w2m/lyatGsnbH7f2lclIy1vt35Q33mksV159uXTv3t36yX5yGWnhPF8ZP+HWf/3LEMbxoTcdN+b0pXGb5ZWlWVZ+KdFIR4SEQbo2ZOy2pIsAQssRG2zquJKwCgJC8TrpRaTytGwphqoXOlhGKQm7kzPxnhET5oVMnSpCtJnI+FdfieC89eol0ratiFFesmhR4TkmTy78zPc9ezLrmAsZSTGiwvfMIyHFae7cwlXXOHeXLoS0C8/bpk3hSmuc7623RObPF9m2rfA95wsFjjGKT1JSTnUSHXjOcnTWYpWExQP2G7lZ8vOfi3TrFvgm9tHWyPxkI/8lJWHlVSBh2zp2lIX/+IccLi4dET1w3XWFqYejRomcfbbIihWBHwNAJzBXDH2hOAndb7xJ+jZ8TvbLZsnJT4xK2S1bZWunNpJ75dVEVAJXig4WGb3Lvjw4jyUlYeVRKhMJw9nJyMgwXaz89rrLysqWSy+9VL4d1lWORFE29x9eJ01frycLjHMcbYx57TV54OOPw1pptMG8bXZ1xFBOqyuQMPYJ+65GDTlifIfglUa9JKzzD5vtfmGM9n40IdXOESMNd18VJmHILM/r0u3KG3PmzJXLLr9A1m+aLXsL1vnKZKRl974kycxeKjVqPi35e4uxjyVA3dq15TFjS4siYbXHbpZXlxeSMGQ4KnPCAiNhc9cYP/jIftmTmy+vDl4vkxOUhFUY+g0ZIl1vvFFk0KDCVc4gUYyQGEVnNEghqZk3T+Txx0VGjy4kOhz3rhEFSNiHRh1Wr164fPWMGSJPPCEyfLhITo7ICy8YCm9ECBL22Wcizz1XeJwREvt+/PjC4/g/xIsIeocOIkYZWmcOksb5IHUc17Bh4fUgbBA5L9atE7naOCQ33CByyy0id98tMm5c4EcDyB/XuOKKwsUFyglKwkqOrOxsefHaayUDEh4ngIRNmTIl5kmYTUccOVJeNv2LycJFwpEwh3vuKVwhEUAA6NuMkqWmFn6nOAlP31lNWraoIwckVXbmJUalZBsSlvp5G8m62ei6KI88zjf9jZEwJWHlB56HZb7Lc16NI2EDDQk7aEiYn5yVpOQfXi9NXn/ZOsdRhdFTO37+c+lgfBNjyX0dUVcsCZtrSFgRTqsrLh1x3U+MS9av3yl7UjoS1nbMRjsnbND8dBk4L11q91sj01bv8F29tiqRMDYAH298uWLtSBkBObvUkLA1hoTlHlrnK5ORluy9SbI1a6lUr/GU0TE/bnAeDRw1/nXtl16Sx4w/HZKEmcL8r5fGbJI2B4/IWweO2rmNL08pXTriRkPCWCypydD1MnJxht1yoaEhZWu26pywCkNfw8aHonxasPNMnAAnkFE2L6ZNE/nTn0QmTRJJTzcauIHImWcW7mtEhKZp00JyxzLa5ThnJVZJWFpamiQnJwc+xSbYfPfVK6+UzGDCHaMgEhgvJAy3YE2vXjLI1O+h4oxn8+YiF18c+GDAqDZ9jcAII2PoD1IUWSiClRHHjj11wY4yBPUey6m1uy65VBbUeNgQp82yIzchKuWQpMknn7WUHl90D1wlepg3b56SsHIGi6AMHDiwQkjYgKFdbIDAT85KUvIK1knj5i/L7NlzAleKEgoKZPmdd0oTQ8IgWX6OqCsRj4QZEvb9ww/L0cWLJd9cxytn+0wfYHGZUUsyZezybdJpymZpPmyDjFiSUbjojM+cx6pEwrDTyC7PXRFwJCw5ZZbsObjWVyYjLVn5q2XLziWWhO3atTtwpeiAFUOLI2HIbMtdB+WFIRvkxZEpUntsql2go8GszBKTMOabp2ftkWGLMmSkkWXmM7YcuVHmrt1pCVrw8RQlYeWA/oMGSYf77y9cfjpesGxZ4QidF9OnF6ZJrVlT+JnRu9NOKxwhg4StXl04wscqbziO5YRYJWGsjjjOO1IYg9hnlMASJkuzBHocIJ5IGAm5ezp0kC2//a0cLS4dkTRkbxowKb20CaPV9DPjsMtrr4m8/LIYbV04il6OpAgnZ9YsY4D3RDdiGS2suuJKmfzi47IriiRsl2yRJR1bydrHn4z6SJiSsPJHRWzWHHckzKB/9+5ym9Ev4Syp33LPIevIFkfY7JywL7+Ufu3b25ViQ8k8C3IcDYx6bcvOtSMHoebuViUSVtGbNVdGEuYKi3I03Zgrr2fslVa5BdLKyHQoeS6OhFGQV0Zu2R9s9548yd6dZ+U41NxdJWHlgP4DB8p7jBDF6MpivliypHDOmBfGCZPTTxf59FMRll4n3bFWrVPnhpFWRVplOSFWSVg87BO2xzhYHc88U/aMGRP4JrYRTyTsiLnX2YMHS9t77pGDFZRGEi3g8GAoYnV1xCeq3SVvtKgj+49v8jX4JSnbDQnL/ryNFJx7QeFc2ihCSVj5Q0lYGDDtvfkvf5F3DQkLZ+NznNXiCBgF55XNmlf+3/+JjBwpeceO+cqbKziyjCr4/eaKkrDyQ2UmYcgvI1+U4uQ5HBLmLexvR6qt32+uKAkrB/Q1Smcw6UTxtEJitWpG6hA7D4jI//a3IpddJvKPf4j8+c8iW7YEfgyA+StKwizigYRl7dwpj9x5p2xISgp8E9uIJxJWYO51/sCB8v5dd8mBSkDCYnmfsCnXXCvD6z4tu6M4ErZP0qR/x1Yyqk1QWnYUoCSs/KHpiGHAtPfW006TDz/6SN4yH4Od0JIWRsLYJ2zhOefIsWnTJN84nn7yFkmpaiSMFVqVhIWHSEhYJCVSEhZOURJWDuhnKrgXpMW8xg2MEraLf3jBoiDMAZtjFD+Lh7BQAGlRXjBPRUmYRTyQsH25uTLtl7+Uo6zAGQeIJxJG9n5+u3Y2HfFIcemIMY5YJ2HMCVv0/MOSZYiTn8H3ll17EyT/gHFk9xtHIM//GMpec66hn7WSCS3bFDv/7uDhYzI+MUc6TtkqH03cIqOWZ0nBkdD/URJW/uB52OsulknY7n2FsplbjGxGQsL2FxyT4ct2SscfjGxO2iITjJweK2KRvSHt28vdxv5H03l16Yh9jT4sMGR4b4R7PPqVqkbCBg0aZJ+7IhAJCUNukV/kGHn2O4YSKQnbuuuQfDV3m3w6eYuV5RVbQteFkrDYQUyQMJaob8V8jigvc1ymYO6HEY6TwJywM84QWbq08DMLBJx/fuHCHF5AwkhXLCfE8pyw78uxHkqCPEPCRvz613K4T5/ANyWH4Ueybvt+mZCQIyOWZcm8jbn2u2ginkgYbkGScTy+vfJKKdCRsDJFvdvukPebvih7i0hH3GlKTn6CMd6JMnp5opHTRNmakyDZ5ju/40lH3PV5Gzn8z7OL3XJjy66D8uXsTJm+drdMW7NbGg5ab19DQUlY+YN9G0mnrYgl6osjYTuN40pwYNGmREPgV8uU5ERJ31X4vd/xkZCwzD0F0svI5pz1uTJ2ZbbUH7BOFqWyPqEPjM1fdN99Uv/jj0MuTlCS4kbC5l5yiY6ElQDsJ7hu3Tr7WhEIl4ShSzN3J8iMNYkycmmiLEhhOXr/YyMlYdOMbu2/YLvMT8mV3nMypfmwjbJrn/82SUrCYgflQsKYrM5O3R9++KGk+iwh3Xf4cPmaDVjjZLTBon79U+8XEvbXvxamJQIWDWBkrH//ws9Dh4q0b1+YpmiMtt0HzQhqWSNWSVhKSorhqwHCWoFYsmSJtG7d2qYzBDsgO7Ky5OFbb5VNK1cGvik59h46Kl9Mz5AuU9Olx8wMeW3wBhlvCFk0EU8k7Ji518mGuNR58knrMMQzWBp5qOnfFTUnDCert9EntD3OSDA63Pwv6fxqTckP4eg6AjZjbaI0GZIs73yXJC1HJkuvmasLf/dxdnMlTSYZEjb/6WfCCqAdPXZcCo4el937j8i74zZL12npEioGoSSs8sDZ/3bt2p1i/8MlYRCwiYmr5ZVvk+WD75Pk9RFJMmTxajui4Hd8pOmIyCajtTvzC+Tt71JlgHFmfWH6ec4vfiGdDAlrbT76OaIlKTivLFG/mj0pv/1W8oxu9JO3SEpVImHlgQ0bNsjbb78tffr0OaU+wyFhjIBl7kmQnrOSjO1PlvfHJckbRo5nGp27x2dELFISRkD3iJHjfcbPWLo5X+oPXCeLN/sHE5SExQ7KnISR2lCrVi2pV6+efb3//vtPydvtO2KEDPjP/ywkKPECBKJTp8CHAFiWvnv3k+eBQbxYuh4MGFC4rD37jLGx7OefV2kSBiANFYlFixbJrYZkvfvuu3L11VdLD0YvPWBhjs/POEPyRo4MfFNyeB+VFJieszKlw4S0wDfRQTyRMBIQsz79VFaefrocjvORMCKwpNdWxJwEjFTz5s3lSUNmmzRpIv/6178kO2j0/fiFF0nCsw/IzhDpiNZB2J0gbcYkSccfVltSlpoFKVttv/cjYQfMubp3bCUDOgSlXPsg/+BR6T9vm7Qbv1ne/z5N6vRfKz1mZCgJq+TA/r/wwgtSv359+3rfffed1EfCIWEQsPXbE6Tx4CTpM2e17Mov/DxvQ+hRhEhI2J4DR+xI2AdWNjdLnW/WybAloUe0JzduLNU/+sg6nH6OaEmKXaL+yy9lYJs2cnjXLsk3+tBP3iIpSsKih3Tj26FXCdbefvvt1sZ6EQ4JyzVEC5l9eUCyTEs2smvkeklqoi1+chwpCVu7fb9N9aa0HJkidY0cL1ESFvMocxLGKANOLiMMRIuvuOIKoxhP3nOJ1RHfNgJhJC3wTRxg+3Yx1jfwIbYRyySsooHz+nFg3l4nQ6rvuusu+95hX16ezCNA0LVr4JvSYXFqnvSes006TEyzkSpyt6OJeCNhOz77TJb/9a9yOM7nhFUkcLRuvPHGE6MMOLpjglbz7HHDjdK7YXXJPe6/MAdpMpsN6ao/MFkmr06UfYcKv8MB9jueslO2yJbPW8vua65nKC5wJX/8kLRLGgxaL1tyDkqecXo/MvKvI2GxBZydjIyMqKYjLl682Np/QDtefvnlMnfujxsoh0PC9uwvdFZf6pcsq7Ym2tEvZDMUAaNEQsIGL94hrw7eIJuzD0qukc0PDBEbGGokzGCcIWGPGZvxoXnv54iWpDgS9v3TT8uRdesk38i9n7xFUqoSCSOVluctq6Dup59+aoMIAN102223nRRMCIeE7T2QIN+tYDQ3yQa20K0QsVDp3pGQMLJK2n6XajNsyDRYtXWvlelFm5SExTrKnISNGDFCbrrpJqvYqUwUQvBiDP0GD5bPrzeGnAUt4gWGOBoNH/gQ21ASFhrPPPOMTUME06dPt6MJXjCiUPeaayTdpZiWAqnZB+xcGBYlyN57WL5dtMNOBI8m4omEHTX3OmnUKKn91FM2QKMoGXB0GcXdEhiBr1u3rp2k7kXNO+6Ulq/XkX0h5oRZEpadIPUGJMsPARKGg+CXJuNKtiFhawwJS7/tjmJJ2Kx1e6TuN2tlWVq+LNyUa0fCOk3dqiQshsDqiCzzHc2FObD/jCCgl9BH6NvJkycHfg2ThBkZXGxI2IuGhK1IKyRhLGhA2e5zPCUSEjba6GMCYkmZ+2SmkdNafdfKYKObfbFvn2T/x39IR0PC2piPfo5oSYpLR1zPKtHffCO4zn7yFkmpSiSMPjjaEIp9ZRTMI8OgYcOG9j11+sADDxjZzbKfQTgkjIU4xhoS1mjQjyQM2ebVT44jJWHtJqTZ4O6GnQek37xtUr1PspKwOECZkzAq74YbbrDvUcREaSdNmmQ/O7BE/RCUT7NmgW/iAPfcI/IWi9TGPmKVhOE0rnEbW1cQnn766RMOK6MHKFcvduXkyOtXXimZ7AFXSmDka/VdIwnpe2VHXuHcA1Jgool4ImHMAtvUrZuMvOQSOVQJSFh5LmjgBSTssssuk8zMTPuZiC37PXmx49LLZMYLj0lOiCXqSUfctidB3hqTJB9NTLLphwlbE2XsytX2e790xEOSJp92bCW9unwRuEpo7C84ahejaTNmk3w9d5uMWZElExNDz4dUElb+KIsl6rH/jNICRivuvfde+eGHH+xnEA4JIxiQsiNBmg1LNsQ9ycrj3PWJMm1NYsiR2khI2MEjx2Tgwu3SevQmGWTI1/ClO+2iSb4wOnXR3XdLgzJYmIORsPGPPSZHkpIk37SBn7xFUqoSCXOrI3pHp6KJ1157zU6pAdQpGTM5xjdwCIeEQbjmb0yUut8ky6TEwnTESasT7Xd+chxpOmJazkHpOGWLvDsu1S4wM2jhDtmww9+uKgmLHZQ5CUtOTpaLL75YVqxYYedM4CysX78+8Gsh+huH4WOj2MxBgW/iAIsWiXmQwIfYRqySsGXLllX46oikIj5mDB8KlUjXS6TFenDAOCbL/t//O3X+Xwlw5Ohx6TMnU94cmSIfT9oinaemy5Al0V3IIZ5IGOYyr317SasES9TjuDKSijNQ3oB8XXTRRTJ27Fg7d+H666+3aeBeLLryKpnw4uOyq4h9wnAESPtqNjRZmg5NksZDkqTXrML5YX4kbJdskYWft5Hke+4TCXNVsryDR2zUFrAYQigoCSt/lMVmzUmGUGD/sf3o+0suucQucOAQycIcPyQl2oU5kE1eRy5dbVMV/Y6PdGEOsGf/j6sds8BBKAw0NuM2U5jB7ueIlqS4Jer7f/ihHM7N1SXqI0RZb9bcq1cvufbaa21mTLdu3eSRRx6xQQWHcEgYOjQrP0EGLlht075fH55kZXnmuugszAGQW3QsQIJDibGSsNhBmZMw0N44Wo8++qg8/PDD0tVnbg1zwt4h3zZ4KfdYxvLleD+BD7GNWCVhsbBP2KZNm2yKTPXq1e1r8MjcLuNgdTjrLNkTNMemNCBiRTpiWSCeSNhhc69zBg+Wd+65Rw7G+UgYDg97LFXU6oj9+vWzwYTHH39cPvjgg5McBHD33XdL0zfqyoEilqinkOK1bluijFuVKLONc8BqXn4EjMIS9XsMCTty/oVUQOBK0YGSsPJHWZAwwKqIoex/uCTMrt5piBhzwsatTJSFKYl29NbvWEpJSFhYMPK4/q9/lZaffCIszeDniJakuHTExP/5H7v/aN6xY77yFklREhY9cP4GDRpYPwE5Dl7XIBwSRkFmSf1m9As5TkhPjMqcsEihJCx2UC4kDODcBo+AObA64sB//3fTgjRhnIC0NWNc4gFKwooGeeSMHLCUcjBYov6+O+6QlMTEwDexjXgiYUcgYcbpe9sQhMpAwip6nzAcrsQQcjrrqqtlTJ0nZXcRI2GusOCBm3cTioBR9kua9OnYSoa8a/R2YHQrWlASVv7Izc21KV3RJmEglP0Pl4S5woiYlU3zCjHzO4ZSZiTMtPcWQ8I++PhjYTKCnyNakmL3CevTR+add54cHztW8o8e9ZW3SEpVI2HM7S4rEgawp4zmbmdRtiCES8IoyC26FTkmsOB3DEVJWGFRElYO6Dd0qPRkk+PAAglxgS++EInCsuXlASVhJcfevDz54Re/kOPdugW+iW3EWzpifrt2kv6b38R9OmIskLCisPfiS2RZ9Yckyy1Rbwz8jrzEH99TeM937r3vcYH35rt82SojDAmb3OJNJvwErhQdKAkrfxCMivacsOIQKQkLt5QZCTPo36PHSemI3hEx3rvP3vfFHYfzSjpi706dpMDIVDRkvqqRMEZxy5KEFYVISFi4RUlYYVESVg745ptv5C1DFKSCJraXGFGO/pYVGjduHLNzwsaNGxf4FJvIz82VMYYkHDcyGi946733ZNqMGfb9fqMIKRjhA8a54v0B3pti35vv7G8FBbLflBPvQxzH+xPHBc530rndcX7nM795z4fbntyvnwy//PK4X6I+1knYa7feJh2a1jKObrpk718jO/Ylyc4DayTHlB37kmWHec02Zed+835vkn1P4Td7HP/hN94HjtsumZL/xTsiZ58b9f0OFy1aJG+88YZNq4QUIEexWHAQcBRq1KgR9ySMAE60l6gvDo6EDR7ZTY4YUp9j5Coa5cDxFGnaor4sWBD9Nll6221Sv2NHec+8N9J/YkSMz7ynsGgH5Ir3HMPvvOc7fmNlRT7zH/fdQ/37yzyjC2X+fIEy+clbJAXZ3Lx5szz33HP2c2UGDj9zDdmvsSIACbvsigtlfdo82Xd0o69MRlp2GzKXuXuF1HjhGUMuo28f6xpS8+T33wsb9ECeolEITFxXr54kBeYkB8tkSQoYOXKkkrCyRO8hQ6TPH/5gtNBDYiyZFGzdKsYCi3TrJvtJETMKT1q1Kvx+/HgRlgqdM8fupyHNm9sNku1xbJTcurUcYtNkVmBs1MgqtCNMBG7a1Fyotxxk3tlnn9nzH2T+xpQprD/K+uRyMC1N5JVXRPr2lYMsP8pmyi1ayCGWfmYBiQYN5Li57mHOf/fdcmTQILupItGXWC1EN1nVp7d59lgDSnPp0qWBT7GJnUZe7r7xRlk4ebJkGULGxNwdxrDt2L5ddhmZ22FkkoURcsz7LPPdDiNDWeaY7F27ZCfHGac82/xvu3Futhu5yTHvs7ZtKzwuJ0dyOJ95T4oD5+B8HMd/dhr5tMeZc3Ec59tp/rvL/LbDHLON4wLXtb/x3hzX4tVXZdTo0ZKze7ekrV8vm009Z5pjtphzpZk+s9XcS7opW9autd9lmOts3rRJNqekSLp5n27e8xuLPGSYZ+M/m00fyDTX3mLOtXnjRnscq1vy2xbzfYa5b3s+cx/bzLXSzHGp5jwZ5n16auqJ86VzPnNPaeZ4nmNUnz5S/5FH5ECcpyOyxP7QoUNjloR9amR43tUXyZ7ESbJjyRiR+tVl/9cfm/afK8dbGX361iuSsX667Ov3icjLz0rWgpGSPXe40Yc1Jf/bTpKWaZzZN+qZ4xrJ1k2z7X/ljZdlYe0nZNajj0m+kTXSeaNRSItjGXNWJKO/0Te2GRmLxcIy1RCXp556yjj8CwK1rQgXO3dmydlnny29+n4kOfuSJHXboqiU7XtWSr2GNY3ZHm/lyU/OIi27zXlymQf+X/8l6+64Q9oYPdh74kRJMnLa1/gHbYxeS2jWTCb16CGtjO77oXNnSTD+yXvJyfK18Vv4rfcPP0gbo2eXvf22TDe/Nzd6cIrxMxLff1+eNz7Jyl/9Sg5+841k5uX5ylskBdlMSEiw80SdM6soGzDieu75/5SlCRMlc9cKX5mMtKTtWCJrU2fJ408+ZGxpatTkmJJtZOP56tXlbmN/Wxj92tjosGiUZuZclzzzjCww/jQZAn5yGWnhfgcMGHBin7bKhpggYVNmz5YX/vpX6fVv/yatL79caj/wgHT/2c/k49/9TmqYBu3wpz9Jz//3/6TevfdKC/P71//+79Liqqukzl132eM+/8MfpMbTT8vHv/mN/VzH/L+p+Z3/vHnllfJytWrypfn+sz//WV589FHp8NvfylfmHHUefliaXXSR9DS/tTTHv2icwS/Mfz754x+llnn/ye9/L71//nOpZ873+sUXy1fmuDevvlpq33OPdDHfN77tNnmuVi0bBY3VQhSMfVq8e7MowkeuIbJdjIwknXGGnbvU9vbbJdU4DWOvuUaevP9+SbjwQllrZOPF++6T/tddJ6nnnCMdbr1VWhiZ22yOG2q+q2mOW3bJJbLGHPuceT/I/JfjPjDy04LzmffjjVzVNOdYbK6VaI6rZWTumxtusL+1uvNOedMct/mss2SCkecnH3xQlpvj1prj6po+wXX57V3TH9oY52Dxr38tg8xxdU2f4N5STKljnMQh5r62nH++fGau8745x9Zzz5WxN98sjcxvy438r7v0Umlo/jPKOOz81s7c65umH/CfSea4+k8+KQnmOdZedpk0Nu8HmXtKM7+1N/3oQ3NO/jPuppvk+WeflWRzrvXmuIbmuKHmv/z2ibnX98yxaRdcIKPNvTQy11pp+uQyc+2CQ+WXAlUWIALLSnCxut/ZlIYNpcdPfiK1rrlUnrn+CvncvH/jtD/Iw3f/S9r9/P/Jpz/9d3ny1uuk8V//LN057qpL5LkrL5LO5n2r00+TB+6/Xdr/9Kfy8U//TR6980Zpar7ran676ze/kvOuv05YLYztHaJRHnroIbnlllvsxv7oLxbMidVCqhd7C6Jj1xEUVEQEyAEE9oKLzpZHn7hXHni4WlTKw4/dLeeed5bccMONVp785CzScr/RmfcbPdfG+A+9jOxfY3TfA3/5i3Qx7582Psj5RufRr1obH4L3Tf/zP21fuvq88+TB006z758zvsXFRndz3FvG3/mn0X0cR1+6yujtR82xLxkf5ekoyD2yyX0jnxW1fUZVwapVCfKXv5wmt1cz8vboXb4yGWl58JG75N4HbpczzzpD7r7rbnnQyF+wTJak2PMY237mP/8pvzX+xd+Nvf+b8SGiUf5qfJbfnH66PGyu4RY7K21Bju8wfs1bcbIlVKSICRJGfmpyWpokrF8vK40jsywhQVZu3CgrzOflK1fKCmPcEjZskOXm+2XJybLavF9hjluamGiPS1i7VpaZ45bzf/PZHbeKc3A+c1xC4Ljlq1bJMnNcIucw75esWWOPs9c1n1fw3lyP97y645YGrrty9Wp73eWc27yuWL7cLr8fq4WUPyZEM1yviByk6IiRLenXT9JmzJDNbE3w7beyb/x4WcWQ+3ffiQwaJMnm/S7mt339tWRMny6b+I1NN8eOtUPzx1ldccgQSVywQHZPm2Z/2zpzpqTMn2//c8Act9ocd2zUqMLzLV4su9i8fOBA2cz5OM58v98ct2rpUjlu7oHzreG6nK9vX3u+zVx32DDZZ6632rS9cL7BgyXJyMIeRpG/+koyzPFpjECaZ8qfMEHWGhk+Zs7LPa01193D6LB5v2XePNnI8w4YIPvNeZLNccfNubnuevN+F3unmXu312UUwNzrXnO+VeZarPDF57XmHnZzPnMtNrxO457M+fJNva1hhVFGmM01bD0rygw79u6V5UaHLVu+QhatWCnLjC5canTZ4mXLZanRgctNWWx+W4xONb8tMTK/cOUqWW7eo+cWL11mdSXH8p8liatlhfltFXoWPWrkjlHtaBV0F6Q2WJ/FYllu5DglJeWUFSnjDTjqjOSWt8NOhH8p8rXEtP2SZVEpnItFamgfP/kqaVli9Nci0wdWmLLStPvSgG9gfRY+m/fLTb/CL6B/0ee4hyXmd96vNK/8tsS8X2Lke6U5H8dZf4X/4aNwLo98laYgm27/wMoM+h4BsIqyI/hX+FnRlOMlvJrzoQfx4/zkscTFnI/+kWhkJMF8TjCfo1LMuZKNHGMT/OSxJAUZZkQXPVEZERMkTKFQKBQKRcWBJerLanVEhaIsQeobe47GaiaCQhEKSsIUFQb26CLSoVDEO4jAEg3VET1FvEJJmCJeweqIyC7z4BWKeIKSMEWFIR5WR1QowgFzW9gWgIisQhGPKKvNmhWKskZZb9asUJQV4oaEkafOKlnBw818h/EoDciDD3aeiGiXdrlTloilOHBO7pcVC0sKDGTw3APu03udeEE87BMWLpDBHTt2nDQSQjvT3qWZY0F7c47gOX20eWnnoAQ7Wyy1HfwMkcLPgeO7yj5CxBL1I0aMsPUXz+D+g/Up37FCVWmQk5NjV2sLRmlXbaMfBPcN7rc08wf8zol+Df6usiGWSZiznX72H71VGpSV/Ude1P6XD+KFhNFOyIBX79GmfjY+UvjpvWjIBvfq9WH4zP2W5rzB5wR8V9n9BD/EBQlD8bJxJ6so3XrrrXaiHmjZsqVdfrVatWoyc+ZM+10kQJl17dpV7r33Xrnxxhulb9++9nsmFd5+++12f62S4ocffpDLL79cvmBTZwME7M033zyxkhabkUYCOmq/fv3knHPOkenTp9vvEGL2Jrr44ovtJpvxhspCwubMmSMPP/ywXYWradOmVjmRZvnoo49a+axdu3aJHAWWZ61Vq5Y8/fTTdlUjlCyKukePHrbNJ7ENQwmQmppqVy7ift19sbw2K9xR2NwbUhEJ2I+G1Tjvv//+E048E8JfeeUVuZnVEbdutd9VVsT6PmHFAWP9/vvvWzm+6aab7PwK0KlTJ7uaFvoRJ6ck6N+/v9Wxd955pz0fYBI7/QPZLgnoY999951cdNFF0rlzZ/sdfaNdu3Yn7pf2iATYg7Fjx9pzfs72JAGgy1mp0V2nsgIHLhbTEYPtv0thx546+z+LRYIiRLD9R04B9v+2226zurykcPa/W2CT/2D7P5+FliIA/8c/Offcc2VGYA9I7D/7J2ELIM9VGZCwwYMHxzQJI5BVv359q/PuuusuazPpcyy9znfoLWx+pEB3f/DBB9aeI8foRWSbDY7PP/98KyMlAb4BevC8886zi4MA7pl7pd9RIGORgHOiRzkni20A2g7bgxxXdj/BD3FBwlCOOIcIW5s2beSll16SadOmyX333WcVdJcuXeSee+6xiioSkA6HQmSfl9GjR8tll11mDRDOBh0CISsJM0c5otxxPtlwFLCHEI4094jAPfHEE6dEtIoCwskSneypMoaV9gy4108//VSuvfZa+eijj+x38YTKQMJoA2ST9iWaevXVV1uSjLJFBnDOaZ8+ffoE/hE+WrVqZQMBOJfI4scff2z3TWrbtq2cccYZJSbeOAg1a9aUG264wSpA5BV5ZNN0CNR1111nFXgkmDp1qjUm/BeyCHCMXnzxRRs4qOzLd8c7CZswYYIlSTgKzjFlxUOcXkaxGOW7/vrrTxklKw7IF46BW+nwQrZ0WLvWpiGjD9HhJQH3hM674IILTixdjE3AeeaaX375pZXvSHQs/Zc+xjlbt25tv8Op69ixo1x11VXy7rtsqVt5gQzT72ONhBF8dPafdiGohb4h4IP9x1HE/kd638g39p9gEX0X0sQ1cOax/xCmktp/fBLsP8QLcE6cZOw/clQS+4/vgy4lUAA41yeffGLtC3JblUGfh4jGMgmjrQiqEkCqW7euNGvWzJInXrHxBKX4HCmw5yzhjv7q3r271YFkHXz44YdWl3399deBIyPDmjVrpHnz5tbnpK+Ahg0bWn1Lv2Og4jP23I0A+AEEVM4666wTgQgGVQjWEmCoitt8xAUJw5HDIQVE7HFI2YDYRar4DmchUgcIg8O5AJ0YRe5SZnBKHnvssRIpYfcfCJK7xwYNGliBBpA/nJxI0hLcUDV7Jgxn+W8Ddx3qBmIXb6gMc8KI6BMlZ5ERUKdOHesoMKLAiBNgZAniFAkw5ChWItMAEse5XQoAsuoit5ECucGoc34iU2yizDOgdAHX6dChg30fLjgnwQwMgIuO4WRQBziwON6VGfFOwhihwjEAbKL+/PPPW6cBZxFAzpAXlmKPBIzW4nwC9B3nwGkAvOJclwSuH3DPjjAxQoytAGlpaVbHRuKYu3NiW5y9cd/Rf99++237vjKDAEok5KA8gOPq2hjHDZv98ssvW+fVfYf990t3LQoEW539h9Tffffd9hVg//mtNPYfYuTukaAczidgiXD0N45suPDafzey4a4D0SuJ816ZQD9Fb0GiYxX4BG40HSKNf4ncuoBn7969T+jgSEC2FTYb4IcQ2HJ6j+8JSJUEyByFYIcjTJzbBc6R70h1IuejrQjAzZ49+8R3BPcY0XYjblUJcUHCcAiIAgEYORt4EnV3BIcIKwIe6X4YCD/RLkDnxeFwDiSKrqQkzOG99947oYTpDC1atLDvGQHC+ShJihr3RFTaiyZNmsSlEsahW7x4ceBTfIK9Ni699FLZuHGj/YzzRpvjAEJKAAQ5UmUFCWPDWpdmwigVhtyBKBTflRSQRwgTjjHtwDM4BYhRxwGPFNQB9+xNUUhOTrYEryqQMIIjbhQw3gAJg3wARlt5TyTVkTDSZjDGTs7DBXXiiBY6llQWFjABOCLo7dKAEV0vCWOUBHC/ONG0S6TA6XckzAHdXRVIWCyC1Gk32rlo0SJr/2l3Z1uJpCNHkaZyQcKC7b8jctj/kpIwB0a8XOAVuXRZMc5fKcmoDfY/OM32tddes31VEduAwJBlACAy6EJG611QnaAqI02RAhJGUAIwmIAc4z8ApghA7koK9Cepkwx0AGyAI2Gkx5YkOwCCyDmZxuFA8ANCir9Q1RAXJAzn0wkZBhzlCClzUU/SUEgriHTyOMqMlAHAaADD+ggxIILLbt2lAY6scxAgjBBHQASAqFtJ0j64p+C5QMyNi3RYOBaAooi1qGukQG5IY3WjSBhJ0peIdDrFRfSSuSqRAONPepibU0j7ekkY8hNsjCMBZAFFCJB5noHgAKB/OWMRCXBgGOnwpgVTP6RoliTXPZ5ANA8SG+sTw0OB9Ck3YoWjC3Hq2bOnJeqAtiWtMNJA19y5c62jAYj8IwsuqkrarnOCSwoixy4ARcSX4AdAlpnbRrtECghocGYBI2GRjg4rogPaw9n/yZMnWycTu8q0BMCIKvY/eFGC4kAw09l/MgOw/86HwMait0sDRgpc8Ji0cuevMH8d/V2SURvsvwtiOEDusDmK2AZ21QVyBgwYcGJuWK9evex3yEujRo3s+0hACiIjS4BRVifTgOB/aecLQrxcgJbgr8vOgfy/88479n2k4JzMvXRgdAx/xwWuqxLigoSR/81cE4QNJ48cVyL5GFkiuDi+JcmJZgSAKH379u1PjK4hDCh1IghnnnlmiSej8z8Elvvm/mH911xzjZ2oi7Dh9EQCHGWem3vi3lwUgegJxoN68UYWFOUDyBLKiGgtcsSQOiNBOG0YWowjzqubhBoJiOzjBCP3yBFzrCBPELPTTjvNKnG3SE0kIBKLE/OnP/3JkjucAQw556MfIZ+kdkQCnF6i1X/84x/tXB3INd8RIPjVr35ljU+kDryi/IDxZkEKZAsDSVsy6oWOpT2RDeQ80pEBRlrpE/yXtFzOg7OMrmLEibmNRGojdaBJX2FOJHPMcDpwTDHql1xyiU35gVBGurASmQmck3pw5yRQRrADIkmktjSBj1gHhBUnyEXRYwXYY2wcehCbyhwx5o6gV7H/zKUpif1HvrH/yDeEC5KE/YfoYWOZt1JS+88cMHQ38ygJEqO70eHRsP+MAjpbT10Q2OCcBDyqKtBL6JpYk10vkAlkFjlGrzIVA33jtfFu0ZVIgD1HZyFTkDFG7RnB4tzMCcM/RqYjBfaac/7lL3+xupTr0M/QjcgxgdtIF8QjGIuN4ZzMA+Oc+EsEuPBH8BdWr14dOLpqIC5IGEA4EQBSCF1HY6SB71CUJRlVAjjHnOOrr746sUwtSh/HAILDggslAfeE0mTIFhIGGAHjWnTGSCO0KGHOxT1xb14SxvdcS0lYxQC5of6ZA0h6IsAg0C58x9y3kgDDwiIsOAlOhiBhKEBSEZGDkpIwRjk4B6MHkDDuF4PO6K03QhUuIFyQRndOR8K4DlE/7lVJWGyDESpkDePt5qugHyHqRGsjJUoOrKjFOZBbl6qKrkJOnD4rKQlDZul7bnSA9GaeATlEpiOBI2HeczoS5nRsZSZhtAHPX1JbWpZw9p/ULWf/kdeysP84rKW1/9h45AW5gYQBr/2H7EUCR8KC7T+yyjW4/6pMwtAHzOOLZJ5dRYB7RD9558KzKJzXxpcECxcutOfA1tIXHAlDPphPXlISho5Gl6L/8RsAMog+L8mKpJCw4HNiE5zvgL+gJEyhKCfgnOGoKxTxDggzZDbSkSKFIlaAIxuLS9QrFMWBOUWQjnhNB1dUXSgJU1QYGMVx+xEpFPEMHFei9S6arlDEGyBhsbpZs0JRFBgpZERUSZgi3qAkTFFhYBSsMmzWrFCQ/kGqdLyujqhQKAlTxCuUhCniFUrCFBUGJWGKygJIGPOF4nWfMIXCzbNTEqaIN0DCmGunJEwRb1ASpqgwKAlTVBYoCVPEO1iYhIUolIQp4g1KwhTxCiVhigqDzglTVBZAwtjgVUmYIl7Bin2sVBbLy3wrFH5gUSS2LSjJ3msKRUVCSZiiwpCamlri5dsVilgCJIzNX5WEKRQKhUKhCAdKwhQVBpbz1qirojKAff+Sk5Njfp8ahUKhUCgUsQElYQqFQqFQVHGwwTp7N/KqUMQTCOgyH0yDuop4g5IwRYUBhamb2yoUCkXFg4U5WNxAF+ZQxBv27NkjY8eOlX379gW+USjiA0rCFBWGTZs2yapVqwKfFIr4BQEFdV4V8QyWqB80aJDKsSLukJOTY2VXV0dUxBuUhCkqDKyOOG7cuMAnhSJ+cfDgQZk6dars3r078I1CEV/QzZoV8QrdrFkRr1ASpqgw6D5hisoCVkccNmyY7NixI/CNQhFfUBKmiFcoCVPEK5SEKSoMSsIUlQW6WbMi3pGbmysDBw5UEqaIO+hmzYp4hZIwRYVBSZiiskBJmCLegQM7fPhwJWGKuANp4MwJY3EZhSKeoCRMUWFgTtj3338f+KRQxC+UhCniHSwuQzqtLvOtiDewT+OGDRukoKAg8I1CER9QEqaoMKA0lyxZEvikUMQv2KRZ54QpFAqFQqEIF0rCFAofEA1m+fwffvjBrnqnpbBMnjzZppFqtPxkEIlNSkqKuXQYAh1TpkzxbcuqWujT8+fPtytaKioGBCtoC5XNHwtyOWvWLDs3TxGfYKn8rVu3Snp6upZAoT4IUir8UeEkjM16x48fLy1btpT3339f3nvvPS2mfPDBB7ZOEhISAjWlKE9kZmbK008/LW+//bZ06NBB2rdvX+UL9fDOO+/Ic889p3IZBzh69KjUq1dPmjdvLh999JFvm1a1ggy3a9dOnn32Wd0eIwgEEjIyMso8wILN//DDD6VRo0Yql56CbNaoUUN69+4dqClFuECmCKrwWlFYs2aN1KxZUxo0aCCNGzeW1157TYspDRs2lFq1aulG2iFQ4SQMhtysWTP54osvbBRo2rRpWkyZN2+evPzyy9K1a9dATSnKE+vWrbPKFPnEmfWWooADE3yc33fuc7wVDN1bb70l06dPDzyJIlbBPLW6devaTdG9Mlick+1tb4fivou3gr35+uuvA0+iACxRzwpzZb0wx5EjR+TNN9+UBQsWnCSXFD84x5rX4OO8/3fHBZ8zXgr3Tf0TJFBEBkYPmZNbkY4+o5nINaNhe/bsOamw6A335gp9jULmRPBxwd/xmWO938VTyc7OlieeeEK2b98eqCmFFxVOwhA6nLrVq1cHvlE4fPnll9KpU6fAp8qH1NTUmB1RWb9+vTRp0sRGh4ORlZVl5ZWFRZYtW2aH3DECvHrBd9u2bQt8KgQKmGhzvAJngVFaAiaKH4EDiKxUZCQ2GJAwopDBckkbkiJCWikyTEFWWVQEg+kFI8LBG1CTSoZxjWf06dNHvvnmm8AnBcDRY4W58iBh2PylS5cGvvkR3AMjCk63bty40foIW7Zssf9zQLaRa29Agf6HXMdSH4wUEImPP/448EkRLiA+7HGHrFQUCEwyoukHZBLZZil99Cmy6pVdh1Cy63dsPOHFF19UEhYCMUPCULrBwFlAYHEOKEQEGJkIzuVnRZzgVXH4b0V2yGige/fu0rlz58CnygeMbKyujggJI6XAzyF57LHH5Oqrr7bRHUq/fv1k7ty5ctNNN51Euj777DO5/PLLT8rxJ8rZokWLwKf4A8aDtOHZs2cHvlEAdBLz5YJJTEXCkTAcWC9SUlKsXN5zzz1Wfp988klZuHChdf4wlg44BFdeeaUdTXNAz/KfeF/VlADXgAEDAp8UACexPDZrdiRs8eLFgW9+BN+ff/75J3QrqfnIK7qVeXwOEyZMkHPOOeekIN7IkSPlqaee8g2cxQtGjBghn3zySeBTxYG+X14lGoiFzZohYaTZ4nt6gQ973333yS233CKPPvqoPPjggzbbCR1E+qkXyG/16tUDnwpB2u5XX30V+BR/oL+TjqiLVvkjpkkYQ7uPPPKING3a1M5tGD16tCxatEheeumlk6KzGI46deqcNPmP7z799NPAp/hEt27dpEePHoFPlQ+xvE9YUSTsiiuuOCVlhNExHFs3zwTFg7L9yU9+cmIFSJyDBx54wCrfeAXPgKFhJIzoXHElWkY21gHhYY+lWDI0oUhYYmKi/P73v7cLiXgxduxYueaaa06MctEHfve731l551yAEWCIGaPY8Qw3EuYns36lrIB+wQaWRwl2DoMRCyQMpxTy5QX3fe+99540ykAgC93qTSl1c1DiGRBJgiF+MuhXygr0dzI2GG0sbcnISJftmemyzZTg3xi5hECVFrFMwnjGP/7xjzJ06FDbxwjUcQzHX3LJJSdGiPBpzzzzTPnb3/524jk4Fp08Z84c+zkeQX8nuMdopeJUxDQJu/jiiy35IiWBOToIJAJ93nnnycyZMwNHiV1AAYWMUw9w/B5//HHbIeIZvXr1ssYGZ6m4gmOFUosnpzdeSdh1113nmyZKIIDFVAD////snQeAVNX1/zEmJibmn/hLYoqmGVtMrLHGaOzGboxdsVEEBaRLBxWkCUhReu+99957Z3uHZVkW2EZdWDj/+7kzd/ftMLM7C7M7b3fvN76wM/PmzSvnnvv9nnPuvUS/nnrqKT34HBDR/ec//6k/q6jAoTJWkfbFJB2tWrUKuLVu3VrfQzK6lX39FkiL29YJCyTCEFJXX321HivmBEQGgWXG+xEsIEv20EMP6fE7ANJLJriigzb5xBNPlGjDbExsQgluWWQ5IWBRUVHaJ1zsFhcbI4nxMRKr/vX3eUnjZcjYl2c5oj8RRoDVNzsA8Lf4HMD5YYMEtNgfcMzHH3+8wmdoERJkTIKxS7gB+9HvhxpUHWGXERERujz0QrfoKM+2aUekbNt1/udwl1CcP76L8XRuFGFc3+9//3s9zt8JBNldd91VELgluwtnuPfeewvK/cmYPfroo2G9rosFnJTACkkRqg+oHAq0jRgxQk9MQ2VGVYGrRdj9998vPXv29L4qBDNbmUwE0RqM9G9/+1tBhoGODbLrr+a8IgGDhBRBZps2barJgL+NzyC7b7zxhnZqFQUVWYRBTmfMmKGjW3RUAIJKiReAkNepU0dGjx6to7hg+vTp8uyzz5ZpBLOswf148sknpUOHDlr408YCbbRpSBGBlAvtaFOzTsmauGw5edrd96wiiTB8BCKMclmqCyABprLgnXfeKcg41KxZU2eMsGNTIoUAr+gVBoBJdyD7JdkwJdOQJ2yYKozSIv/sOdmYmCNxGZ5Moi8Yc8fzgPBezBYdHSU790TJyq1RsifC89p3n5KIHJUk4c6E1VQ2R5+Hr2TdPUPG2JeMAHZKQJayrfnz58sDDzygCTgBBUoW3dT+LgRMGEM/XpJdslFhQR9FP1QaKJPUNrkvM/BzxlboAz22FX1BW0xMtPp+tIxcGiWfjomQzjMiZPvuaImLLdwHIUYbuFhgFwQQEI/hQnEi7E9/+pMOqnO9PFsEGMCvmMAtMzG3bdtWczqCPoDSf8amV2QgwgiYcE0ILHh6oI3P8Q20Ad/7WBrk5Z+T7SlHJefkhR+jvOBqEYaQohQRw6XBmkgkUTHKFAEknlQnD5CMGCB6QJSzrDuTUALHuGvfMdmzvzBa2b9/f10TTwkYY04gVf42PmOj8bpV1PgDBIcSKDeiOBFGpArb7NGjh3aaZnwUmS4EGkEAhDOiDAfMvtgu7/E83Yi8M2cl18dhQSBXxWbJV3OTtRAC2BnZPcYuBANKEOhkyGBfCBbsPiIfj4mRA9nuzqTRDiuaCOMzSp8QY0Ykk7UkyIW9Mt0yZYfYMYIFgsOzZ/yjG4EPxYZPKVt2IvnwSemzZJ+MXHtAzEeQH0hPsCDoYLKBpcHRU/nSdFK8jFrnf1A6Y0gJ4hhSeqFbfFy0zF0fJU3GR8qKLZ7XvvuUJMIgSzz3sg4SFSfCEPmUYyH6yfIYP4Pfeeyxx7TtEU0nE4Rvpp9HjCAeGXfiVhzLy5cTeUXva9bxMzJk1X7pvyJVTp7xVLDAbQiqBgv2R7CWBmdUQ2k+OV4W7glcBhiMCENkJSo7Y4tVf/t+zvurt0VJrRERMmqZJ0CwO9LzPbNPqEQYNpWUlBTW8YDFibDrrrtOXnjhBZ29hKeZwC1BWt4nS40/psILmyfTy7UQbHDrBEJnlb84ruyaf51A3A9cuV+27/X4G+4H3DxYgYwPqlevnm7zF4ojx05L/XGxEnXA/euTuV6EMfiWVCbja0jVAwbjMjEC0Q/KSiAOOAz250GTJSuNIytPHMjJk/EbD0q6+tcAgvnd8lR5d2ikNl4DxoOVZpAuBJ/JASoKEC1mvJTbUFImzN8sSJAXsl6QVjJl5trIfhGlw47dOqHFuvhs+XxWkveVyOn8czJ24wFFIOPkvWGRMnGzR1wYEUbpRzCgg2Vs54WKsEURmdJkYpxyqoUzo7kRZBHIilaEMWGmHNHfzKTbtm3TxBZyYEgtoo0ML9dHZ2qiuG5D9ol8aT0tQVZEF87cuEMRgfYzE6WZIp0tpsSL4gwaZPcg8sGAUloE24WUyCDC2kxLlImb/Ivz4kQYZDVBEdkktSXEqtd+9oH8QnZTE6Nl5pooqT0iUhZv9HzPd9+SRFh5oaRyRBNM9QXZS/o4JirAxwLsm8xs/fr1ddDSrRiwYr/q9wt9Q0LGCek8L0X71wbjY5WdeAQaE3EReA4WBFBKmwlDhLWdnigrYwLPcFqSCDPZrGWbo2TJpiiJjFLC35Hhwlaxy8mrouTjURGyfIvnPV+xFioR5gYUJ8IILBBw5r4iuMw+3GMquQieE+jCtzL85sEHH9SZXpIN7ONGZB4/Ix3nJMtBB5ddpWyqufKzr/bfLTO2e5ImXCtiMtjnjJimjV9MEgURVm9cjMQHqEBwE1wtwiC7dH6QWwiFidDRKVL/zSLPzCSzbNkyHTWgTArDZTHZUNaGI/RzVAeP3t+VeqxA4TuRpQySbEFEWmEm63jeWck7c053xFuSc+XU6bOyOSlXao2MlvUJOXLCW2I1UxkrUdqei/ZK7yWFZVuIMBZwDBZEDksSYUSLU46clGVRmfrfcMLN49eKE2GUywRay4WgwO23364dqhlwjGCjbAZyYd4LBYjwL4w4IssV6fxuWar0Vx19ypHC892beUrGrE+XPkv3yeBV+/X+IO7gCVkUeUSmbcuQIav3S+IhCEGy1B4VLSOUHXI87HbnPtURp5+QDorEloUIow1wXt8s3itjN6RLpnKcvlgSmakIdJxM3ZqhsxlDV6dJmguzYhBLyLRbiC4IJMIoh7nqqqv0v77AjxKZve222/T6jea9F198UZeHl4YgBgM6ciLy+M4h6tni/xBOBmS1+PxbZd99lR0b4ph9wvO9VbHZ0k99hs1O3pIhNUdGaWIwRf199GS+jsrGph/Xx28xNSGkIuzQ0dMySbWLfktT9TlsUPbsi2PK93eYmaQ/H7UuXXooH8+5GgQSYZBVtmlKWA1cGCVz1lNSWFSIxanPt++JljHLo/Q2elmU1B8TqUhxxRVhZF99J+YwQGz8/e9/17ZIsACQBaIygSCteS9U2JqSq+2NoGkv5aNm7zhU0GcDbIrgKTY7e9dhOalsFYGzWPksvjtoVZomoouUj/5UCa2Wyv7GKD8HVyAIG7H/uOYFnynSaqoQLlaEEeTFV/fFJtW2Q/lwX3COX85O0u1t1PoD6vyL2iQoToRhd7sjoqX7rChpODZCPh0bKV/NiJRd6j0+Yx8E2fItUeqzCHlvaIQSYpEyYWWUJMcXPVZVEWGMCeNzX9AWqDzAfs1YSHgu5XjMpEiVVygz09gZAdddqUd1YGiC2pxlqQRfl0dnKh6Qpn3b3kwPZ8BPb0zKUd/NkdGKU/CduTsPy4fDo2SIsnP6aeyaypnNar9Oc5NluuIXINQibH/WKd2uRq47oH7jkP5dXyDCmkyKkznqHLlONjfyBuB6ERZIhNApMogRAzYPt3nz5tqBM4D3QiPv/rBXEdsvlNPqu2yftJmeKPXGxsiAFam6XAusVIaHg20/I1FHtvqp/UjTRqYd16VcHecmScMJcUpsZWiC8N7QSGk0MU4Grdyvj2HKFCCiCDGDUIsw0sYTVMNqNT1BvpyTJI3VOczbHTpRUJlQnAh75JFHAmYod+zYIT/60Y+0LRqQ/frhD39YUPsdKtCBfzg8Utoqu5u85aB0mJUkraYlaHuC/PE+dovD6rYgRT9vsgVrFXmorjrGtsoOKJNKOnRSuqvP646JkWFrDmiBbnBKiTGyC2UhwhCIbDhKzm3omjQd8HCCrAbtpev8FN1hQFhoU5RPWhSPQCIM4kN5jD8RBhiH8OMf/1iPFzPAnq+44opSR91LAmP+GoyL1f4QG/tm8T75RPlXAgbYAkSAiCbPHlutPSpKlkZlaRL76YRYXXICEV6miAPCq+7oGJ1h4HvO8lpIZqhFGKUuBDjmKQJOBUM9dS6+kVePCEuUOuq8ILwEHWqMiFKExlOa40+EIb7ILHwzN1LqjY6QTtNVfzEuQqasjioQV5BdRFknRX4huu2mRMonat+6iuwu23xhIgyyRCl1KEmfPxQnwrBXQ0Z9QeULGVz6fVOqxP278sorNYm9mMi5PxDwgWTyzHh2H4yI1L4KYE+fKH8JIZ2wKV3qK5HFPoxBgQuQ3cIuZyrhBkFtpGwV7jBa7eMkjTv25urSwFCJMHw7tjhbnSccBd5xKLdocAvO8bnqFz4aFa3Ph3LID5VNbvLaJAgkwggCILC+XRApTcZHyJZd0bJzT7Q0nxApfeZF6oyt2Q/7RHh9MjpSFm70CDdnKSJbqEQYNkUVVDgDu4FEGH3fz372M5008Ae+w8Ryzuoahi7wXqiXK0CI0NcS2Byk7Jr+tI3iAbnKT3Hr+q9M1fY4TPXF9LNktch07c8+JbWUvbSYGi89Fu6V2IPHdUDhg2FKgKv98M0INYOOil8S5AWhFGE83XEbPYFluAPnR3CWwIITtLG6o6O1EKP94vup9CEh4ja4WoQxcwyEwB+oncVIKVEwnQZZsEsuuUR3sKFsjJDUWiOjdDTs8NHTOuL5vjI+MgW8hgxgtEQRolXHXEc9/Nk7D0nE/mMFJYax6Sc0cVitnCTEgWhZauYpbVQGZCF6laEIw1B3px7TDQrQeWCcbs5IhQvFiTAGRfvOLGdAZ4AdOj+nVA0HHMrAAECEQe4SvRmuvUdO6s4Um1yfkK3JbNYJj2NEfGF3c3cf1hFciK1znBUR39bKGfsCclBWIswgQ50vmQLIC9liJyAwjAnbe9jzHHQmWRHxSEfG2cI/Aokw7JHAQKCyQkoqIRTOGn6OwVjbkmbYKy3SlAjDTrFJgA/lNRMHIGAIDDjHrtDxQ2aTlM1DdJ0BA0pWm6lOd3FE0cWlQVmIMAPOGQLLuTrPB+hyRNWuCLgZQAbInuB2D6YfOE+EJcZHy9LNUfL+0AiZuz5a9iV4yr4o6TLlXJDdWeui5MNhEbJ4U5Qkqe/0nhslNYdHyNILzIS5YXZESD+BrEDAbp0ZL/quxYsX6xLbUINMERkjA0grzw6f2H5WYpGhA2S7EDz7s/Kk7YwEXX7oRJ8lqbraxRfbUkIrwgzIIK9TPOWjUeeXZMEDsEkCGwYE6+AwBsWJMAIArZXobzExQsatiNJb0wkR0n6qR4SZbG2KssmFG8iWReqMLeWJzmOxhUqEUWFCuZ9zmaLyRiARxjlRPou48Af6RiZkcS77wX3v3bt3yDkDmVICVfSrIE1xQSpgNisuQSVKjZHqmXj7VmyooeK2s5SgR4hVHxKh+1+DDCXuP1Wcwl9FFe2mTESY8pnOyTYIOtDucrw8xyDz+Gl9XUu9/jj24AmpqbjRimJKcMMFV4swSg0CjRmCDGC4zgUcaYg4MUhyKJGoRBgd/sZEjwGSaSCCQHnCBkUWMGoIgwHOmcwDZTUYce7JQgMhO0bkN9LPgMGyFmGAKNimpBwdRSBawXWES4MhVEJdQhIqFCfC3AIcIoP+zeNDVCG0cI7zldj6bGq89xNPaSzkdbjqaMnckjVzPnbII2LLF2UlwsjKzlPnSIaLjegcY3d8Z0GEUDdT18g1AYIcXCMC1E2ADDpLpt2AQCLMTaC0BN+a7g0IIGgQ45SqZuTm6Uwv+xhsVO/jPympxWb2ectlwEFlI1Qi+JtwoCxEGCU5lEji6/Gltfx08ogwxt9M9rYfQMABm8fv+oowk2kYsDBKPh7tmU2O14gq55gb/qZMsdG4SNmm9tmXGC1zlCij7OtCyxER5eEWYW4CmTDKvA3wkfgosrTYLMMIDJhQCxFOcIB9KJ92ggzvCIfIMQi1CEs+fEoL/K8X7tXnQRUB/MUJRFi7GYk6IGwAZ2GSEIPiRBiBgBYTI6XJuAjpOTtSusyMlK5qm7gyUo8VQ4ixMZZx3npKEiNl866i9mu2UIowbLckGy9LBBJhbgKZMLJDJAAM2ik7wRYQLFR5UWZtgJ8i80W/y9hsArwG8A18caKfcVdlJcIA4ykHrkzVpd3w18bqehgu5ATliCRHnOdGkHmBn74h3HC1CHMLcGLUdJt0PYKLhz9LibC18UqEKefrJI+k+Lso40WEQQqcs3UxAyKGG6HEmC+ocWV8jEHIM2GK4OCgiXpRJkFKl8Hq4RJhPHO3rutSEUTYFmWPCBLIJ6BslvGGmcfO6DI+PjO2BxkkIDBn12HtcClVhPAaLI3M1Kl9X1NgbBhR0yleUnHqVGhEGGMnGb9jCDOROdqUrwhbokQY7cXUcyM8yf7FKxLuJiBOaXtuWpCyooiw+uNiCsaBYZO8JjKbdfyM1Fb2TFbMgHFfBAWoTkCE0SEbpOec1mVf/kQYNt/SEWT46CJFGNUv3yhfimAk20xwC/v1zcJ5MmGJMnJtIQEnm8L4Tfxuuh8RBoEdsTRK6o6K0AKLLBfvQX7NZB1kFRBqENytap/9SdEye+3Fi7BwT1HvJpAJg4AaIFIgl5T3NVPPerTqrw3I5BKRh9wifiiHdYJhBoyz8cXu1KPabij7BhcrwnopsUf/TqD48NEzmlQTsHDCZMLoCwC/zPAEAnQGxYkwhNbn0yKl43Ql8JSdMc6LfyO8YxZXbWU8mOc9RFiDMeUjwty6WLObQD+KnZrs1XHV3+JHqe7alnJUZ49MwBNgS/DSZLV/w/FxRapnOFb9sbGyz08mjKAUHBOcOxs6EUawAj9O8IuM3ewdh/WkS1k+48I8syMW2j6ZMvoGeI7bYEVYECC6RX0p6XtIItks6vp5wAmHTmgyicJG5JDeRXhRk43gaqQMnvFhBpBParHXxmcXEGSIB8cdvCpNvl6QUkBE+4dYhOWcPKPPm98Gc3Yd0YYJoQgHKuo6YW4BE8RQFttxbrIel9JJOT46V+wJp0lwgBJaylIYp4izYkKDZUqgNZkUX0SEkR0lXU9ttwk2QIwhE5TX0kkvic6RA0eOyrPP/OeiRRiRNdoN500UmYweIhBbZFC7KeehbPf1gXu0052n7JUxb13mpcjZcBltACB4mFq4IsyO6Cbo7K0iipBaSOF3yz1jqxgrhrAhaITvJQtB0Osj9fe6hGxNhGuOUIQwvTCYheBppUQRkV3EEOMGOT4Z1+4L9mpBN2XrYdmblS8N6tW9KBGGgGKyELIYBD8Y+P3moD16UDvgs93KrrkG9qHEkoHqjPutMTyqYHInf2PCyCBAZD8Y5hkHtidSnfeqKJ3p2rAzSoYsjpQNOyhR9OzDpB1M/d19VqR+vfQCx4RZEVYUVKa8y8yw6tlO25qhZ4nl+eJ6CAYwRAHbohQRIssEHlS9kDEYs75o6eF3jM+aGKsnM4APUC7FpErfLk/VfnDipgyJSD8tPXt9I40bX7gIo72Q5SJLS+nu/77dre2Tsl+qbCjLwnYhsgTlGC88fM0BzQu27y2sLggkwtgQU9gcmdovlBj7dn6kfKkE2SRlo5Qgkh0jUxYdEy0LNngmi7EizB1gSAz+lMwsAQPGkhO4xV6wS0r/GUNFxotxtpSzMvYVwVVH8da0rEIRdig3T/s1Zv3kc6ptEEn8Rsup8TJ8bZoOEB87eVpefz00IgxxBa8hC00ypL9qPx+rc2DCHCYYI9BxUJ0XkzIxFIhJZ+gDOBe+Z4K5boIVYUGA8gMyYYgrHByGx2BAFoQDENWPx0TrqAHOmEkOEFh0tLw+4RBhGA6RMogtNeYAY++ovsvgXqL+DJrNVYceOmhASKeoP51/VpNyyDjOusWUBCGqHK5MmBVhF4etyUd1tovgAMTza0U0naUnlLp0X5iinzeRWJM1QPRQXghBNMCBMuAVGzcRLMgFtkz5FPY+eHW6pBzMkWeffqrIpA3FgXEmiDB/QmCxOn7r6Yl6Fi/Oxwx6Z4A7ggzsST2mOwpKGyCzPdT1MOuj24DgqSjrhLkJJjJLtLXLvGTtQ52lpnTi2APim+ytKSchoAR5dE6PDAgmkHkiS0UWl/Ew+Do27Bgxtmu/8uef1NFrfwUL9nWWvgM6dzIPTMg0VrWd8ZvS9UyMBDqY0IFzAdguYzHJqtAWuQbT8oqbmOPbBVGK+Hhmn2s4LlKP/ZqthBhjxSC3ZMe6KeHFFOCUJTKBB+T3QifmQISxNIEVYR5gk5SS9lH+iVLWSZszCgKk/MtzZeZLJitgwitEP4Gt8cofU07rBOPDv5qbpDNpBAsI1pINxU4JkPVctE8WRuVKt697SIsWn3m/VTLInDl9MYFh+nj6A0ShmQiEgNoHyibNDLlMyEVQgFlx4QC+2ePiRBgb9rVia5T0mx8lfedFyYilnnFfUeozxor1U8Jsb0K0DhowZoyZE814RucWShFGYNCKsOLBmDDK+ylXJQOL73XOjEmlCYFcgvOULZqxYwj5jrOTi2TJ4A/02wQROB52xhAdHVBVfg5f125msmxJypJ333lDT6wTDJgciH4rkB+ar2yVc2cGRia/IUCbr0gs1Q4kOLhG1uX7RgkwPm80MVZfJzzbjbAiLAhAbIlusXDs+vgcXR7jXHgRYyQ7hjGT1jWfYZREEXyj9jjg1XFZBQszE5HgmIg2Nv4+pb4yWIkworUYZTAba6WUJGqI1DFFKVuKcsiU9VgRdj4qgghjjCJjE4Bz6mRfOOu4SwIEoTjknzktL7z4ol5LihnzWI8v0MbClEyxy7TTgcr0iJw5EnKaVH+mCM8WJSB94ebV760IuzDg+8xi3M6ggC+wE0OASwLiy5nl9Ycmyj5ZaqIkG2Zj4VCmRQ80+QOiy4lxivwyXoHAhhNcnxn7Y1DcFPUQWibomLU2StZu90x00HtepJ4AAZGGCCNLhiBjIxu2Xu23088sdGwlEVTGWZPNtSLMAyZT6atEEnBWsziBrfk+/+LA/sVh5MgRcscdd2jf6c8WnRtli6wjxYQ5voB7GBAQJnhlxvU6wfn4a1dMyoMAwzYRSv622OhISYjxbPFqS4qNlCkrI+SzCXtk045IiVGfR0d5Povy83021iBMTS0cd3ehsCIsOBD0ojoLMY7v9Q1iAThATPpxnVEywJ8ePnb6PB/Na0objTjDv/EbvCYjRon48bwz8sLzz+vle4YPH64nKQm08TnVX++9916x95FzZyIyQDk4vpbxa6PWeypROC/4Av9SFcS5uBVWhAUBokuUaq2N8z+bWFmBldLvvPNOvRZaMBvT9SMeKgp45rNmzfK+chcqgggjuklmtjgBFmpAoNq2bSt9+vTRJGrVqlXFbsxiGmgmSX9IOXKqICNWkWBF2IWBqCVZrhTv7Jflhf4DBhQIAX9269ywYQRYsOSKTFewi4RCQFkqALLr3PZAftUWFx0h8WpLjImQNVv3SIcpu2XRhgiJjVL77IlQ5NbzOfvxd4x6P1L963s8Nudsl/7A5DKQ2XBOUe8mUM5HaVZ5gqwWMz4zIZk/W3RuK1as0BNblTQjICSV5RvIHgcLfEdycrKesY/ysGC2fSlJsn53omyLSpJU9be/fXw3jh8Kn0nbpJ+hdDhcqEgTc1C6V55g2ahgRBjboEGDZM2aNd5vBgeCeJQiZh0PPuDsFlgRFgSIdDHGy7moXXng22+/1WS3soKV4UM9k2WoUBFEGNEfygR8glNlChbupaNZt26d9x0LAGmxY8JKDyKsRFKdkxeVB+jogx3XWJYg+0SWGPFT3JaVeUTSMo7I3vQjkq3+9rdPSRtt1w2oKCKMaL4zG1AewIf06NHD+yq8QIyXZstXm5zzbP4+L26rDKgIIoysJws1U65XXqC9UxGDD7I4H1aEuRiIMNaKqKzAWbnVYVUEERYOQORYu48orEUh6Ggo+Sop21CeqAgiLFwYOHCgrjSwKH9UFBEWDiDCunbt6n1VhTB6tMjixd4XFRMVQYSFA7T3999/31UBSjfBijAXAxHGwFuL8ocVYf5hRVjFgRVhgWFF2PmALFGCVtYk0oqwwKiyImzDBpGmTTEO7xulA9k0AmDhzKpZEeYfRoQxb4HF+bAizMWo7CKMMQhuBWM1GPhsRVhRWBFWscBkPVaEnQ8rws5HeS3WDJjJ14qw81FlRRj48EMRn6VMggWz8DK+nPLecIFxelaEnQ8rwopH2EUYRBxSxwBTi6Ko7CKMgbnMjlReIFLGWKaVK1eeN8jZua1evVpGjRqlB0jjQCwKYUWYf+DHIK9lHVhg4DkBq5JsmG3hwoXyzjvvhGQK6MoGK8LOx8WIMDIQTDCCX/Bni86NjEGtWrWsCPODKi3C2rQRucAx4oyrxHYJ6ocSLMJPGZ1zFmp/W0ZGhkyZMkW++uqrSjPGLVSwIqx4lIkIY9pdFhEkKoBRBtqYipKZ1p588kk9G5BFUVT2MWGQyfKcHRFhxSyS2CXr/gTaOnXqJDVr1pSnn3465E69ogMRxv2z7bUoIK6Qy2DXQrlQQGLfeOMNLYT92a7Z+Jz12e69994KNWNqeWHw4MEyceJE76sKithYkdWrvS8uHhezWDPBtOeee65E34pdtm7dWm699VaZM2eO99sWBoiwKjsEQdmOUvHeF6UDkz6UxWLN8FgCBiwJ0KRJk4Bby5Yt5amnntL8ws0VPuEAIoyJOfAvFuejTETY7Nmz9dpA8+fP146W1/421ohiccibbrpJFlfwQZllgX79+umtsqK81wlj4Wui3zgFMgqBNoQG5/b444/rCJdFIbh3kHuIFJE/SFugjdnnEL4bqPev5GD8FaS+rAcfQ9K+/PLLoGyYEp3HHnvMtTOQhhP4VcbLlWTDbNjwokWL9D11FaZPp67P++LicTEijGn8P/roo6DskinVH3nkEU2aLYqCKerfeust/a+vHfpu2CVBzEpBbpXdSN26IsnJ3jdKh7ISYaxXRdunmqCkjVktsWvX+Ykwg/JMbHru3Lm6LypuI7jLv25a6qWsUSYiDAdCpisYUCL2r3/9Sws2i6JgTYX77rtP2rVrV2SRRn9bgwYN9MLOOIOKgvIWYT179gw6+s1ClWRoDx065H3HAkDQnn/+eb3uBxnD4jZ8AJOb4IAr+31EhJXHOmH41u7du3tfFQ+eFdHZLVu2eN+xMGC854MPPujXbn03qjXI8lBud7HIO3NWL+x/IhRTRFNFEGIRBrG/EBFGhrZx48beV8WDTAGLvU+YMMH7joUB6yT985//9GuHvhtZRao1QtGHsgxP7METijBfXBYnLfuULI7MlMRDnoV0g8b69SJNmlDX6n2jdECElcVizQQW4ALBgHJI7NqKsPPx7LPP6nuJL4WnBtqYH4JhICxWXlXKOstEhE2fPl2XJQQDyNkDDzwgCxYs8L5TtcC6DaxFkuNn1X3WsiEVvnbtWj2WKdC2Xjkw9iEVXpHuYzhEWLDRV8prqooIY4X8vPxCh0dHyiKlX81NlqGr02R/ViEpo0aejoZMdjBgf5wrs65VZpSnCAt2zAgZB2y4Koiw40rU4EsNWAdn1o5D0nV+iny9cK9sSMyRs44yodq1a+uMYrCgP8PHXiyOHDstTSfHSWx6CBZLpUqif3/vi4sHAVEygxcqwho2bOh9VTzIllFlUBVEWJ4SNceUfzW2d0rZ6PLoTG2Tnecly9KozCLrPNJHUdoWLBiygE+4WKyIzpKWUxMkI+fCBQQLr3MM7Hve7lIsuM9i0x98ILJkifeN0gMRRnawLERYsMGXESNGVFkRlq/sO03xhNnK525JzpUTDl9MJuzVV1/VC3PjW+AEgTay5YjemjVrXpAfCoR18Tkyap07x6RZEVaOiM84IYeOFjbQXfuOyRezk6TxxDhpOD5W5u06LGcckSgcbGkWbuSeV6SMImPCgiXzoYAVYf7Rb9k+2ZpSuL7VgBX7pceivTJla4bUGR2tbfREnsep4ijJrgS70C2ZWcoX917grFcVBYgwCKwVYeHBuI3pigAUEj/IbZvpiTJlS4Z0nJMs7w6NlOgDiux5UadOHR0cCAYQA6oRCHZdLAi2fTI2RiL3F57LBUMRRImM9L64eECWILMXEoG2Isw/NiTkyDeL9+lAF9iYmKPsMkEmbj6o/G6qvD0kQlbGZOnPAOPByNIGC8YszZgxw/vqwrEkIlNzkLSsC1+ces7Ow/oYiM7zwARc/gKuzGbIhBzdupEi9b5ZekDYY2NjdVsNJawI84/te49KZFrhTJTr4rOlnvJrrZQI/3B4lA4wEHAC+JXXXnst6L5x37598sknn4RUhM1UfUPbmYneV+6CFWElwBk9PXXGf+dEiYnvZ+Zb+WfP6Q10mZeijKGQ1ENyJ246qMlBX0WEqyuHfCC70Il89913evKSYNG+ffsKJWYTEhJ0/W95obKIMGxy+95c2XvklMzYfkjGbkjXUUgDzC1i/zEZsfaATNqcoTOtIOv4Gdmx76gOBoxR39mdekzWxGXLx8p59lq8VxNX9jmYc7ogOrtWOdf3h0VKuvf4VoT5ByJs0qRJZT4mrDKJsCjl9yhb2pyUI0NWp8m2lKJR7MNHT8s05SOHr0mTHarTN8C24w6e0JkuSp8IZjWfEi8dZiXJ/N1HJDUzTzIVAaDECuQqUviBIgbLogvJbihFGMR65No0WbDniN8+AgI+SxHU8Uoo0v4IukWlXaQIU4JfPv4YhuN9I7yoTCIM2yJTuUfZ2XD1XFcokWT6cJBzIl/m7Dqs/SsCyhQR0I9Hpx+XJcom5+8+rH3yN0v26UDWBNXP71TPHv9aQE7VMZtOipeeiwp9Y6hEWN6ZczJXnePIdQd0ZsJ5/gac38TN6boPmaRE4WeqDTn5hwHfxG7JJBDUOOjoawySD5/Uwbomk+K0GEt1VE/ocV6vv+4Zw+gEkzvVr89F0LF433QXKosIg8aaSgH8IskAX5uAVxxWtpmRe7qIH3N+L/dkvhbZPOtvluzVQSW+R4n1VuW/+Rx/+PbgCN1ugBFhwQ6VYdbsYEQY7YhzPR2ghJbrow/hHGcrm+w4J8n7ibtgRVgx4NHiTFfHZcnAlful9fQEWRRxxPOhAsZJx8vD7aBUNp+dUQ8eg8cRLVSftZuRKCuiM7VBEiFoNCFW+izdJ5EHjhVpBDitd5QIS1AE2aCyizDGBpTnTEKVRYRxz9rOSFAdeJx8uzxVvlQOERKa4RVbU7dlSIPxsbqkEOHfbHK8pKnOFZLQYFystuOv5iRrsjBVkdwayi5bT0uQQcrGnaWHAPuGRBjiYEWYf9DxRkZGlvk6NZVJhJG9qj8uRrovTJFvl+2TWiOjZH1Ctv4sRpFZ7PvrBSkySNkx+5lMV/8VqTrq2l75XIIJC5Xf/XhMjBY3+NY9PlmmTEV8OTYlKQahEGG4LtpafW9bo13N3VXYPwD6CM6pmWqftK+mqi1+NCo6cDliMNFfSOErr3iyCy5BZRJhCKz6yk92Uj5ygHpmtdXzGq9EFIDU0adDQinVpj8ngAAQWvjdFlPj9WeIuTbKT5vMAP7WCcgrNksQzSAUIgzR32V+srZH7JLMG0E7J3IUWW7rvY6+yj4JxNHeTLDNCYJz2C3XRLCO6zcBDoPNSug1nBCn71VvJTwLsiTZqj0jtCZPLnzNJGxffOEJIkyd6nnfpagsIgyb4DkTVOgwU4kc9bydGVp8JJ83V8+ZclLsIl7Z70klxsjY8uybTIrXVTOj1h+Q2iOjta2znwnyGiDE8LfLFO8FoRZh0OZR69K1vRI46L5wry4/d4Lr+k5xo4aqfXaYlaj5Ubf57lwv04qwEtBFOU8cC1ElIq841DVKlAGcLsa8PDpLR2Qhq7O8RKGZMmSIAtHP3alHNaloAOFQpIJ9nZkLgEirpQzbGWWq7CKsvFF5RJiozj9Ohnk7/yPKgdZVJHTm9kOaJEAKZ+30nDdC//NZSaoz9pCCD4dHyuQtnhkfTQSpvXLKax0E1QBn+qk6FmTZBAysCAsvKpMII8P1mer0DREYoggj5SyAoBeZrbNeu6OCAF+L7ZNdaKmILiWyxi7pcMes95+FJBsA2c1QbcMgFCKMwAbtjuwbyDx+WlIzixKHWOX3PxwRpf8FEBP6E2dppAalOq1b84C9bwTAypUib76plELop3eHLNFO+be0qEwibPq2Q1J3dIzszfRkZ6YpoY3tATJGBLWOe8uzKTesqZ5vypGTMk6JKYgpdmF8K8KL/RE9vliqPqPPT3JMYhEKEUZpGMc1goqKCROgMyC4VndMtLZZQP9AKWG6TyaMLALjvAh2ADJ5BDzm+QQbAO3vy9nJ3lcKzNrIWK833hDp00ekRQuPIOPfSZOCCzgECUpo8Xehnsyhsogw7A8hgn8lW0uWFyE128sThilfTFY2LuOEtmWCBh3nUFJ4RgdoyXCSyU08dEL2KR/Hc8YP48d8s/9kVj9SXJjjgFCLMPgzx9+khD+/QdDENygwXbVZ+DfXSeVEI+X/bSYsANwuwnhwzs4dwyPSg+HRsSPMDMasPyCtlMES/cTgSd070XlusjYYX+DoNKlWDcHLKTSsCAstKk85ourHlH05I/uUBkACmIAAkhfjIHnD1x6Qjsr2dCBAdbTOUijIAhFRAglO8BtExiAQOGIDK8LCi8okwoatTdOZBoPVsVk6u0Ugiijn+I2FYwh2pR5TZDdadqsOlUyY7yBrsk2Uh/mCcrEaiiSvV2TZiVCIsF2KlBCUM1lif9i596iQISCgAXJPntGBjSh1HQVYulTk/fc9E22QKfCHrVs92QNFTiQEE4T4AxNz4B8vZCxGZRJhBKnoqw0Y/0JEHdD/Y2sGCJw6SpQsUqKGoCyZAicQ6JDbg7lFbYRScMTbAq+ANwiFCKN9tFE8xDm+3BcEPOA2p721lEzM0UTxGd9yRGZMJLhMNo3sGpM18Rqh6gvaHwE/U74mKSkit90mUqMG6xaJrFkDw6ZswPN5CMH6jPjGUFciVBoRhphWNuHkpN0WpOgsF/4LkeX0t4wRR8SkKPvGJ2PbTvRdmqqDW76AYxDAcPLiUIswBCLj1osDbdS5D8mRL60I8w+3izCcznyHcCIiBHEgq0C0yZTPAEoX6yoHlZBxUjsj54BbQNnYjO1FhRlR4E7KODB0XzVf2UUYjW3Hjh3eV2UPRBiOOhgwXs3tImx1rMf2TLZr0paDmjAQ4SL7ajBk9X49G5cRYRAAA0QYExiYYwGOD8nFMRP1csKKMP+gRPRCyGtpwQyMvXr18r4qGTyr8hx3WRpQGkM5rQHl3ERdESqUPA1fU9jJM16MMj7I7LfL9+ksmhMExkb7ZMI2JeXoDAYZB1+EQoRRcgWRTi1mMgOix5+MjS0QYTnq2shURx1S3zmh2iFLuTz0EFPhihxW/QzZA9pKfLwn68WzVu1H3n3Xk01gnzICU9SzbueF2PFKda4slRIs8K1uFmGUaxsQ2MJvgm8VaWXSIgPGQiFKyD5RstjPIdAAFTSIMDJIBvhhfCsVBr4IhQiDMBMELkaD6fKydopzMHwCLI30L8IoSYPTUDKJLTM2k+yCL1cB54kwQMlszZoXNfNhMDis2gVTxNsp6v0DEUaCgCyVAWMREWFUZVF+SyWNARyBjCf2TUXCZMUtnKCUcYTy307AFbA7ysedCLUI+0KdzzBH3+APzLHgDMqR+a1SIoxZwoKd1Y8H9JDqhNw6qx914ZQUGuCAIQ5MNUv2igF/BqOVo2qvyAMTdVCPvSyqaOePg5qytdCY6ZjJYCDOijguLyq7CCNCP3PmTO+rsgfrVkG8zMKAgTYWDGS6Wxa6xbm7EXSYlAswhgsB9d7QSN1JMmiWqC0RWQbfEq3HwS6NztQZsI9Hx+iJDAzohKn3J7hABoKyBQTYu0MjZFVslh6oS3mNKRmzIsw/6DBYcJ7Z5coSLNZco0YNv3bru0GMWYNx27Zt3m+7C6MZW6CE1ebkHN2BN1Nk1UQvIaiQAMpdsEvKuImAgp6L9+pIvhMQCj6HRDJd/dbkXKmu2gRlVoxZwIYp1aWcEYRChBFBZgwF50zp1+q47IKMG9fGUg+8TyYOIcg5QB7InkUfUST2hCKMDz8s8vzzqqPpJPLhh6wOy8l5yrY6dBDliERWryZaqY9blriYxZqxtRdeeMGvHfpu3Me77ror6KqE8gZR8w+GReogKvbUaW6yJn6Acd48TwQ+/nXEujRtA1TGQEq/UbbphBlmsDkpVxHhfD0pEiWsBHcZB87xKRX0aqGQiDCCAzr7q8Qjx6eUN0K9xyQ4iCkIOSSbMlkEFedBX0LAgokOCCgx1ThT6ZNNIytIZoE+gLaVpIi5mS2XTB/9BEDYUVVxHpdJSBDFwkUGDAhpCaITZblY87JlyyQjI0PP7hdoI1jbu3dvefTRR11bjkhZaW9ln5TSMnERgYVZSngRiP18dqJezoO/4QTjN6Xr4Cy2CaelDNcJ/C0l4HBdsO/IKT0WEn4Mr+U4plQ81CKM4B1jwWh/tDsCBUxEA/cxJbj4fYIMTJXP+2Tu4N9uRJmIsIULF+qIQJcuXbSTYHHRQBud27XXXitLyjhScqFgMB+DDFn3AkPEudHBA8Yt1Bsbq0u5cEZEOKlXBZRxLYksSsgwBAgyA10hBpQfvtJ/t04RMwsds3c5xwogwoItPQIdVKddkURYea8Ttnz5cr3+BJ0cpTOBNiK6r7/+unYczHrnNuDa2iqRjyMiuoXIwmmamTwhCAQB+Bx7MxkCIrA4VN/xKERrqbHuPC9FRzopUyHAAPlgvBilKCu9mTJEGFFsxEAwQMQiwlIoTanEKK/ZEWNiYnQHxSLY/mzXbNg4UdyHFcmnU3MjxiqhhX0yuJsSPQZQmzEqB5SA6b1kr84YECQgirnXm5XFbzKrrBPMAAepIBLLpBfYNOQXcknnS4aNSQpOe4fmcG9YODRY4FtZk9EXkFnG/zLmgHMlYwc5eE+ReAgu4Fw5t2bq8/5KsFEGBHHQQGAxbgaRpcSeMiQPUeVvoxjLCRcjwlJTU6VevXpB2SX2e//997u2z0e0mPHbPDeqDsyzhNARpGqonneLKQnaz1J9AJh2fqhPhhbRQpAV4YVN0s9TrsXkCLyPb2WyC7OuElnu0mQUqe6g8sgJRBBBDM694cRYPX6HAMAixUcIejDuC3FF8OBT1f4YJ8TkIl8v2CtZSqCxZiS2bCYcob+gDVHO1l61UdorwTnGa0K8IcWADCIZEt8xQhr4f7iMEixlgbISYSyKTcCGtdtatGgRcIPHPv/88/LGG2+EfFxaKIAworqArCZ2RxCX4AGiG2xLydVBL/zsV/OS9UQtTLaC/RIcY6iDE/ANfBzBBPwdtvJc753aNhBz/BZ8mTtx7my+5lPBBrTT0tK0Lwnkh7Bl/DwbE+LBgRCDVFIwRAjQB8CLEJ6cE+Mdu6jzKl+PGhzKRIRRl4tjYPX3kSNHBtwofRg4cKB+QG4dt/D1Qs9in0SCiAw4a7iJKOF4KSVkQ6iZiBbE1zmtMmAALoYAMSAiRt0sjr7Pkn3SQ/0Gn7FWmAEijLJOIgnU0Re3sQ+R3fIUNReL8hZhpQHliBAGouBuAzYGMVgckakzCJQM+IKoK6LL+RmdI+Vc/jpJopsci+gVGQMybLxmY9yDKafCMT799NPSpEkTLWrJYAfaFi1aJMOHD1cc84Ogo2AVFeW1WHNpQESWzsytWUjImxmTQHm3ybYaQPLwmYxLcX5GaVe2o7zLgMVCifYTyWV/bJiJMowNs/SC6YS5LywgumLFCr+2azaCWmQa3n33XZ0h9wdz/mZSJTICZEScGQHOgXNDVzETGZUUBfjmGxEWji5n0eWL7OzsCy5HLC0QtWTF3AiW9YBcYkPYHs/LF9gT/tX5GQKGSZJ8Qeke/T12C6llLS6nXUIqDW9gbVAyisHYJX1n3bp1/a61yeE4vm5XyndjWnCZkWsPFPwW7QSbZD9jlwTyCCw0ViKMczMge8Kx2Exp5cbEXE3kTQkjfAhxRiYtIMrIxhFhVGeEWoTBZePj4/UaZHFxcQE39hk1apR88cUXrhRhPBv4K+KcyYHgnr6zGmKTlCQyBwJ8AGArPHPfWTPJrDGOkFnAyYoyQQbBCBIUZH0p4aV98LTPKhH28ssv62w5QcSSNipK8LfFcS98LaWVzO7Mb8NbGK/pLG/nfQIDVCcYPlM21ndxKBMRVlpguG4tmSFqgMHiOwINdGVVfNKvTrC/P3+DUZvj8P84PQzIbHxuAIFlvBwZwy9VJ13chlgjCrNhwwbvt90PN4swHCtR3fIgJKUFNkL03XfMYXkAwd+gQQN5++23dZSQtlvcRmCAgIsbSzRCCTeKMGyXrINbs5CMVaQ6IBygXB6yG4wNkzGjTIzB/yUBgtpv+T5F3n1mPywOubkitWuLYt7eN8IDCCcZ7rL2eZBU7unGjRu977gLBFbp98MBsulMWhKMXZJ96datm17ctiQgAges8AQ8SgLXT4CvOMBtJqj9GAfvBiDCymJMWGmwevVq/dwIiLsNBK3Ibk7eXHROgvIAovzZZ5+V//3vf7oCoVatWsVu1atX15y3NGAeBrJvzhlwKwrCLsJoNG3atJGtzP7kQpClWlSCQyorDBo0SKfCiSCQdShuW7p0qY4sulE0BALZz1mzZnlfuQtEZNwqwgB1/5QBlDcQU3Q0biVQ4YIbRRjn9PHHH7tWhKUcPqkj8eHA4MGDy2RiCAJsZDtKDZ5RmDOWkCVKhso6kk8ghz7frT6EqHmpRHQIwXj60ky8EyzIyvotE/QB4so3I+0P7EdppltAv0Q2KpzBPjiYqVxyG1jviwlbNiUWXS+uPEB7pxqmLCc5I9tssncVDVaElQAcTTDOqyzQr18/GcBg1koKhE6gEp9ww+0iLFygkyMKS7mMRSGYDh5Sb0VYxQBl8GRoLcofbhdh4QSZyNKMA7dwD9wswgAVNOq/cgft/f333y/z8dIVFVaEuRjUh1MGY1H+sCLMP6wI8w/uS2RkpBZjboEVYYFhRVj4YEVYYFgRVnHhdhEWLhgRduBA8dPKV1VYEeZiWBEWPlgR5h9WhFUcWH+zBZgAAJ6xSURBVBEWGFaEnQ/KEBlfVNXLEcMJK8IuDNgsXLKsbbc4WBHmH1aEFQ8rwlwMRBhrT1iUP6wI8w9EGB2Nv+m6LdwFK8ICg/G2wa51V1XAFPVMblDWPs+KsMBAhAW7xqpFIbKysvS9Y3KZcMGKMP+gvTMmrKzX0KyosCLMxUCE9enTx/uq8iExMVF27NjhfeUuWBHmHzjU1q1b6/VpEGL+JolxbqwFxPS+lR1MaoBALXZ65nKGFWGB0b9/f732T7A2jJ8KZ5S9PGBFWPjB5D7MIMeC1v5s0blhl0xuxf2s6oDgs8YdfDJcsCLMP7gfzHjI+H/6ouK25ORkvaQK65FWFVgR5mIMGzZMnnrqKT1BByUKgTamqf3qq6/0rEpumhigJNjZEUsGyxYwC6LvEgiBwJozTEdcZB2iUoA1wlhjLBBYu+Oll16SZ555Rk8zzRT0xW21a9eW9957L+iFGisq6DRY3ySYaczLC24SYcxexVo1wYDJkGLTj+s1hy4E2C92XByaNWsm9957r+57/Nmtc2vcuLG8+OKLsmfPHu+3KycuZrHm0sBNIoz1D4O1M+IriYdO6PWGnEvJBAsm+GLmxeJ8+ZAhQ+See+4Jyi6xYab+XrZsmffbVRdltVhzaeA2EQZ3CAbYY0n+sjiwULJzTURfEJiEL7CEEsvbsGxKoK1+/fryzjvvSPv27V0V0CxLWBHmwK59R2V/dnAd0LaUozJtW4bfhXKDAYuQbvNZzNkXTKOM4c6cOVMvfh1oYzHRadOm6QXxFi5c6P22++HmdcLcIsJYQLHjnCRlmyWXWayLz5Gmk+Ol1fQE2alsubRgem3WbWKl+0BAbDzxxBM6YhsMKBP57LPPXCEEyhIIHtb4cdMMUG4SYaw9NGpdyWMCWOeFBewbToiVyVsuLKCE/WLHLEYbCAQH6OiDBYsLr1271vuqcqIqijDWufpuRckLyUNoseEG42Olm7JPFr0vLViOof3MRMko5rsEUhFXwYL9g/XFlRlWhBWCJTIGrdyvFxovCXsVv+i+MEWaToqXTYk53ndLB/ztrJ2Bp5/nfrzyyiu6IoaJqygZDbTRZ+3cuVNq1KhR7GLNlQlWhDnwpSK7LMxcEtbEZUu9sTHSeV6KbEq6sHUXpm87JF94F4QkGkek2BeUI5ZmzRCyYaymX1FgRVjJSDp0QuqOjpZ1yuZKAh388DVpknPyTLGRqUAgUtthZpIMVA4cLIw4Isuji2Z2EGFkZ4MdT7N//34twigxqMyg87DrhAUGpKDnwpJtAP/7qSK6KUdOXfA6RNgvdgwIrE3ecv4Cpay/SDYhGEAGWBiXErHKjOzsbBk9enSVEmHYRsc5yd5XgQGx/Vj1+fT9ZHQJWJUWseknpMG4WL2g9/7sPBnpJyjBRFyNGjXyvioZX3/9tQ7CVnUgwuiTrAijEuCM1BkVI9v2lsxNh605IG2mJ+ikwoUmFLrN3ytDVqXpvwkEr40vylW4H6+99lrQfSOTA9WrVy/s3Ku8YEWYA58rUTRNiaOSQCSMRZwvBtO2HpLPZ3mIwszth2TEOo8RO/Hdd99J586dva9KBpHdBQsWeF+5H1aE+QdpeDJZdPiblchvMjFONiQURqn2Z+XJ0shM/Vm+N2VPCWLDCXEybkO67FUEFiDscYjLo7MKVpKnTJFSLyPSjp7Ml7iDJ3TWgLKETnOTZdCq/YoEe1ag/1oR592pxwr2tyLMP6wIOx9p2adkWVSmXpQZwun0mdjT+gRlm1FZcuSYJwCFvWJvbZXdYaMQX0pdtiTnant3kgT+PphbGCkly2AWLx+6Ok3bcWrWKem/PFU+mxKvSQbk18CKsPOBvUycOLHSizBI6grlE1nwnig+/bkBPhB703arfKB5D3JZZ3SMLFF2aDJZ8cpvLlX7YVsGBFTxp6YU7EBOnvLHnuPwPhkHSsbn7jqsjhet/ToljqbyyoqwC4MdE+Yp444+4CnjbjopTnb4VMNgr3xugM19vTClQEAZEADbsfeonPD2+eznu1Yur70mK98s3qerHNiv+4K9uj05h88aEQYXCAZJSUm6NNGKsHJCOEUYxHOecoZ9lu7TzvBLJcIQRAbblSH2X7FfR3EpHwQ46PpjY6XDzESZs/OwrqWlZGzE2gPSb9k+7bxxwBjo6tgsHYkFvIfDTvY65Bnqd/i9bSm50mpagi4jG7cxXaIcjaSyizDGhFFq6UaEU4RhG2QDyJS2mBovdcfEaMEFNiv7a65IZac5yZpcDlOEE/I6WAmnd4dGSv1xsTJ0TZomvhDRTnOTlNhP1DYGKYYUfDI2poDQbkzKkRbqOAg7bJbs7oAVqdoWa46IVvvG6gzbwRwP8bAizD+sCCsKggKfKdslyoodUjkweKWns4cE01G3mZGgfWCb6YmaOOALa46Mko9GResSXIjyt0pEEazC3glG4H8Bx529o3CcYdf5Kdofg2HK/rsoOyarRnuoNTJatxVnia4VYf5BSWJZj8UIpwg7ouwMm8MevvLaZa/FHt9EYID+Hl+JzeJ74QCIeXxx9SGRmtwuijgiq2KzpeXUBG3H+NOpWzN0H4+oa62+f9SbxR2z4YAOBABEWAv1nT37j+kA1/vDIvVvwB1M6awVYRcGJkWKj48PawlbOEUYgguf2EzxSOwagU/wFBzPO6v7dGwe+/t2Warqz/NkypaD8uGIKG2/fRV3ZawjASxsE45BO9mb6eEJlIgvi8rSfxM066b8rcl49V6yTwd/8dfGf8OPzRAKK8KKR5UVYfQzEzcdlAbjYmSsMiBKEnCyC/d4ptEkC/HphFhdB45hNlfGTUQLw6ulDA3iMH7jQdmVelR6KxHHMRgj9rEizCtisiQv/5zOTAxZ7TE8nGwL5ZyJpAGINr+5Th2PYzdSBGPwqrQiRKGyizAa27Zt27yv3IVwiTDGJBJxpaM/q4x0iurc6ay3JXvsAoKATQIGeX+i7G21IgTYF50/Qh8yQLQ2QnX2Bs0mx8myaE8UFztP8AYVVntLa1MOe64Tmxyi7J1jEOHCfim9MbTMijD/MFkEOybMgx4L92oiS8SULBViiGAWGKN8ZVslwCAHoKciwd+oDXsfsmq/tjtsjgk28IfYIoAs91dkAjA2Z+rWwoAZnb55jb/GjvnezO0ZWsSdPnOuyGQKVoSFD+EUYQh0CCaBADKjEE4EPFis+mbKBdMVQQWj16dLO2VXcIUD2XnahskkYKcJh05oIgs2JOZoIkswdqQSVI0UbyAjBrDnnos8vg8R1lj18wTNyDQ0UvwgR+1n7BtYEVZxES4Rhg0h5rEzxnjBQ98ctEeLfUBgAI5JpQC2B4egMoGgLAHWngv3SWTacZ1QWKm4K/+SVdPDG9Z6Amf1xhaO0U3POa15MwkMgAijregAx5wkvREs4zWwIqx4VFkRRtSrvnKckF2A46VjN4ZFlBYDhAxQFtN6ekLBwPLOilzM3+35Hg7UOFycMw0BAkK0oNmkeJ2VAJokK4dPpgwwJoxIA5i0OUO+85ILJyq7CHMzwiXCVsVk687elMIg/MmK4dTIFhDhIiqFUEK0E+Wft8tjiwQGVsZ6olUAooADZpxYbbXfoohMfYz3h0VpYgwIKjRUxzcljEaEgb7KuRonbGBFmH+cPq1Eb0SEHnjsFoRThNGBz3SMr0UYmXJERBcZBQgx75NR6DzPMy4HW3WWLWbk5skMJaTwvQSqvlvu6cghsPhQA3ypeW1EGJizs9DPOmFFWPgQThFG3zxGEUYDsqVdvCIMe6TqgMATPtBkBAD9OfwgIaNwsoNVytcSUOi3LFUHw/Cpo5WdYtuGE3BMSCowIgwBCEHm75OnHZEBBSvCKi7CJcJiDhzX4xX3eftwygg/HR+nEwToe0oOEV5TtmTItK0ZOltGZQHAdketK2wPWCNBBXwpnNfwUo+/9YytZVIabNwkLLBvw437LElVr4v29VaEFY8qK8JQ+g2Voe52ZAuI3JoSF4wMY6UzpxQBYmyMkE6dTBZAeG1IyJYeSnzhzImI4egzck5rEQapAIzdYayDPxFGp0BJpC+sCAsfwiXCGL9FNNYpwpgpbmvyUV0aUHtUtCYIs5SdUjq7QDlCsmc4W8oRyMICMghkYsnQMv4AIbc44ohkHj+jywVM5otyxEAiDDI8woqwCotwijAIrFOE0Un3XuzxcWQeEGmUD2LDEGEyA4DyWkNaCYxRQkP2a67al++Y0i4iu85yREpwzHhepwibrY5NZNYXVoSdDwIJtNOyJpHhFGGMOcQnGmB7JhPWXwn8Jqrfn7/riLZLto3eGeOoIECEJSoRRuCVfp3SLvaZsPGgDujiQ/G1cIdj3iyvtns/ImxX6jFdXus7Xb0VYRcG1vCjlDaca/mFS4RFpR2Xeooz0LeDY3n5yrbitdCnEqGt4gUIKgIGo9cf0HxzrXeir2+UbQ5f4xFQTOjVYVairjhgX7JrZpIu/DC2Dg6TYJjsX4T1Uj7+GyvCSoUqK8LIbpFipebbAAM0HTsOknExjAUj+sUYG1K5lCY4Rdge5UwhtZSBsW9PZYTUy5pSh+FrPcaJqyUa4U+EEYlgPJkvrAgLH8Ilwhh/gD2RoaKDJuP63tDIgrEwjVUHD3EwMDPIUf7aalq8FnGAKWMhDQBbR4TN231YZ4ApmWUMJN8hUsvvUQ8OKN0a5B2oS1YXB8t5YPfAirCKg3CKsC7zk7X9YDtMRAC5heQCsqsIKlOOCJggBpDdNWN0IBHvD4/UWQhAtoyyRfN3r0WeskXG0ZLpne0dE8YxnJMeEUxjQhoCZgZWhJ0PZkes7Is1YxuUbZOpgrR2UHbC+EFAFQx+0rlmkhnblZ7rGUtLcIz3yJgZMcfQBSoSKFmMU1yBvyn9ohyL8bbYKWDKcI6vM2Fe3hCTfsLjX/UeVoRdKLBd1hxlmvNwIVwiDG5ad0y0LI70iCImNfpweFTBfARku3p5AwG+wEcbEcbQhA+HRxf4W4bZsNQHwF+P3+Sxd0pyGfu1OMLDZSkfpwwX9FLH+0r5Ziq/jLu1Iqx4VFkRhpEgishAMYiczpqxMqbMEFGEiCK6hUONUYYNQQYYJANxwXpFZj8YFqVnWsIJ6+zZbMZCnPMOhkzQx5+05aC8PTiigCSTGuY4gOgEZQ84aecaIoiwLl26eF+VjIomwhITE8v9uQeLcE7MwbSxCCgypwh6ov5bvBNzMG6BaCoklJmIvlAkgrEIOLx2MxIKyhFxlMzERZSX6C/lCsZpYtsQCjJnfE474BgAQmICB/NUW8DZYqfGLhFhTz75pEyZMkW/LgnMWtWyZcuwCIHyxDn1ALg34YzE+iKcIgy/iA1jW3TKnnJuTye+T/lRRFKrqQm608a+DIHA9iANAL/bflai3pcIK3YPiQbYOUs3EKGlLRC1ZUkFwEQH2DEcgIwDYywRgWaMBPjoo4+0sAoWn3/+uaxbt877qnKCTEJlF2FMSIQ/9VS5JElLZZ9M/gIIClDRQiYLcord0W8DbBH7S8xQbVwZFmNgEFRkEhByZAYIZBGoxW8z0RbjyaiGMbPPMTsd7yPOCNLSJgiIYa8mI3Yh64SxVmhVx+HDh7XtwifDhXCJMIJLZKKYq4Dp4rFb+m0jwgjgUk2DT2RcLhVfZlINqraMfRJgwGfDCb5TbaKOsk04LKCMkaEQXypuCyfhMzOUhzZDMBdQmfPesEidYNid6vl9I8KCHS9NwNaKsHJEuEQYYGpZSAIGStqVspdV3nIuBt32VWQAEcWaM5S0mHpwDNRktEjh8l0iXj0WpegxYJTD4FIZJImQw1n3VWKv99JU2ZTkKW9gymWOAzB+CDFjHkzjAKUVYW3btnXtlO/+wDOfPXu295W7EE4RRofMwokMkqXDpiSRsVwGZFzJvPI5JS4Ae4tIO6bJgkGSIhxMBAP51FN6e2c4PH4qX9sZkS8iwtj18dMe8RB38Lj+PcB5MCsjYx/MFPXcDzJhEFhmtyQ7EGiDZLGIOAsvpqZ6bL2yAgG2ZMkSLTrdgnCKMADpxP4Ym0h2wcwwCyiZYUIZ/CizIuble+wLO3Xuhz1j6xAJSK7J2AIyYAgvgl9MUkPGDWC/2DHCGDBBDeeR6WhD3Je33367RBvesGGDrFixQj788EP9d2VGVVmsmb4de8AuWObAOc4r74zH99I/U4qYpUSVeZ/slcmM4Q/5HB9M2SzZB5PNNTbLjHXYpfGnVC0QFDC+FFv2TJVfOI60b9++mrDSN/qzR+dGUKBhw4Y2E6ZQ1Rdrxi6XKVuiBBzxxcyIZmIMAE+gUoAKLGzO2DHcgASDAbaI4CJZwJgy7BpQggs3JvnA/vhe+C3gtwwPoQyXIREkNfDLgPvBYs1RUVH6+ZC1DLTx+Z49e6RWrVpWhJUXwinCACSUWWKIJkAEzNoIgC4cQ0rLyiso+wJ8x7luAiUxEABTk2sMHFAKhiNmH45tvocjNoN3ATPcMH24iYiBoUOH6qwDizb36NGjxO3VV1+VNWvWeL/tfth1wioecKgspPj666/LF198oYV/oA2h1qRJE22/lf0+IngmTZpkZ0esIMBfPvPMM0HZMOW0X375pWRknL/oc2VCVRFhbgYVBg8//LC2N3/26Nwop6X6hanZqzqqughzMwiG4Wufe+45ef/99+W9994rdiMIgf2bIFplR5UXYW7GoEGDtFEiVIh2FbeRcVi2bJmrZmcrCVaEVTwweJ+OZvny5bqzKWlzU3leWQLBY9cJqzgYPHiwjBw50q/N+tuqAhBho0ePtiIsjECEUf3izwb9bRYeIMIYp2xFmPtAe4fHJiQk6DF7JW0VicOGAlaEuRj9+vWT/v37e19VPlgRVvGACCN7sGrVKu87FsCKsIqFgQMHyqhRo7yvLEBubq5e686KsPBh8uTJ0q1bN+8ri2CRmZlpRZhLQXsnA1bZKwkuFFaEuRiUcTFbUmUFz9zNY8Kot0d0WBSCDoZSAcbJWBQCwUMU240ibN8+/zNjVWVQZUAmzKIQlP9AlMo6e21E2ObNm73vWBjgQ7p27ep9ZREssKm4uDg9k2m4YERYVan+CBZwBkTYgQOeCb8sisIVIoy6exY6tSgKSmaY/aiyglp2t4rv6OhoqVu3rk6N40Ts5tmYgILxCJS+WhQCwUMU220irGbNmnoWUn/PsipvVBkMGzbMe6csyhMQZsbZrV271u+zqcob2ZxOnTp575RFRcLixYvtswsAyhHT0jwzKFoURdhFGDWg9evXlwkTJuhIBhkIu8VogdK8eXO9DkhlBREjt0aNcBg4DgY+E90i+1PVN+4DAuytt96ymWsfEIHdvXu3q+rZIbsNGjTQU15bGy7cKKfFhhlHaxEeMOU/a7V99dVXfp9RVdwg8B988IEulbWoeGC2SiasYggJAR4mVqvqG/eBWb6ffvppV80c7CaEXYRBwjFaprFu3bq1tGjRwm5q414wLfLKlSu9d8qivEE2jOgWWR+7eTamYWdabztWrmKANVcok2Hz9zyr4oYNk4VhIgqLQlB6zUKpZGTKGpQm8SysXRZu3AvG2lqyWnpgs4xpDOeMeiQUSCb07t1bDyWxm2fjfjB5nC3T9I+wizBAw8HxHDp0SC+6Z7fDujYfp1KZUVWmILWwsLBwO8prinoLi1AjKytLZs6cqYWQhUVFgitEmEXVBGNVdu7c6X1lYVFxQUDBkleLigxE2JgxY6wdW1Q4ELjGdsM5O6KFxYXAFSKMcRQscsqgdrsVbpU9qsO4olmzZnlfuQvY44ABA3QqvU+fPnZTW9++faV79+6yaNEi712yMGDCEkpXmSrZLcCvsu4Tk/v4e55VdevZs6cuG7LlMUVRXpkw2gp2yXPw93yq6sb9YBwNE+pYlA5uWKwZzkbfuGDBArt5t4ULF8r8+fPtzIjFIOwijAhGvXr19JpMTZo0kcaNG1f5jfvA1NJMkZ6amuq9U5UPbl4njJnuGCTNlMGsneNvYx82f59NmjRJf5e1o5z78DefOfetKBvnzkQxTFhiS0mLAuLEPUK8uwVMAf7mm2/qGdf82Zyx0UD2yPPGfp378G8gm68IG+fP+mAvvviiq56VG1BeIowlE55//nn9W8XZXiA74zuVzbdy3mRy/vvf/8qOHTu8d8oiWLhBhBGwffXVV/XEP0w8429jApZAn/O+mUDJ+V5xx3P7xrm/++67eo4DG/Tyj7CLMKamr169uhYbF7rt379fb/4+q6hbbGysntmMAeSVFW4WYTh0prG+WFS2dcYgUEzdXx6D9ysSEGFuW6yZ2bqYzfJiEM51d8oSH330kV0/zQfZ2dk6Q1XWIowydHzIxaIyruEIWbXrp5UeiLBwL9bcoUMHmT59uveVhQGLsjPLtF1z1T9cIcKYot6iKCC5RBIgUpUVbhZhZpajQKDUCyLXrVs37zuF4DNm/CSq+eyzz2r7joqK0s+U7GZFnvGSpRPI0loRVhRuFGHr16/XpC4QGI/5n//8xy/p27Ztm65QePLJJ3U2jdJcnvmePXv0Gk9MolRRARmg7RLssigEBJasTFmLMGZgZHr64iLjTNf+ySefeF8VgnNjymt86zPPPKOXXzBrjDZq1EjPMFhRwf1o2bKlnn3WonSgDJwAQjgnMyODRUYzEKj6Iijmbxw8E4vAN6i+wY4Rc1SbREZG6mBwRRYwzPgJl7UizD9cIcL8OVsD1rrp0aOHzkz4A0bPgqS1a9fWjRCigEF37txZT89cUQGpI3pQmUUYY8Jmz57tfeUulCTCmHL1t7/9rfztb3/TztUJnOhdd90lc+fO1dfIcyRKh23++c9/rtCLxCLCbNDkfFREEYZd/vznPz/P/+7atUtuuukmadOmjQ6U0EYRZFzjihUr5JZbbqnQWSTIACKgIgvJsgAigLEbZV02VJIIY709bOyXv/zleYKEINatt96qxxLzGUEwyhohrNdee22FXmOL+9GqVSvd/ixKB9o068yGM3NfkggbMWKEVKtWTfNVZzk/fuill17SAbHhw4dr0UW5NLwCMXbNNddU6PkBEGHcGzuEwT9cL8LWrFkjP/zhD+Wvf/1rkYVQTdQIssvAczIPrKu1evVqHeG8/PLL9d8VFRAe6mnpkCorKEsh4u5GlCTCKKehfvvll1/W4t+A1PvNN998XkdKMIEoHXbMmJSKCp7Z+++/rxcUp9MraUtISCjSbisruEZsxk3jjIoTYZwnnf7IkSPlvvvuKwhY0VEy5o+gli/4jEzD3XffXaGzSLRF+gr6Fn8262+jVM8iNChJhBF0hRMwTpysqwFjpQh6+fYZEHA2/C4TW1RUcD+aN2+up1r3Z4O+G0MW7Jpi7kFxIowA7P/+9z+9z7333qv7UQMWLP/3v/9dREDCFXjNOMfrrruuQosw/CwBP5Ij9JNcS3FbWWfi3QbXizCEFuVPjz32mM4sGFDSdcMNNxRxyMy6hPFi4EQPNmzY4P2k4gFDNJ2QcwVyf9uQIUNk0KBBtpY8hChOhNEBMrCcSBWzWjEY10R5WJwQcusPDHyv6CKMDMhtt92mRSi22bRp04Abn1PKRpCksgMSiC+jE3ELihNh2CBiCzz11FM6iAUQGw888ICe+MAfKoMIA48//ri8/vrrJdow5W4IUjIwFqFBcSKM4CNklb6bPv7+++8vKDEjQ/CPf/xD/+2LyiDCAEE9yizhPf7s0WzYJfcQ7gTvsQg/ihNhCBGGJlDy+8orr8g333yj30ecPffccwH7SI53/fXXu6pfKS2YMZI+BZulHJM+KdDG59g1weyqAleLMEp7MFDqYokW1KpVy/uJ6JIojNkfKJmq6CKMxgpRIHVN+ZrvKuTOjRIMDJh9bcQ2NChOhA0ePFjefvtt/TfRyDvvvFNnfADTDCPQ/MHtIiwh44RsSc6V0/mBywa4zoceeki3W2yNWvxAG9dLOQVBFH/YkJgjo9cfkJOny7b8qaqiOBH2zjvv6BJZwBgbAgmA5wbxpdzWH9wuwo7nnZU1cdmScTTw+APIP2Pd5syZU6INE71lPGegvmbursOyOLL0yxIkHDoho9YdkIxc94yTIEOIQAqUoQoVihNhlN8TcAUQ1H/+858FwVcyZBVVhJ09d07WJ+TI/qzio/xPPPGEDuzhO/3Zo9mwS1OV4Jt9j9h/TPvV4vy4Pxw9lS/jNqbLjn3nT25xPC9fHTNdPp+VJFuSwjfuKhCwFThTWdtucShOhCGcmVkYUDnz9NNP67+xW545QXR/cLsIO3XmrGSfOCP5ZwPbGlzqjjvu0JVplBAXtzF8g9nBi5sUbfaOwxJ1oPTVNWvjc2Rjovts19UiDAJnyAEPCLLLLIgAEkGU3R/cLsIwoGFr0iTz+BnvO+cDJ/vggw9qohAMuC9Mb2/XYwgNihNhZA7uueceHRggkn7VVVcVdP6IYuNgfWFEmLN80U2AFH4xO0mOqc74jHKqu1RnfDCnaI09bYtOI9jxNEQAyej6w/iNB6XRhDjJORm4HVhcOAKJMIT0r371K03gsGECCoxvhByTgQ8mE2b8sNuwO/WYtqntez1EMi07T6LSinbYEDbaKPcnGFDyxQy+/tB9YYr0X176ewEhrz0qWmLT3bMmFP6pPKaoL06EQVYZN0spPrPN/eUvf9FjbAG+tSQR5tbxtpDVppPjZGVMln59+OhpLZZ8QRVFsP0DxBzu5DsOdWlUpjQcH6t/szTgnBqo783ccb5vX6aO+ZGy12nbMiTuoPvWMYMv4bPCOTtiIBFGJpdxjDVq1NABXMba/v73v5fo6Gj9OQEhJj7yB7eLsPm7j8hnUxJ08AvEZ5zQoswJuNSjjz7qfVUysH+quwKh+eR4Wbin9GW4vRfvk4Er3NdvuVqEIbLIhC1btkwb4x//+EddIwsopXnrrbf0375wuwhbF58tX6vOO+Ooh+DiNNfGFc1gEaEl4xDslKfJyck63VuR1r4hkufWQciBRBhRccYlENWipICoJQQNYQYgdhBc3/GIlNnQQTDhATOQlQTnGNYTp89qUeQLIp1EKJ0fme8Rec1TnTAvzce8zjtTuDMZKGcE64ASXEmHTupj7Ffk9eMx0TJj2yE5o37H7EXbIkOblpbmfad4MJFDIBE2ZUuGtJ6WIFnHz+hrLC6aJhkZGLn3hftAOSpE0E2DjwOJMDJfCC1ILTbMazO2FhD4YmC4E5AASPOSJUt0AIJofDAwdwPb80cKuV0nVAeel1/4Ge+Z7/EdbNncVmzReRz+dkb8sWlIYu7JfG1PCP0WUxO03RvzMiIs2DHD+FSCfv7QZ+k+Gbb6gD6vYDK6nAf7bUrKkU8V4Y13EaFFhLFWVbhEGL//r3/9S4+LwveyUZYHgYVkM0kMAm358uXeb3iAbZLFK02Ay1gMthPoueGTnLbGd8z3sGfsy9gl/3Ic85rPnMfF9rDLzOOn9WcLFHltMilek1en3zOTMwQD7glVBr4iDKHXaqrn2FwD7ac48PvsR/b4synxMmdX0Ymm+PybJfuk89xkdf3FHytcIFBCAMGNIozFirFNbBnbZvIVOAQBMMD4VJNscIK+hOPdeOON3neCB3wh0GPH5gM9RWOL5nOO4bRP/nYelyAXgS9AW2mp+vPlis8694FLPfzww5oDBQMEWHEiDM6wNDJLtynnuQWCvhfq3++WpcrgVcHxlvKEa0UYGR1mSKLEDuMmMsaDfO211/TnkAcyY/5mw4EoEmkIZtFDCMAh5XyI/u9KPaqzVEUIgdoSD53QkVXKtQyI3vO9g7l5smf/MX0cMltEAehYMUyOicFHph2XaHVc49BxzkQM+Dct+5S0mZ4oXeel6Pdw7sCIsGnTpunXJYGOraKJMLKbFW12RO6xb2kS46SYmYtSGhwn9ozTpTPl+ugo+ZvPiGphw2TO+vbtq6f89ofNybnSf0WqDFq1Xzs2OsedjjKRJVFHpPX0BGmpCGZnZTuJGZ5xAatjs2XAiv3ScU6yfKU6zYM5p2XI6v0ybesh6TAzURpPjJMlkZkyfXuGfKa+y/dNap/Oe+S6A3Lk2GkZuHK/1BgRJc3V7/ZWHXCWIg8glCJsuhJ4nA8dPNGtdjOSApcZqPavGKL3hfsAcV24cOF5M2WGE/5EGIQVEeVL9BBilIzwOfX42CnTuJOJZ18CDZBkMptkzZhyGBGHHQfKinrsKFWmqefcYVaiNJwQKxM2HSzoOFOOnJRuC1KklbJvOlbsks475fApZcOqw1ydJk2UfSyMOKLLpCYr0d59wV4drZ+8+aCOzredkSCNJsbKqlhPhgF/y3fxpSvVe/XHxUrd0THSXtm+yTyEUoTR1jh/2lqTSXHSR9lyoAoHzrGZsvM2qt12mZ8ijSfEFelTwo1wZ8IQUAQDfN8n+2UyBfhSRBkZL3wrxNbYMn0+s8xB4AiOFTepFRkdqlE6zknSz+3b5amqT/csu5F9Il/6KXHNc2XD7rBL+nb8MbaHXc7eeUh2Kl4wQPnKforgkekiM4oPxmdip9g//T5CiN/bo3hBRNoxvS+ZUNoFxzEIhQijHBe777lor+438Pv8pj+kHD6pSwxbqP2+XrhXt1EEohOLVPurOyZa6qljdlftNSbdfRMtuWGx5kAijDGOVCk5gd+8/fbbtTBhLVhsl8krCDTgY9mfvgT+xwy2zLxLWS7jJAO1z9TMUzJe+Un8Lf7oK8UB4LQGcFb8Fc+b5xjrDQDBbycpmx6q7PNL1R7wSbN3HpYFe46odpCq91+lbHpDQo76PFlXy0R57Yn+mmAqoD//cHiUtJgaL9+p9mR8W6hFGOfzzeJ9yr736faDffoD/cx01c7bzkiUvuo68Lsj1rqvUsy1Iqx79+4F2QUDJp4gkwARxPH8/e9/1ylexoxRYoOjJvsFQbziiit0XSmv6WxxWP6wW3XMENFe6qG2nBYvdUZHy0DlaA1RwFnjcL9Uhse/PFRA5gpjw0k3HB+no1yUc7VRDxynR8dPR4tzh2BgnGPWewRSypFT+jf3qkaDQ6+pyC4O+/OZSZLuLf+qCiLMzeuE4Ux9RRjkgPF3/tai6dq1qybhgKgsJIBMLoIN50r5FiIM4spAf+yWjcyCP6yIzpLqQyJkqCKikEecZyNlf/nqGIh6ougrYjKVAz2pP0N0AZzn24MjZKRyNttSjsqB7DxpoDpPSCjjvbDB1wbs0WRiW0qu/h5EGODA6bRzFNnYnJSrvhcjQ1alyVa1n4nqhlKEzdp+WN4ZEilTt2bIbtVZEGnFYZLdKwKWaahXj57W+4b7QAeDzbip/SGmfEUYwS3KvHyX7yCQwKBoM9aL2nympX/hhRe0GDNjxHjuLVq00MEx7Jdni+/xB3xZvbEx2h9iQ4isD5QfxLYIUHVSHT6dKSRgaVSWfKL25Tv7lH8kAPDl7GTtZyEL2CkkcGNiji5FeUvZeOd5yTpYQRtpqAQNPhvCCwHF1jkWogg/zXEotwKhFGF07h+pPmNtfLY+N/5GMPoiSZFdyrnoP3Yo4g5Jqj0yWrdft6C8RBi25yvC8I0QTX7fF8zgacq9mYSCfp3nYXyrsWXG4xrfSnZhwYIF+n1/gITWU/6NstB18Z7SUPwQ6O8lqpSKblK2il1is2Ts642N1X3+qpgsbbcr1L/Vh0bImA3p2sYJKtVRff9y5b/ZaqpnzL6AjCzvMfYKQdZUiT8Em1OIh0KEYeuvD9qjr2en8qv4/s8VWfX1q7SVdsrfItYIGo9T10C7WhRRNMudrGwX4s1xyOBmHnPfek9uFWGUIiKoCDg7AR9gjgMqawCTVzBREOPJKQ8n6UCCAX78xhtv6CEAbNh1oD4GDqr9pvKV2BU2jj1mqf6c/pvXPZTQJqEwVj1rAp/09fAJOEEPZQeL1bOHM3TC3yq7X6b8Mv4VLtJF+VuqtvC7BIBhyMujM5Udx+vfh298PCZG+i3bpwNkptIr1CKspfLn9cfH6HNBPHLN+FRfELyjLXIuk7cclDcHRchwK8LOBzPN+RNhDRo0KJixywkM0kxsgPhiNqFHHnlE19UygxXGjeEjYJgKlKk/GVsFIfGHXcr5vD8sSke7KGHBKUMUyFzhhDEqCDGkYZn69xPluHFeOO73hkZqQkDElwxWL2XEdPh09hAHyDARAZz3jO2HtFGTPdunxBeEgpIvjgsJHqD243tG/FkRFl5QMkimygmIQmnh/E5pvr9EOUOcpLGHuIPHdYAA25upbAm7nKY62dk7DmkiW1e95vCz1Gs6SwPGdCHeqN0G2F51JXwoOwQc6wtFOAABAQIG/MaxU2el2eQ4Weoz6UAoRdhU1ea4RkMOIA9cF+SmAErQKtavPlzrfcOdoINx2zphBKAQVk6UZIO+nxNQuFAgghifRUQVkA3AvhD7ZKpqjYzSAQRslgwZBDA6/bievADii60CTgliQXYW0CQQMBAEAIEkKOEptz2ricdWJcLAnJ2HdbbDiVCKsN5Li44zIPiB6PQ22wLQzsgy0McAyCx9gJvKEelzyqsckdlVfTNepcWF+GMDyChCyIBgE/0w/TOZMf7GLhEyNZSdjlh3QPfPBGLnOcr1IHiIK+Onu81P0QFbA8SPCdwSYEKEAXyd008bhKocEYFHiSwg2IZf3Z9VtGqIjBb9hmkrZPpoO0w24wt4TK9F7l0bEBHGREPhFGFMHOM71IAS9UDtCd/qO7MlQTDfazD7mQ3/5Q9x6nnCMRHNICM3T3MGslX4VAIC8Fv8cmTaMR385zN4LkEIbB9Qvsc4L3wWgMvCkQmiAQQPdoJ9kd0noWDQelqitm0nykKEzfKeGyaOIKT9OsE1EGBAQBp0n7/3vP3cgDIRYdxsxvuQnSpuYxwT9bI4El8U56B9iQGdpL+SGCIJnAuGG+h4lHiRKUB0gUO5p3VniSNbGZOtBVlX5VgpM+ChktEiqkB0y2l8gGzayLWeh4zw+lAZ+a59nrTtpkQyC0p4ZeZJqmoQZL6opwVEU0c4OgRgRVhogeOi3IUoPtHTdu3aBdwotWI6WaJR4QLRSOzNALJG5BaBRFSnrnKulA5CJNhMxzlje4a2VwNEGKTCpOyTj5zUNkxkHiDkiHoBI8Kw78xjZ3RHvshnAGwoRZhnTFiiDkSATYk5OosRqwRnAZSwkZtuEuncmXSjSMeOIo6lKtyC8hJh+Ets2J/dOjeiskRUmXwjXKCzh7Qui/Z03nTaRNSZZY3yKETY4FX7tf0OVxuVBIyZIUCAqDJlfQgrMmGGNPP649ExOgsBIJGQAn8ijBIZSmycCKUIY0zYiDWF0VWCbbRbXxE2UYlM2paxdbImn6p+xk0ijDV8LjQThuBnkiJ/tujc8K0IMN8xh+UNsj/OjCW+DwGF7REAQPRjk2yUMFExA6ltNilekdFCn4gIa+cQU13mpehMgRmnSADAkFmnCONfvudrJ6ESYa0dwpBS9U/GxupyNSeYeKm+ep8SSUDGBPLtT4T1VXaOcC1pfFm4UBYiDJ8O/2LoC9nXkjZ8CouIhwuxSoTRZ8M9wYnT+Xo4ARMT0d+/PyxS2yB2xxAYbPyg4rtU2vA945vgGAQWyKYBhtt8pATcam/J9/a9uTp46ivCeM3fZMecCLUIa6P8KIkRg/7LU3UwzwnaHyW2tAUDgmVVRoQxA8y7776rRQHTTQbaIBOMj6Gs4GKiWhcDI8JMnTNTBn+qXlNeQrqTyAIlCZSa0HESNeBUcb6+IoyMBE4bcBxEGDXjgMwZxCIt63wRxpgYZ0cOqsqYsPJyWjhpJnLBITDRS0kbNkk5VrhAlB/bM1mhNXFZUmdMtO5Y5+kZieL9doiUz0ICDIwIM7MJ4YwJLJgyqEAiDEfeSJFEosH8jPmlUIowfhvCQ1kuIBvNOJlsbyeiQUnRddeJMLsSJUmUxZHdadAAo/fuFH6UlwiDdFHq6s9mfTf8ARUC4QIijIAWZBc+SCaBiDy2vT/7lHysnj1lg77Ax+IfTWTWiDAT1YQkUO5tCG1xIoyxkBAPhvkaGw6lCMN3kzUh8kq7YYwChJXfggiQ+eIzhChZB4gwn0F0ee2mMWH0wdjvhWSoGD7A+Cx/dui7wQ+4/+Hq8wHjn+iveTZk4hlGgH1RngVxnbTZk71yQgcVHAEtAA/AvowvRoR1mlsowsiK+RNhtAF+59SZwgljQChEGMSYMVxU6ADaH8EQXvNblENiq3szlThTNmgyHJSzUb5lqibYj7YG3C7CCMzDgcg8hQr0dQwpYBIubJZp5ANtBC8YPkNJZLiA3yS7vveIpz+ljyfDlah8zD7FOSmHJgOGbWJ3uV7Rtd1bRovtAyPCjK0iwqg8MIKGzGogEQYvoU04EWoR1mJKgg52gaPKvzLOdvwmTxvA/3P+tGsyzYxzM6BtEvRzG0IuwnDgRLtIyyIkStroCJkBMdgHFGpQykJN6URFQMmCEfmvpQwO8kppDKRhXYInIgABxhEDyrQwOKdLYqCgIQqIsPeGRSoD94iwtXE5mlQbEQb5dIowOgW+Y5w396ayizCyoWTDygN0VJSrBhspY9wMa9GFCwyEfXdopB5/QNQWJ0jmC1Cmhe3hZObvPqzLYMes93yGkHJm0KjvRrxRlgUgfa8N3KPLwcAE1UG3mebZf6w6BsKLzve0snWcVh1l/5SBmegaHRO16RnMVhgEaN+BRBhEh2v8am6Ktn8yI5Dm88CyC4rkCYObFy9mYIio3k6kRg0Gsnh3Ci/IIuDzylqEMbsW4wSCAVM2k9ENF4iyQlrxddgwkcnPVIdpbInMFuUyk5UdsK4RYoaSKGwUn8z3AR0rGVNmtwIn1WvsxqzPZcZiGRHG37wHIA7vDInQ48sgIMCIMCbSCQYMkA8kwnop311jRKQ+d4RiTWXDRlhRtgMpMhM3Ud5Le4b8t1LEhXIgiG9lAONng11OhQoYhhGEU4SRwSQYxXNj/BdklbHagCAXdol94k87KiFFv3/k2BntS52ZIoJbzHJoxEl75Xs7KL8MCQQ8Z44B2M+MtyL4S2aCzDA+3NwJRFiw60jSlzGUw9fnMFaY8S9kOmh3DJsw50x2mYmexm/y8ATKDOElTN/NOEVK1U1fQf9CEA4wngj7dqsIKwswhTyBhWCFHZUzCLJwwfhNMl0EfbDFdjOTdJCBjefL0APGhFGWOHrDAR0kwhbx0WZqeUQMQxiMOGdyj3eVXZCUAFuSPQkFRBdZLwQcwDaowsHn810mnQOIMIYMBZthZ/xncSIMAcj50k7JgNVSbdeUrlPW3mvxXs3VaZvcD2ZrZJZchgdVGRHWuXNnPdAwGEAoGPwdThHGA0X5k4qnA+dBAvzNWEVSMTgGLWLcOG9AOSIpXadLoqyQMQEAQQWB5fgAoycadUCJMOpzMVwIMsBBkjWDWJv3iHIxlq24wcVOQBQoB7HrhPkHooFxhsHeH5xvOEUYIp/xhUSdBikRRHTJRCUBNsR4BTrZeaoTN6KKGeecsygS8WT8CcIfEDli9iyEFqB+3GRrKcUhg2ACAfwGJWLMtsRxAMKZ4AAzj2FzJW0EERiE7w/8HqUQTK5Au1qirhESHRCQZrJgKd5yyx49GLXv+TvMoKOOiYnRpc9lCUQYExQFA8b3hFOEQVzpMPGnBLkYDG46SwAxYLkO7TeVnSGcIK/Y6Ab1t7G5s+o9BA3lNoAO1oxtAGTY+C77sfE37wHsHLsikGD2R4SRISQL789mfTf6KESDPzBegtJKxv1AaBnkbsCiovh0IzoTVVtDbDKJA+KLCLSZka+iAxFmlo8pCdzP//73v+EVYUo8U8aEyBi6en+RWVmVCWl7Yzpr9qEsC9/L8gL4UvyiAYFUfLS5Enwvotu85jj4ZMB+pn/neOuUDWMzTJ5hQICL8jd/dui7ERCj3NhXhGHnEOfVys/jVwlEFPhv1U8gusxvHj52WomuQzJgZariKkc1XyFbm3TIU/7OZAuAAAZli+F7YuUP/Dn+loB4MGD9r+LEQ1mDMWEEeqYqX4SAZoZOE+gH+EQyQ2TrqZZh6MLp/LOyV9knfumEd2w2/f84JVoi9nvaBPY+fM0BSfBWz2Ab+DD8MO0GgWOAj0bsdZmfrL7n+W2ygyw9wcQ/9JMlbUxeFmjdNOyPIAEij1mhCXg4qyn0ZHjLUvV+XAccCR88ZHWaFmWmxNJNKDMRxtiFYLBz586wijCcJiIL8gkZpFN19g04ZIgD07ZCGAtStsqpmc7VgKiCqavFQEn/G0KL0yUKxfts5m8A8YhJP6GNiegCYHIRRBjZLYhsSRuG+8EHH2jnbHE+KpoIoyQEAus2MHCYRVEp18TeWK+vuI3ZnrDNkMJE1FjsEoGnHHdVQUUSYRBOCJ+JqLoF9FEsHkrWIRgbZoppFhEuDfDvkJ3l3slDKgIQp8ySeSHliBVNhJHlN5UFbgJinyAXs+D5s0XnxlAO+IG/ZXr8Ab5BpY7v+Bl/YBY5CHv4nlDpQDkinOlCbDcQjAgjIB4Mwi3CYpQggsvCSw3v9Aey8s7PaYa+GU6oaaAj8L7Z3/O3/rMA2JnJBAOCXTfccIMefkSVHGPyA218zlhmSvsDwZwqv+O8Djg8MzWa8e4GzuB1GF1OQFR5EUakivEFplTFLSB1SwaBSBeL+5W04QAQY+Hs2NyMiibCGH/oxtQ50VcG1lN+R+fvnLXJ3xYsQbggsGBwkyYiiefPMlZZUZFEGOUtZBKwZTeBaCvT7jN5FH/7s1vndiETVSDCyHz4EhQ3g4g/pXAXcr0VTYSRmQ20vlC4AHeiL2d9P98Z8fxtpX1OBHixSVN2FghUI5ABYwHnigLGfE+fPl33S6FCRRNhjP3qOCe5YCygW8C6Z4xdZHw4JeCsixZoY1+WR7mQ58iYOPh8RUOVF2HMeEQ5oBkE7hZwP5jhjA6rsiI2NlY2bdrkfVW2qGgijCiPKSFxExBh/paUCAvwGe3aMTWb943wAUJJmw1lJNYfKpIIA0QhTcbfLTAiLNjJZaoKLmadsIomwrDL4rIF4QC+g35n27Zt3ncsggUiDNsN5eyIFU2EYc8Ef9w2bm/VqlXSqVMn7ysLX1R5EeZWcD9IzwY7eLwigojH7Nmzva/KFhVNhLkViDCiWpQuhR3HjnnGiCk7CjeITLPcAmSgLFHRRJgbYUSYWZjawoOqJMLcCCPCfBf2tSgZ+N1QL9Zc0USYW4EIo8wQv2txPqwIcymqgggrz3XCrAgLDVwlwtQzlYYNRfaFfxFR2isktKxnJ7Ui7OJhRZh/WBEWXlgRduGwIsy9sCKseFgR5lJYERZaGBEW7BTi1OZbEXY+XCXCEhJEPvzQM2V9mEF7LY91wiAFZJCDAYTairDzYUWYfyDCWND+QkUYSyIEg6ioKCvC/MCKsAsHIizUizUbEVZRZkd0K6wIKx5lIsK6dOmiF2UMBqzFYEXY+bAiLLSAHDPRyf79+3XnX9LGdP/hXKzZrTAijHYedmA7Siy7AeUlwho1aiQbNmzwa7O+G5MssB6WRVEYEYYvsCjEsWPHdDbrQkRYjx499HpA/uzQd9uzZ4+89NJL+m+LQhgRFmyQxaIQZSHCCBbAA4KdXAqhEc51wtwKK8KKR5mIMCICTEsNYWPyhUBbXFyczJgxQ0drrQgrCu4HCwaX18QV4QARP6YvLQ/gnGvWrKkjW6yA37Vr14Abn7M8QGMWB7YoAtpsoMWXQwkybb6zgZ23DRkiJ6dM8ftZeWfqykuE4VsJJnTv3t2v7ZqtZ8+eehkBmwk7H5ABZvgMNsJdVYAoYomTCwmwsK4PC1oH41uZ2Id12iyKgvveunVrTf4tSgf8fVJSUkiJfkpKirzxxhvSt29fLfDIEgfamJnxueee09UHFkWxevVqnZix8I+QizBARIz1V3AorA0QaGvbtq1eE4D1LlxR3uQiQCS5P0w7zyxeOITiNhxQKKNA5QGmiC7PqB/Cn4lA5s6dW+xGdg6xBtG1KArWEXrggQd0RoZ7xDo1xW0NGzYMeuF2J6jDJ0tOSYhzi4+LkbhY72s+j48/bx9ITCbT15cjEGGTJk0q8zFhZG+wT39269woB8d+y0MwVzRAdlm/rkaNGjrS7c9unRtlzCNdsii4W0HwYcGCBX5t0blhu4MHD9b9vs2EFQX3g/W/3nzzTZ0R82eLzo22TbD7QkSzRcmAk5IZ/uqrr7QvLW4juPD444+XW1C5IoGp6VlrkZLl/v37y3fffRdww57xD1WpSqFMRBjOhPQw43AOHToUcCPqhkp2zZTXxYDuojynW6Y0hFIiFhSFBHCPAm2Uzb366qua8FaklC924taOmAxtnz59vK/cC9ZyiUg7Vm7TLSP27777bh1oWbp0qS47Lm6jA6tdu7b328EDERYZGakFFVu0999tu6Nk5x71Olq9RnApIWb2MRsD/8tbhLGuDwKQdusWMN6WQE5FQNzBE3IwpwzXlHMA0spizRCnYGyYAf/PPPOM99sWFwt4gWtKmkvA/qw8STpUfmNOn3jiCR3gCsYuybxT1gmPsgg/KMmdOHGi95W7wYLOx/PKJ/GBnd5yyy0ycOBAXSI/YsSIgBsZx+rVq8vw4cO93678KBMRVhqQnUBIuB3HT+XrleZjFVkoD1AqQ8YBAkCU3bfcyneDsDKRRFlH4qsKEBlEbtyOg7l5Un9crMSXk11SjkgpEYP4gwHltAQRSgtEGIKKbBhbbEy07IyIli+mRcrwJVESF+t5399GWyhvEeZGsOgr1QgVAR3nJMuM7Ye8r8oWRLgRVcFm4RHWEIPKDsa+EGQpa3HEb1BSWxFEWI9Fe2Xk2uBm1A0FCLrS5wcDAj+2z/eAYC6cKZw2xbquVENUBHRbkKLXxy0PYM+PPPJI0NVuw4YN04KtqiDsIoyodUUQYUdP5sun42NlS3Jw5PNigUN56KGHdEYmGOzdu1eXKFQkh+zmTFhFEWHZJ1RHrEQYmYTyAOM8KbsIdqFbShGCKYnztQJfEYbo2r4nWhqPjZR+86Jkb0K0pMRHS7wfMWZFmAcVSYR9NVeJsG3lJ8KoMqAKIxjgUxnvVNlBn0Ok+kIm5igNKpII+2Zx+YuwYLMA+EgyimU9DrUiANudOXNmWCsRKpII6zArSaZuLR9/C5d6+OGHdbIgGAwdOrRKzTJpRVgJOHT0tCQeOiEZuXny2dQE2ZaS6/1EdeZnz6nPTupyBVOmiKbIUcQYZOSelqTDhZ9xjLz8wo6HdDBpYX8wIowxYcGAji0YEcaZJGSc0Ft5lVYGAufs1pmg3CzCsJnR6w/IsDVpsjY+WxpOiJV49TwBZYmbk3MUedinP0/N9BCq7BP5smPvUb3fyHUHZPiaA3Lk2Bk5dipfVkRnFdgsMPv5QyhFGNZH25m4+aB0nZciC/YcKTiPQCKs+YRI+XZ+lKzYGiVz1kXJ1t3RkhAXfhFGMOH48eOuIpZuFmH56n4tj8mS3kv2yQr17xezk2T2Dg8pwC6i049L/xWp8u2yVIlM8xArbHvnvqPad01TBOK75amSoHwzfmxVbJbszyoUD2SGsWN/CKUI45x2qHMatHK/JuybknLlTAC/uiU5V/os3SdjN6QXOVe3gOw2a8tVdRG2O/WYek6psiDiiHSdnyJj1hf2qfjMCZsOSvcFKbI6NltOnPZE9/cpPxux/5hsSMjWdrBO+WVtG8oGo9KO630AvhtbzXL4WydCIcLOqN+NVL85XPn/7gv2qnPKkZOn/d9r2hZtbMiqNH0N/sA5z915WLqpe0H25ESe+54bJZnYbjjHxbtdhO1R9omvhbPib51BL579SvXZmrhsXV0DcGPJir+mZedp34VNZypb0EMg1LGc3PVATl7AKjEjwoKdfA8BVpwIw5Z3qTbKtaxXtp170n+G7azqY7anHNX7MWQjzHQ3IKwIKwYY7WdT4vWGM643LqagY0ecfadIAp+1UOJsoOqEEVU4XsgDRBdD/2RsjIxQf2MopIDXKEM2wJk7HbwTZSHCko+c1KSn1bQEaT45XvorElNedcH+gABjogw3wq0ijMwXpVsdZiYqIZYuH4+JkTqjY7SzBDMVkW00MVb/C0ltOTVe2+qh3NPScHysNFDbYGWrn01J0NkHvldXHWOhEkAActBkYpxM2ZqhX/silCIM2+McscMFu4+o846TUd72kO1HhO1QIqzlxEhpMDZCPpsYIfXGROrXG3dGFcmIhUOEEeVbvHixHgvrFrhWhKnOcKqyr7pjomX42gPyufKT7wyJlPnKBgBC5tMJsTJuY7oWLA0nxOlOn04Un/rR6GhNHLHfRuqzJCXE2qv2gB0BfHBX5WspJfOHUIowghVfzUuWyVsyZKLy55xb9IFC0m2wODJTX++ETenSU50XfUTeGXeR2YtZrLk0cLMIg9TVGhmtbYn++q1BEdoOAUHUz2clydfq/YV7MqWZ6kPHbPBkySB61QdHSBdlC31UH/vBsChZpwTZvN2HNQc4ctRDWLHx+opHOAmsE6EQYfuzT+lzH6V4x/Tth7R/Xx59/oLDEOu6yl4JyPVV5ww3OHqqKB+gv4H7fKna3RJlw22mK66zYr/rbLcsFmsuLdwswrBDuAL+s82MRGWfkbrPBfhWeGwn5U+x77bqc4K3+Ft8W/Mpcfp97LjL/GRtu60VhzTtAtHfWe3HcB1/CLUII1jbdnqitssmk+Kk1+J9er4GJwjMjVB9y6fj43Q/AafZqPoVN8KKsADIUMQVUkg0icgAZODdoZFKgXsaOa8xViJjGCX7LovO1AQAg26gSATqm+hCTeXUiYYNXrVf2imywD7H885K00nxMj1ACU5ZiDCiy5wjjhbyXWdUtKyOC241+LJAea4TVlq4VYQRpa05MkrSvZMYLI3K1CJs35FTclSJmsZayByQHCX6U9R7fAappZy2nnKis7zZBqJWddVnZGqxZUgsoGNGrAWKLoVShBGpoi3g7Ilukblrr5w9yM72L8Kaj4+UJuMjZP32aNm4I1pqj4yUfvOjJEF9zmyJ4RJh5TU7YmngVhFGJL2h6hwJFACCBNitGaNApwmJzDx2WvnX0zpohI0CSCDCHdshi9tgXKzOBhPBpVwc0nhYHQ/CEahEN5QiLE/ZLySEICuBjhbK949YW7RtYOMQ9vFe0oK9E1HmGtyEqi7CeE6Q1L5L9+nXCI3Wyt4IqIINiTla0CRmnNS2N2nzQU1MyQyQJcCf8lwBpJQgGcfEFvkuzx2iCw8IhJBkwtQPQUL5Pfw41zR0dVGbxN92mJUovRyBCtqabxZ3i+o7OP+YA8d10IwsXm3FG8h8uAlWhAUGdkxQi74fX0U1Ac/QBL2wye+WpWrfCZ/F5idv9gRhW05N0OKcZ79bcd9a6ntkT8dvOqiFEPadmnVK2whizh9CLcKwaVPFBbeB4xAgcYKKtRrDo2RrylG9L8Eyw5ncBivCAgCSimGZh4sRNlGiCRLMQyX7hXNbHHlEFkUc0SVhGCvlVBgnEU9wSjk7OuDdykApvcJgEEEYB5k1X+MxKKtyRDoJOoR5ivAwlsgQg3DAirDSg06xqSKsiHiA44R8ErnCydRWgr+Nsj8il2QY6oyOll37jim79BDWvd6SE5wtWTHKECiNwtZTjpzUnXWPhf4zCCDUY8Io5YL0dFYdARHijnMCizDKEZspEdZ/QZSkJKj3YqKl4/RIaTclUiKjPJN3hFOElcc6YaWBW0UYNksAikoDgy7zU2SO8knoEvxl00lxOuP7BRFYZZszvZN2QAooAzOAMBDo4nsNxsXJxsRcHbFvMTVeiT3/gYSQijBFcIjMUvYFmflIkRRfwosYJOC1Sp2nm4EIY82jqirCECbNlN1RUmhAVgsxBcZvPCgfKGKHb8UuWylbJCPA9wgCECAwuvqbJXt1Jgr0WrxX+zj8Kz6O4GwghEKEQYxXq/PBjxPQqDEi6rxxbRlH8xT/iJVpASoeDAjyEXw218w1EmR2G6Eti8WaSwu3ijD4Jn39TsUDDPBVJiDbbHKczih1Uv72y9kee6FKC/C8V3n97d4jpzTX2Kj4IyWKBHUpe+U4+FsCE/4QahHG7yxWnHuI8rOtFdeppc7Xl0dPVCKSYDIBObfDirAAIPJDqQvRIXBSdegIL4gDgowSmXYzKIHZL98uT9WRhM3JudrgMdzJWzxGjGqHVBB9QLyRcZioPhu0ar92zoFQFiKMSAbnRsdC6hjiPXlz+EijFWGlx9aUXC2eTfqd0pN6Yz0i7JDqWBFhOE2yt3SUiG7s7oBymogw6sEB4xVxzGY8I06ZMimcMb8RCKEUYYdV24KUQASIrI7ZkK7LHkBxImzAwihJ9oqwTkqEdZhqRZg/uFWE5Zw8oyOz+EsDBoojwgDBLkjAQWWj2DA+OO/MOS14EGGmtAq+S5aMMY2AcVnYMe8ZguEPoRRhSxQZ+FiREfw750qfMHiVp22Q6YKUH1FEoIGycwitAZ+5LROWm5ur10WqyiKMMn2n7TD2y4gpAgFwAqatx1+RwaXCgKdIhQl2hwAC9O2UQ4FNSTkFVTX0/76lU06EQoTBUSiLJTtHP0CAwwQGjM0RCCH7jLA04CM+5V/6BLBMtS36G/oN7Jt+A07jNtvF39tMmH8gWhBPThGGvzV2Tp9PaSGJB0qpEVt8B1uGLxp/C1fgOIwxBAR5aRtkfSkvD4RQizCG/tDWyHYR/IDHpit+4wT8G25hRVgQcKsIo0yLlK0ZAxaljJPXu1RniwMiwsS4BF/glImQMT4A4LCI+lLmBSi5oaQBp+wkIb4oCxFGnTuNCpBJoUMJZybMjgkrPXCElARgR9uVbVK2xRgGyktP55+VrvOTpaOyTSaTYQzgVmVjZGchtJTLJGR4RJh+rewwNt3jGBftOSLvDImQpoqEBBqvAIwIKynjarBq1aqAIoxoGmMnIDAp6vxpUzhXEEiENVUirMXECNkdES2bdkXLRyMjZNCiSE85YphF2JQpU6wICwJ07mQ8qSRAvNCBvzcsUg/+B4yThRiQMdiXdUp1tkeVrZzSpTTNlC81YgYaCGleEukpq4F8UqqLn445eP64LAMjwtasWeN9p3iwrlUgEcakMpBU+gv6hlqjopQY9BBeyn0M0fl6YYq+XtosopHvBcrUhQvcFyY4KGtx5FYRRr9O6SFEk35/hfJLHzqySNgj4mY1k8Aoe6T8igkCADaJLRoR1l09byN8CDpQ+vfmwD3FBgcAIoz1koIBmUt/IoxMBX6VsjGINfZJ1gCQtaXUjLNkPCZCjD4CMkvJL0KUwF0/ytPUv3tVH0ImmjZK2RkknXtDhY+bwPqoCQlKBIdxnVS3ijBskkQA5f5UviyMOCLvK39LNRRApBNsMOMBKd1jOA6lqWS4lkZ5RBhluNiCmdeAfhtfS0luXICJvECoRRjJENO2lkZmyrtDInVAl3a2XJ0TlT1M3sS5zd19WF8z5+qsvHATrAgLAAy379JU7cDIdDH+i9IuOlGwLiFHlxMySJUoAp0sZSd8j8kQTDoXEYajo4wM4NRI9zZWJOPI8cAOw4iwYEUKK4w3b968WHKMAyaFzMx6Q1WDrKUIixGL4UBiYqKdHbGUwDEiwBho2npaonKsB1SHSamLJ3qNA6IMpaUSM4w/5G8itkQ+GchqZmWjo0XAIdQApTIQYSJbxcU4jQgLVmysXLkyYPvmWujcm0+Jly7zUnQ5rxl/EWhijlaTIqXxeCbmiJQGYyLU35GyYUfRGRKtCPPAtRNzKMSmH9fRWHzjN+q5Q/ogguCYEidktSAA2DBBBVPChY2YgBbAR1NeDYjeIt4QOwi2QDAibO3atd53isehQ4fk9ddf974qCtoRWQ+IAUG5vqotmrFunEc/dX6AgAPtjcAX5VzLFGl3WzahvOBWEQbIupoB/wS06PshrYC+HeJKoIjJDRh2MNsbOEDIMPOlEWGUMM7eWSi4Jm3JkHeHRpS4lMhTTz0lI0eO9L4qHmQuP/roo/P6fNoB7Qc7+1r5f/oAMwkDgS5KCwH7Mb6SoRSQdCoSyIDRNt8bGqm5ClipRCf8h9Lf9upfuI3bJuZwA9w8MQcTxxBcoIILG8A3LfOKK0QXGVqqDChJbDsjoSC4wDAB45fJkFF+uzHJ42/J8MOJKWEszpWRoYQzBAvKSgcPHux9dT4IbsGf8adstEd4NgFlAslkgAHtj2wY191yWrwOSrgRVoQVAyIDLCBKxIixYDxcyroMIAaj16XLKPU5xJj9mYGe2n8yZ4AyGsaN0QkDbBWDoPSqOCDC/vnPf8qAAQN06RfrgAXaUlMVgVmzRkfFDhwoWvvtBA52uWp4RETWK+JCZCDc0YFzLiUibhVhBkxuAFkFPFf1XwH4G6fEZkgBt5m/ze3mH16b7zFpC2n9LcWUIgLs7dZbb5U2bdpIr169pHv37gG3b775RmrXri3t2rXzfts/aDcQAs7NlMFQauMUYWS5IqKiZdHGKNm4M1omrYySoYsjZZP6m7JEs1+4RBgR2JiYmKCjfeUBN4swgP1ho8Z+zbM3wCaYYMZJ+Dw2W7gfr833Mo+f1uR5+rbix7kAFg/FNrFRf7Zrtp49e0qrVq3kvffe837zfPD7zvMkuEC2oPHE2IJZS8FZ9T62TrahKsPNIgxgXzwnJl0BvnbJ86O6wIzLBXwHWzQgCOD8HpF7Zk4seqTz8eyzz8qrr74qffr08WuPZuvRo4e0bdtW3njjDZ0R8wW/Q9ti0hDjV8nWNp3smWnUCa7VXAv7EhAhsOdsd/ztuWaPn7Y4H24WYYBxU1QeUA6Lj3IGqrBdKg743PTFwOwL+AfbN3bNuHJE3fzdnkBEIFCmf+ONN+oFmAkwFLeRBcbXFpcJAwSdKfPlfDh3znfS5gw9jticLyDozPAK2oFbYUVYOYMJOogeOKO5/gCZe+WVV+Sll17ShJdSw0DbZ599pgkFTqCs6/mrCtwuwkINaqiJdpZEEJOTk7VN0tngXIvbGF8yffp0naUtLRBhiCmEmHOLi4mS2OgoiVf/JsR6/vbdB5/ipqniwwW3i7BQY3OSZ7ykM1DmD2TC3nzzTR3g8me3zo3sJnaMuC8NKIMh+FaRwH2JjY3V/5Yl3C7CQg0qEahcIFBbHAhINmjQQLp27erXFn03fPCWLVu83y4ZTFjDbMzFiSjEFtUQJmhcUYAt0WeUte0WB7eLsFCDsWIEbjOVGCsOjAt//vnnpVOnTjp44C+oYLZu3bpJ3759Nc8oDaj06bN0r2tLDouDFWHlDAY1MoW4b3TNF6w7RAaBckQyYcFsborCBwMcpls74qomwiCuxZXHGsTFxRU722GogP1T2nchG+U5x45VPGccalQ1EUZpYDDkkawlVQOUc5UVKmK2i/thF2sOPcgmkBE9qf4tDtwP2mtpBX+w4DxKymLxuTOjV1GAAEOYhtPvVzURhuChFLwka2ECJAILZQmyemTwKiKsCHMpEFQdOnSQzZs3e9+pfIDQlyaSV55AhPXr18/7ysKACBUENpwRRzcCAnX8+HEdzXYLEGGULFmcD0QAZdwWhaCsrbxEWN26db2vLJyg9NWtfaKbwYQyrHEX7tkRyZpbFAWTc33++edy5kzxGbOqirCLsD179ugUvMX5+OKLL4IePF4RwaQcs2bN8r5yF1gvp2PHjpqYMD7Pbtn6XvDMatSoYUWYD8jcLVq0yFVlkIwTJWvp71lW5Y2JNt59910rwnxA+y6PxZqZkKl69ep63Ka/51NVN+5Ho0aNZOPGjd47ZREs3LBYM0Fzt872HE5s27ZN35twzlzpZoRdhDGG4+WXX9ZiY926dXbzbkuXLpVatWrpvysr3LxOGNEbpqWmPITopN1a6bGJZMHat2/vvUsWBmSuKUUJdur+8gAzWX7wwQd61lRrx56N+9C0aVOdiaGEyaIQ5SXCuO+IYJ6DtUvPxn1gfDd9fmnHw1i4Q4Qx3gkuS+kdAVy7ddT34v3339cizAZu/SPsIowIEBkfCB7kzm6erWXLlvL1119X6gkG3CzCKC+jXHLHjh2yc+dOu3m3Xbt22Ukv/AARxpgExqS5CSkpKdaGfTbuB2No3Toza7hAXzxq1KhymdyJLKS1y6Ib/SFZQovSgz6Jqc3DKcKYmZqJfDgPBKHdxut7wdAOSpAt/CPsIsyAch6cv908G/ejssPNIszCojRwqwizsAgWEFhIJP2PhUVFAiKM8YzhFGEWFhcC14gwi6oHxhfZGmqLygArwiwqOsgMMsFBVZm10KLyIC8vT2cR7bgji4oGK8IswoaEhAQ9aNPCoqKDmREpv7AizMLCwsLCwiIYWBFmYWFhcZEgAsv6PnZ9MgsLCwsLC4tgYEWYhYWFhYWFhYWFhYVFOcKKMAsLCwsLCwsLCwsLi3KEFWEWFhYWFhYWFhYWFhblCCvCLCwsLCwsLCwsLCwsyhFWhFlYWFhYWFhYWFhYWJQjrAizsLCwsLCwsLCwsLAoR1gRZmFhYWFhYWFhYWFhUY6wIszCwsLCwsLCwsLCwqIcEVIRlpeXJzExMfpfX7CI6fHjx/XfKSkpkp6erv++EBw9etQujGpRKmAvhw8f9r7yjz179sihQ4e8ry4M8fHxkpaW5n1lYVG2OHv2rOzevbvAt4KkpCTZv3+/5OTkSEREhPfdC4O1Z4uLBf00vhVbDQQWOw/EHYJFXFyc7Nu3z/vKwuLCgJ0arsDf+fn5+m9f4F+dfvdCAJc9d+6c95VFVURIRdjMmTOladOmcubMGe87hfj6669lwIAB+u/58+dL7dq19d+BcOrUKZkzZ855JCIhIUFeeeUVeeutt2T27Nned0OD6dOny/Dhw72vyg8HDhyQ7t27h6wD2bt3r4wdO1bGjRsnEydO1KTMF5GRkbJgwYKLdiIVAUeOHJG3335bX3Nx6NWrl3z55ZfeV/4RyC5xpJ9//rk8/PDD0q1bt5A6VtoNbSYcGDhwoLaTUAAytnDhQm2XI0eOlA0bNhQhZtgp19qmTRtZvny5912L4rBjxw5t27m5ufo1Nvzvf/9b2zHBrjfffFOioqL0Z/6QmZmp/Whqaqr3HQ+w3y+++KLAnosj0KUFNhVOe543b5731cXB157Xr19fcJ/4F3Hcr18/adu2rWzatEm/XxUxZcoUqV+/frE2BGdo1KiR7reKAxxj165d3leF6NKli7b7r776KqR92qhRo/T5hwPjx4+XGTNmeF9dHE6ePCmLFy/W93f06NGyevVqv88Dn8H1wrOqKqZOnSqdOnXSf8MHBw8erP/2xYoVK6RevXol+sadO3eeF8iC873//vvy3HPP6WdRkeGPD10osNNt27bJsmXLZMmSJbJ06VLNZ53gftI2Fi1aVNDvVWSETIQRLXj33Xfl22+/9b5TFBhrq1at9N9kG3CY27dv16/9ARL2ox/9SP773/8WIbR9+/aVF198UUcheGA4je+++86v8Csthg0bpglHWQPCw3WYc0Z8NWnSREedQ4GuXbvKDTfcoDumDz/8UP7+979rBwyINI4ZM0YeeOABueOOO6pE5BAn+s4775RoI9gj9yUjI8P7zvlw2qUTZNpuv/12TbYgAVu3btX2FAog7ug4ywOQVCdph8xDMkOBzZs3y9VXXy0tWrTQwRrsz4he7hlErW7dutpX/PrXv5ZBgwbpzywCg/sIyQd07Hfeeadu60RYIQcNGzaUDh066M/9AdF7ySWXFPhmA2PPPDMTrUVo8P7Fojztmetz2nPHjh21/wsFtmzZcp49c3yAXyXQSEABm8Yfr1y5Un9WlQAvIGgajA/B97zxxhsBMw8QvZ/97GeauJI5M4Dg3n333Zq44UcQv6HyHQQ1TPC4rDFixAjdbxjAa2hzoUBsbKzccsst8sknn2h7vffee6Vx48ZF7iP44IMP5NJLL9XcoSoCjoAN8ixAy5YtpXnz5vpvXxw8eFAeeeSRYgMsBBb/7//+T1599dUido2f+N///qc/J0icnJysAwwVEfi5SZMmeV9dHNasWSO//OUv9b0huMg2d+5c/RkBcJ7FPffcI6+//ro8++yz8tFHH2ktUJERMhFG5ORf//pXkU4a50jUkTKBZs2aFSEDEC3TYfkD5AHD5YbjVAEp4urVq+sHY8ptiOzcdtttOprgFBScB7/tFHqQiaysLE2yicTytxM4cPNAaWA8dBw/0U4aihOodY6BCDSgxJLfXLVqVYFz419EZ3Z2tu4kOK8JEybITTfdpCMpJkLCtZlSDMgUApMSDn7D97dxqGQniAjwN9FsJyBlRMANiLhg1IDfobMjkvDMM89UiYgXAozO1Ami1kRwcH4GPCvEVXHO0NglnT7PB+C4iZhhh3SiiGxsnY4O+8GWDPiczAOlNwbYBhsiHALtW5KDTZ44cUL/beySLBL25OxEId1r167VtuH8TZ4xv+nsLDgG7YCNiBI2xDlBvAlE0DlwHkSaaBeQcPPbHAfbNedkQFvj/Llm7NK3XHjdunXym9/8psDmca7XXXedfo29m/dBnTp1tJO1CAzuLySAiCHPnqj5zTffrJ+N8RnY8tNPP+23zAvboTODJD/66KMF/tBpz4gw3ieL/M9//lNn7LEnczw+wz9yDtgJwMdgN2TpeOa+kWI+M7bB35wrvhN7wG4MAtkzNkhnzftOm2EfzoHfRSDRPhFGvvZsfpt2xcb3TD/lREn2jA9x2jPHuP766/Vr9jV9CXjyySe1TVc10N/df//9RaLZ9NM8O54R99wMTcAXY8+BhH7r1q11Bcw//vGPguwBxJb+9K677tIBMo5N9hHeQB9NX2rAs8fXsZlng9/jfeybduPPVtnM39g79s35Oysr+N7GjRt1W3D+Jn6TNkBf4+Qn2DznQFYPG6dNkXUmQIGtYatOG+K36SP4Hr+BTToBR+J9bJ7vm3M2YH98uwlI0H9cddVVRa6BDBj8iv3at2/vfbdqgefx0EMPFfA6+nF4Ks+Be+cbyEXIFnevqAB77LHHtC81GVx8FHZMgAZfxjEJDPG72BZ9oQHcEX/mDAzzHcBxaCtOcYe9mc85FudsbJo26OvjAHyF34AfGxj/znVjTyYRkpiYqG2G38Y+OTa2Zn7TfI/PsEVfjkAbwFb5LfbxDbjQB/zhD384z34BAQn6N2Oz/BZ+wAwhod1xj315vdsRMhFGZ//EE08UkEIeAEYFAWa79tpri2SZcJREHPyBB0W2CwOqUaNGQWqYaBoRRTo6Ijo4NwgEzoToGOIC4JQhHjSQ//znP9KzZ0/9PiSzZs2a+nfpFH0dGdEzxCEgU4WQITL0/PPP6+MbYkO2j/cg5ObcePiQRqL5NDAUOoaJEbPfe++9pxsj58Lfv/jFL/T+JiPG8Y1x0dlA9IkwcJ5PPfVUgdDCUSKeiGaRTUQMkLJ1Asfx2muv6b9pJIjWBg0a6NfG6GlM/H5lF2E4Ijo3c49ouET9EaXYB+TTGaH+9NNPdVTbH3BiL730knZ82GXnzp31+5AH7uWvfvUrbVuIYEjAb3/7W/07dNg8hx49eujnzPH5XcoeAOQNoYzN82z9ier+/fvrv4kEsS92SfvCRrAfnis2QTaaZ21EJ+ILuyPT+sILL+gsKQ6VToZzptOlrSAOKT+jLSEeCZrgCLHFb775Rh+LTgPbJrsKWcLG+W2OBznn3nz22Wc64orNOoUmgLSSOTAdHE4V8mTalRMcB4FgERg8MzK3kH5sBn+FX8GGTGQSH8o+TnFjABHDPrFr/JmxR+yZY2DP2Az2SZnX7373O7nvvvu0j6QDRdjw+ccff6ztEbugc8Y/EszgGJSYmQ7aoF27dtr/A9oG+2HH+DxsBzKMTWHP2Cf2bHw4v8u+tDN8LTYMgQDYINfDOWHLtG8yqr72zH4AMk574Tfwl5B74yeMPdPeAtkz989pz5Su4Y997Zn7iw8KVQauIoEgKc/I9DsIDl7zPPCFEH6TJcNH8pm/8j8ECH05gUd8NP4BIOD4DmIYP8b7+FFe8/zMsSFo2Ay2gxh++eWXtT1g8/hTvosNGBJpQP+O3wOcO3039oJvQuAzhAFbNZkNbNX4S46FDcJR4ADYOTYD6PdpI4ZHkHm65pprtD/k/Oi3sEFTKYCgNL9NOyfjbUoVhwwZoo9jMlwES5wZNQC34DvcPzBr1iwtDIww5Pc4BsEN2o/Jrlc1kKHHbozo4Pnz3GrVqiWPP/64thFs0YB+Gb/lD/g97iX8ArszfIFnz7P+61//qv0LPgcuh6/Clo3NYlvwP2wV2zfVTATG6M/xt7zvDHAA/Ax+lww8x8WeCKphs9gXHMAIM3wWXITfoN1gZ4AgPRwH7ohvx6fhs7kH3J+//e1v+p7QhhChDHsBcG/Oi9+nTcET4JqAyiC+z29RnUW7cAYsAEmHP/7xj+dVI6Er4FS+wXQD7hXHpg3Sv/iKZTcjZCLMdLwGPDgED4Ak0MEZIwQ8ZDo23w4aQM4QboCHiyEZ5wiBxrEZEH1C/JmIEU4ZJ2Q6U6KZOHqIBZmGP/3pTzrVTCNzZhEAHb3JICHyMCAaHKqdaB6EAfA+pQKAzoXjYKwYNyCSAUHG0QGcH0YJQQE4Yq7JNGYcIJ23iZTQYGkYEA724XrMGAocgilRoGEZseWEceg4bZwAz8KZsQMIUBp8ZRdhJrtjBDeRFgiRufd0mDgfY190ptw3f+B+85wBdslxjP1CHBE7PDMA+eC4BjhOniPEFUCSsSN+l86U50UHiD2ZDsCAjt0EMHA0kF7ANeHMsGtsFNs2EWKcEBEi7Mh01vz2rbfequ8J7eTHP/5xQdkOv8uGfeHQDLBFCC2gQ6BNc36mU6ddEXnC3iEpgI4FR+gLMmh0NDhx7jHXb0oNnMAx88wmT57sfcfCH3iu2JTxfUQYEVzOrBHPmY4X+/QFUXfznPgbQWIAcTA+CODTILHOcbjYIc/agE6XdoGf//3vf68JHp296fANINGmL+AaCFaYigWOSeePLdIZU1UATPsk0IbfMudFuZA5b66FSKnJTNE2/dmzIdX89l/+8hfdhwBIC22NtoRtlmTPtOni7JnMBO9zThAO3/6mKgDf4QymQNxM5oDMFX23M/LPvkbEOIFYMn0zfTtiw0TLIY70c+a5k3VCUDjtjmfOszfAliGV+HRsgLbjz/ci6kxgljb05z//uYAMI+jpD4j2cz4miGFsFR/P9Zm+hn4ZWwGQewS8k0BzTk6hjt2ZgCC2SIaAwAHAHunXsXHsDlsDcBDndRoQhKH6hvbA96hacrZl+hd8AKDdV9VMGKIXUW5gfAr+iX4J4YpwMcC3OG3RCZ6Ved7sRx/J88J3Yef4LnwN7/Hc6V/xmXzOv/h281yxJZ4LHJLkA7YDB8W/+2absC2eNfwAAYQfhZsjpGgbcHE4p+kvDO8kSGzOF8H0gx/8QNsI3yNrDUc1Q2bgIaZMF9Fl+DBDP6688krdf9AvYW8Ies6Rfsj4Wq7fn41RUcFwD4QavhN/DJfhuuE3Tl9uQJulT+jdu7d+zbUZXlYREDIRRuM3wglAQKdNm+Z95RFPzpuOgSJEMEJf8ICIsvPAiIpRsoQRgEAizDQCou04VSIFZISIuPF9nBAbzsdfgwE8RNOh48iMqAI4dRNdHjp0qDZIrgfFzjUQLaWToNPB6GiYCE0cO991kiDOkWs35AkjpzHQKACRC6IlAAPjnAwh5W/uAY2LDsIIXSdohBBkOhiIkZNcGVQVEUbkjwiK6aB5PmRT6XCwDzI7OB5DBBAlTjt2AsGLXRi7JCNr7NKXtCLCjEMDRCtxhtgGv81zQ7Txu5BBOuBAwN5xkIC2YQQ59oPt00FAOOgwsKM+ffroz8iCQBLJGPCbREpxwGQOcPIEFsx9ATg77MXp6CDFZEEAUTdDMmlD/BZ2xDXgNHHA2BPXYs7XCe4bEWoivBAMBKRvFI/roB3RBnwJkUVRYGM8ExP18yfC6PwIFviKXXwWpADyxXPhed14440FEUjsGXIXSITxnPBx+BBsiw3SQBQXe8HmAgHfbIIK+DX8owEduwl04F+5HvyyIbJ8lwwE7Zj2SzYFEgBoW84IPr7Xnz3zPcD7tH8DiASfc8+IbjvtmbIiXxBUcNoz0WFnsIu/CdzRb0CwOOeqZtPcFyNiAGIIkkv/RR+HeDKiBSDATfbHCd7HL2Cr3FNIphFDiDBsyCnCOK7zXtNO8JUcG7vCV2PzBGT9iRYDhBaZKkD5N37O9BX079gPdkaEnvYAZzCZUPpnuIdpHwhxEzSljeDjnMC3O0UY/Tw+G5j2aMB5Y5e0fQg2AWTuKddisoROEHjD32L7bNiqqbyh/8AXUKqG7cOR+F2uq6oB/0LA3IA+1elT6LfpXw0IqGNXzn7UgOPAvehr4XyIOTMkgOfkrAyj2sAZtOU1++ODeNZwOmyJigcCrfj0QMBuuA4DbB/+AThPhBHnxHHx+QguhCXfgZcCOC5tyAChRpvBH8ItsEWT/eJaTDCXIBl2bkB7M4Etvg9fok+BG5nqBifQBT//+c/1veEcaGP0NXyHIIQJdDhBO2d/zp324ytK3Y6QiTCcEA7KgAfoLCvAMThFGA+Qh+J7wyBlkFuOhcOCEBN9whkCogfORoJx08GZ4+Ao+T5kAcdFtI0Hz4PEkHAwgWpGnSIMEejsDCAbzsg8jp9zIyLA3xADjIqIFedAZ4GxsuEknSKMfWhEJjPmT4SZkhmipzh6Y3zcR66Xzo3OwaR6neA+m6ghx4Z4+5IwnDIdl2+GrLIBkYAzQ5AAOhcaK8+AZ4KNOOukidD7E2HGLkl3G7skMoPDAxwLezZBBZyaMzMM4SC7w35mM50gdkWZiSHTvnCKMDpek2El4oOQMyUEAHuHeHI8Mms4WY6P48Yu2RfSwzXTFpyz4mFrOGzfbIcRYU5Ca2yW+4ogo71gc7RN7gnn5gtTjmhKEIh0cXwDOn2+zzkECpRYFILnSoDB2Bz+jWdCdNQAUUX01hBWA2wDe4b4ITiwFwS7KYXBPulozbHxr84AADbEb0NQaEvYHRFafBokj2xXIDhFmCmvNrYPwXEKI84Du+O3Ib/4PNqfab9sJruM3Zl+AgSyZ6cIw2aNCCADQwUEtsd+Tns24w6cMOWIxp4RF3zfH6hewA8bMVlVwPMwwgPgByH8+GEyj75lczxnJzkF3Hsy+PRXfI59UMrF94ERYYwTB/hHJ6GFpNHfYpP4IGwV+4HQQhqdPsgX/kSYeYY8U/yxAW0Kcok9Y6v01RB03sdO6WtM0BNu4RSngPtEOZcBdmdEGBlh+i2TTYWccx9ol9wH+BZZM3iBs/0b0Ndgf6YfpE8x7Yx7wP1FIHPO+AHaNhymqoF7SF9mgK9w8lbauHPyOTI3ZHh87zk2gujFFkgE4PNIDsBfAWLOWRnma7OICfwz4onnQ9kjnBlbxg7hGoGAzRqOjG/DBrEXQOUKbQU+g68leWB+gyCU6Sd4bYJhgLaFH8a/cY9oSybY4CvCDPcE3D/aD/4dcUbADJvmO5yLL+hfGLrk2/+T2YLHBSpHBHBk/D1c3bec0c0ImQiDECAOTPQEQ6Zjx9FBhIm8EAk0wKh4KL6RQZwTNxHRZAAxwNAhBDxAZ0eHwDKDHlHL3HwisoYs4rRw4vwOER+OY4zHFxBdnDwgZe8sQYHsmkbAeDfOD8PkeDhXzglCYq4fEspvI/gwXhqrAdEQGqQZDMk9wkGaem0M1RBfjgHxNyKMe4ZTIMuIYzZROSdw3s4GTSQCQcA5c/4IQ0j5gw8+qEtqTLS7MgLniD3QCQLS+xBV4wDM/Td2iMPwRyCxS6LuTrskE0HGkWfAs+B3DGklgkNkFILG59ge42n4F9B5GqGCffNcTQfrCzprM1sVz9FkmPk+18IxOZ4Z98O5kOWiTeCAyYgCbJNIGNfKuDZszpmJ4vcJKhAAwAlyrZQPEcUFOH4TiOC3+T5iHiEHYae8B1JNm/QnKCEjlCoY0cszoR3wLNif6+R+cm7YKG2nKkZjgwWEEpsiqgnwJzwTIwoAzwdChQ824PkjgA25NMB/YS98DlHFhow9O22DZ8M++Dw6UyNi+F32w/84iYwvyJIR2QWQTnyrsRcCWYhCXht7xldRecDv0uYgo6aTxUZovwCyw2bAuXA9kHqnPRuhhq3Snsz5k+0iAIZf51qNPeMj/dkzRN5pz/QDRKt5HtwL2iFkjP6G38V/mN+qKiCaTf9n/CuCgXZO9p+oN8/UgH24RyYQYADppa9y3juyXZAy/BDBS7iHCShB5GgH+BUT6IQMEjgz/SU2w/EQhSaT6g+IGiPSIKiQahPE5dromzmOETe0MwQNNsR50D5NoJPfNNyDtgYRdwJbpG/HZvB7/LbJaOAr6U9MHwF/QrTRDiDV2C4cAZ9g9nECzoJwNZUbiF9Khnmf88LG+S4bWUYEmtOPVBUQiHEGgXhO+DMDbMhUKQFsFX/k267JfvPssUHuIzwEscMzxBfhH50T0xEoMvwBP0Xfjd92ChXThmg3tAcnF3ECjmwqETgv+mYzppyAFUKFfp+yXuNXDYyfo805M1r8JsfBH3JtzmoL2o8pTeR3aBMGCHv4FD6R4Av+G24UKPhPsoDqAvbnerlGc91wIGzTJCu4VwTC4PemXRnxa4YOVQSETITRYUIITc0ogoKHzQPBidHpo5INIADOCAPAAOgEnTW3gBuMcyYyw8M2hBQgIDAWDGS0d9pjU/5Bh0zEh0aEkuYcUfdOo3OCyJaJPCHAnFPTcl44YZwj0RAMi/fo0HkP58b1cq38Hp0NnQLkGLLijCrx+whUGiQpYa6bhg9hAvy2SR/zGZEHfhuD5Fg0ekQiTphrNyTMgAbkJFiIPhw1Dpv7gMPGmUCy+Jd0tDH0ygaui3trHCcdFHZB5BBxQZmLKQHhOUIAcTRO8Ax4nsa+DLBLOmVEEJFGbNwIWpwMBJD7DqEF2C2EhOcLeTXnhDDkGRsH6Au+Z4QU9mzGO/L7/CZ2jaMni0ukzZRPce1E2GgbHJ/r5jogItgm98W3jALiCYmg88HJQZZNlAsiaSJlODu+b8oTuG/cU+ySaDBtwxB4AzoWhJwRfrQNzpVJfTh/OhYizSbQwn2qikQgWNCZ82yNPWAHPBNn1oZODb/kDNZAIgk2IYqdgEDy7Ohg8d/YkzNAgx0Q8OL58Ox49jxz2hABNp4lnTxRV2cVgS8o2TL+jc6dtmBsH9+P/4RcO+3ZVAbwu5B47ARijT+nUwcE0UzG2MDXnglumUg2tkx7MqQVX8x5c3/4TWPPBLQgTcHaMwIBosCYZ6LC3FPaPaKtqgGSD7k0fgZfRuCSPpS+B9s0E6uYYI4zYIBPpq91loABngWcgOAmRBW/Zogh/3Lv2RB7gH3wUfhLeAfPFZ9NQMtkRv2BoIDJWED4sD0Tpee7tAX8MO0O/0pb4Bo5bzYyEtgRdsX1Gj8Ot/D9XdoN7Yu+G5+K7ZoyWPpwZ7UEwTB+j/ZJG+BauSaEHNdoAhMGtFW4mCGw9A20O3M+TnANJnNS1WDEhuGIPHunWMIPOHksz9U3kwpPQ2CbsacG9JlwLvwDduMsx6OiCUHE88Of83zwfdg4PIVjwRd4n2CPb6LCCfY3PBa+h/8ynBpfRTuAa/J9zh274BrxhQQWAJyQNmqAX+f8OBZ+2XlM2qexI76H/RnAH7gOzoP7Snvn+7QJ2rRvwIA+iQmgaDf0KfhtM84dv8w5cQ/hB7QH2iO+hXPgd7gGuEeVzIThHOhwDGED3DQiK3So3GzjGHBaPBDfdDf7EEFyEgYDIgl8n8ZhIlEGOCJ+x0ko+U3SthBk03liCBwnkPFybM4N8H3jbAEP1RAS/sUwTFbDgPMm+klZjrlWfovv+l4TETr2NWls/uX8AL9NgwU0OkgV36dzwgBNxI8oB6/NWDUDztvXCCGz7E/HQIOiEdIxkXXgePxOZQWdGY7B+dy5fkgYQQPuCYAwcD99iX9Jdok9Yv++tsVzo+N2dojcc36XyKmJnmFPJlvrD8buAfuZ6K75TXNefIbgM2LegO/TFggUGBs23/V1goCOGlvjWmgPph1AbiCagM/4PvcOooPgNOAaKYM0Hb4Bv8V3DJEAHJ/7Z+4xZIHzxy7527QJC/+gEzIVBuaZOu8v4tsZyQXYC52xP3vDF2Aj5lhOewYQZtqJ+S7PHxuHGBifg73gwwLBac/YE3Zljufrg7FnbMEX2BYE3FmOzXGdbc3A157Nb9OOnO0On8tGFQWk1oCAClkERJcTgezZnD/Hop/g/vhGyqsKuDcQLoJB2B3+1dnvE6Qy5YcQOd+KAOwLv2D8jhPcZ2yEe4vtGT8OuPf0wzxfJxAzZJWMj4cbmOflD9iT4RucP79j2gR2bo6PTWGrTgFpgK/HVulrzHfZ318bYV8CINgkv2vOzbed0EaNXyfDYDgO58fQCBP4MzDt2XkfOb6/c+CaTD9R1cA9JbDCfQW0ffozA8OXAH0T9mqCQAY8Y7ihr+0B7AP+hS34Bs8JoiGCnMMjsGHEF4Fh2gHgHH19kRMcn74T0CbY1/hmbBj/bZ4v9gQfQRAhDo3/hEub7C5gqA6BO9M2yboS3KINcC2mPfGvGWYBOBc2AhYIMPO7BKQYm++bEcM+4fKMiWMjiOg75Ibv4isQzMbu+Q0Ce1RWmPZaURAyEQYwIFSos1PyB1KFRG8MebQIDhAnyC5REdK6RDvIhvlmMyyKggYKEfBH5pzA0UBaLUoHSCZBFbIVRMeIShOVNWLRouwA2SKSaYSyE5AAsjCUGlkED0QCRIwsBPZMtNja84WDrI+Z5Yz+ilIp+i+i5ET6IYWQRTJAZpY1i+DAvWO8G/eSig4yAtiqCeJalB6UgZJR8Q1A+QIxwL0vLuBUWYDAoWwc8YU4IptFxtQZ+CgOBGqpdKHd832ChwhYI6KqMkIqwhBVdGAlRa9Rzs7ogkXwIBpGHTIlPYxRM5ELi+JBDbyJJAUCmaKS9rHwDyJvlHNRvoGTtQGW8gHElsihye44AREj8m+i5xbBw9ee/WViLIIDtkmgBjskEk6mkf6L8n/jb4mwk2W1Qrf0IKOCrZJR5N5W1SxWqEBQm/tYUjKBDLvJmFV20HbJxlEmSBCFirfSCijGSDLGkVJCAt5VQbwGg5CKMAsLCwsLCwsLCwsLC4viYUWYhYWFhYWFhYWFhYVFOcKKMAsLCwsLCwsLCwsLi3KEFWEWFhYWFhYWFhYWFhblCCvCLCwsLCwsLCwsLCwsyhFWhFlYWFhYWFhYWFhYWJQjrAizsLCwsLCwsLCwsLAoR1gRZmFhYWFhYWFhYWFhUY6wIszCwsLCwsLCwsLCwqIcYUWYhYWFhYWFhYWFhYVFOcKKMAsLCwsLCwsLCwsLi3KEFWEWFuWJk1mybeV8mTxtpsyZM0dmTp8mM2bMkBnTp8uUKZNk3LgJsmDVbjmWf1SmdW8mLXpPlkNnvN91CfKzomTUNx2kYaMWMnTWask65/3gApG6c7ks27HP+6rqIP/MKUnds1p6f9VZZmxI8L5bFjgtW2YNkTaNP5aa9VrKzC37xPnIzp04IKM71JNWQ5fIqYt8lpURZ/KOSfzmBdKzQxdZlJLhfbdscebkUYlcM1N69egnG9PPet8ta+TK0rF9pFm92lKncUdZmZDjfb+cce6snMpNlzXT+0unb8ZJXLb3/VIgP22HdGleX76ZtrOIrYcNZw7IiA4NpN2QBXLUtjELCwsvrAizsChP5OdJ4taZ8urtv5Yf/ehyuffVxvLdkKEy4Nue0rJxHXnhgevkD/d9KGuyE6Xh/VfK//2jtuw57P2uC5C1c4a8/dCtcs/9/5A//PJyqVbtMnngnW6SdMy7Q6lxSNo+d7P87eV2klGlyMk5SY1bLl++fq+6h5dIncHLve+HGnmyvH89efKNzrJ25jB56OqfygOfDJTj3k9B3pFN8vK1P5FfP95Gsk5536wqOFuSwDkrUetnSpPnb1DP6SfSdlOc9/2yRdTiwfLsnb+Uaj+8SQZFl6JhKAFzQThzUsa1e0Oe/3SoLBvTQ2782c/kra8Wez8sZxzPkVWTusk/r/m+VPvDy7I81ft+KXBowyS57cofyz/rDpWT3vfCgXP5nn/zT62Tl679qfz28day76jnPQsLCwsrwiwsyh35Mr3OrZp815ue7H3PiwMrpfor78rsAyLZKdESs/ewOyK54HSitH/1Man99QxBc2XGr5WP/n29uo4fS/0h2z37lBI520fLHZdVk2o/vkNGbXOR2iwn5CxvKz+tdrnUG77K+06IkRUt1W/8ntzRZKN+eThmq2xP8s3mnJG0+AiJ25/rfV0FkJcuk0cMl937ghMt22bXle9X+5l8vi3R+05Z47h81/Afqm3dLMOD0X2nUmTU0JGy/8iFpc1PJS6RB39aTV4eFq1fp+zcJNH7w6kW8qX7C3+SS//yP1m13/tWaXDmmCRG7ZZ9mXneN8oZOXtkzLCpEp/lfa3E/P7YSIlPu4C0noWFRaWFFWEWFuWO07Kw4T2KYF0mDaY7SV2+HM3OkdTkfXLC+46cOSWnvdFUg5y0RNm9J0YynSHe/BNy+HC2nDx1Wou2/FPHJOPgYTl+Mk/y851EM19O8jL/mBxU+58u+OiYJCmSkJh6xPv6fJyNnSatPx8szuqoE0u7yi+qVZMnmg4vEIsnj2XJ0aAyKsdlYtu35IF7b5LL1DEeaDxB/H/ttLoOz9Gz0lPlYKYzjxMIpyQ5NloS9hUKjhM5h+Vw1jE5deqkHM3Nkuyso3L8+FHJPHRYjjpvcl6WxEbslpjk80vPzp0+Lh5alycHUlPlyLFC0pupzi3t0PlC5uRxz1Udzzwg+9MPK8lTiKMbOqr7d4XU9xFhZ3IPSFRkjKTnBJeaSk+Ikl2RcUUyWadP5Erimqly5+XV5B/1ZkragYNyohjNkX/6pJxx3IaTxz3pzbPHD0tqWoZ6CucjNy1e2+Lh4z4HPndKzqhHdu5kjmRk5iir8+LsUUmMUXaWVsBOC3D65HFFVRXOHpP9qWmSW3At+XJw/z45mOUnp3HqsMRGxUjq4fNTscePeQ5wMitdUtMz9d8g/8QRWfrte/Krax6ScSv2y5HsY57fVTiWkSJ7dkcq8l70vu9a3kR+Uu3n8vnW80VY/uljknkkS06cOuM5jrKRjIxDcvSkugdFMm2n5IS+iWckIy1VMrILWrkDeZIctUfiUmOl32cPyPcu/VsREZafkyaRe3ZLUlphqeCZE4dlZre35BdXPyLLt++TzBzvfVQ4l5su0dHRklZMivOUaq9b53eW36g2+N9eS+SAslHnsz6TnaruyW5JTPcnIM7IKX7szFFJP6yec4CI0Wnlh0Du4UOSk5Mtmdm5Hl+l9j97+oQcOnhIjqn75fRV/V69SX5wva8Iy5fUuCiJTTlYpB0Fwml1TOcTOH7ccx4nVFtMPXi+DZ7M3CeREVGSduR88XY0PVEiYxIl+zwzPCcnPMYuh45ky7HMgzK5xWPyq1velrl7DkrmscJjnaWNOU9IIWt/guzeFSlp2ee3sPwTXts8fVRS96XJcZ++wMLComLDijALi3JHnsz/9G4twhrNcTCMrLXStNHncvDQSYldNVk6t/xYnnuruWxNNczmpKwd/7W0aNFS2jStLc+98K506/ed9Or+nazYtFbG9m4kz7/4hozcfEROHN4r80Z/Lq8891/pOHW7HDuRIfPG9JNmdWpJi8+7SYea/5Rrrrtfhm5Ol+PpO6V/ty+kfct68szD/5Ja7YdLor+kSH7+eVm5/GU95DeXfV/e7blevz6RukE+/Ncd8mCN3pLqj7U7cGr/UnnzqVdk/OrVUvPvl0q1Xz0pqzMcLCM/UzbMGSPNa78i1T/7Rr7t1lGeuv1P8qc7npR+83f7FQXg1P4dMqx7R2nfppE8++iD8l6LARJz5Jykx66Tzk3ekGeee1G6TNgiSfErpXH116VZ12mSlONhVvs3zZQ2TT6Wdl93k2YfvSY1v5ggGYq/ns5MlmkD28t7/3td2nTtJz06fCR3X/dHue3Jj2XO8nUyrU8Leea+m+WPNz4gX43foo50TmJWzZQenzeQl1/7RLp1/lQeufUP8ovf/lVebzhAknM8FDJ33Zfyfz4iLHbVJPmqQwdp/skb8q9/Pyddp2wJIE7VrxxUz+7LJtK0VRfp0PwjefGlD2Twokj9WU7qLhn0VQ35tSLXN73QVkaMmSZr9hwo+gzPqns8d6x0bFZTnv3gS0F7pMeskkHtG8pzr9eVYX37ScPX/yXXXH29vNJqmOw1yZGzh2TBiC7Ssk1n+aJlTXnyP2/JsFUxkn0oViYP7ikNaleXVl0HyqeP3y5/vvU5WRCXJ2f2b5b+XT+XNs3rydP//rd81GGMpKmHmLt3p4zp2UJee6m6dP+uv7T/9A352x//IP9643NZu3KFDPnyE3n4tr/ItXc+K8OXx3tPQCR1+0L5umMHafXp+/LvBx+VVoMWSY4yn9TN86TLZ3XltTc+kQFTesmbj90hV//+DqnTbZ4cVYz25N7l8ubffizVfnqrtOoyWpZviVEt8pisGdddGjZqJl93Vs/5rTfl6zlR3l8S2bm0kfw4gAg7mZ0sE7s1kadfek2GzI9RF7RPFo36Rt5+8SVpMXCl2iFd5o8fJM1qvCQfNO0qn9V+U677zf/Jn+96SrpM21bwbE/uXa/Ou4E0Uc+yW7fG8uAdf5Tv/+wOGakv+ZxELBoqDT5tKl2Ubdd4521pO2CZLis9Fj1LXrzuh1Lt53dL9z7DZdnWJE3cEzZOk65ftJdmdd+Ufz/0nHQas1ZnsIvinBxQz/vrVs/Ij5SdPFino4weN1u2pfGgT8n66d9IgwYtpEvnz6X6S8/Ipx0nyH5O+ESKzBzxjTSuVUtad+wmrd+7R6654SEZvslZO5gnMWtmSC9lSx82aCVfde4od19/rTxdu5MM6d1O/vvCK/Ldin2Sl31Alk3qLG88p+7XkOUF5YN9XrmxiAg7ezhSRvVW7brtZ/LyYw/Kq5/2kIgD5wdkzp5KlQXqfrf45E1577PBwpXErpklXZvXkv8pfzpqeBd59ZFb5Ld/ukvq91P30OtIklaNk+YN6kvPXn2kzUd15Kupa7xlu8dl7bRB0qFDe6n/1tPy0NM1ZOKWZDlzJluWTxosrRvUlk9bdpGuDZ+UP994jzRp97k8oZ7HpX98XL7sP182bdkmGxeMk05Na8rzH34pcSYecDpdJvdpL40/ayddOjSWl178n3Qcs0wH4M7t2yEj+3WQt9R7XwwdJq1rvCjX/u5qeeKtDhLlJ+BgYWFRMWFFmIVFuSNPFjS8T5cj3vXf2vKZElUtmzeR6o/eLFfd/r5kZJ6QhC2z5dFrqkm1Xz4jG5I839o/90v53ZW/l66LlUI6lyL17/+JOsYV8kG38RKZni1bZtZQr6vJ++M95DEnuZ/8Ur2+p9V0OXYyU9Z0f0uuUK9/fuNz0qNPF6n5enUZsXi2fPbeS9Kw3wYdWd7Q90N9jGfbzwgocpxY2OlV+b9r/iXz93vE08mk5fLfm38tNzzfRpJLCFWv+7aWPFm7j54MYmmnZ/T9eKXHCu+nCmdzZNf84XLHT6vJJb+8Q1p+O00WLhij78sPb68hu84PZMu5o8nS4ZXHpG6vueoui8SM/UQuVdfzr2aTNLmJm9RKfq5eP9BokkSs6CmPPPG+rNrrJXKn9sj7118il972nhxSL7PWfyU/qfYjabkwRc7k7JdZ7Z7S9+bG5+rIuPkLZMnkDnLjT6rJz/7wH+kxfLYsWbpQaj18jVzy68dl+aFzkrxturx2gxKXiry/2bKvTJ42Q7p89KDn/naYp3/y2IaORUTYgdWj5MV/PyuTIynNPCRdX/692v9q6b3uoP7ciXMnEqXjKzfJ1Q82kXhE89nD0q/Wv6Taj/4k3RdT5npOkjYNlb+o37u/6RI5fvK05DlTXYB7vHCU3HelsrVr3xWqtw4nb5WO//mz+t0fy1M1v5T5CxbIN+8wdu1K6T7fw4jnK1u64b4PZW0qDzlF3viD+v6f/ie70lJkVJP/6mv87b9rSe+vv5S3X6srC1avktbvPCmfDtuq7WpZ7/f0Pq90XSFHD8RK/5p3qNeXyEM128ms+Ytk4YDa6jl9T66+q7oMnTxXli2dJE9f9wP5+T0fSbyyl9MJ8+X1f/9H+iygcRyT8XXvUt+/XFrPiJKDe1bIG/f/Qr2+Ql5v/Z3Mmb9QWr3wJ/X6rzI+RRHYc/ky/oNbpdpvn5BFu09I/tlzkrehh24bz3dewuXJyCa3K5H2lKzXaePiRRiIHdlEX8+7HT3fP7N9qvxVvb7h1f7Krg7LgmGfaru77NrHpfuIaTJ96jB58YYfSLXLb5ZREeqc8uOl6XM3yG2v9PSMjczeKjXvv0qqXXGHjN2rXh9fIv9Q3//jB0P08df2eE8u/cE1MpymfiZXxr17vbqeFyQyJVdnzjO2jpJnnnhBhm7KUMfOla6v3qTO71fy9fzzz//cudOyY2lzff1vDN6gM1QkdnZMayy//eVf5ZtFKXq/hEW95bpLlC3VHanEuhJOnV7RGez/u+Vl6dWnk7z38psyapNzgp3Tkrx9ujx27Y+k2g+vlLfb9pXPG70nH3WdIeuXtNbt8qX+njLZM0dGy5/V6+trDBDTrAtEWLp6cXav9P7ocXm14zTB1BMWfanv59/eHyhHfU0676CsHdhcfqs+/8Oz7YScYYo6jzfvvELfg/faD5C5qv02feTXUu2yu2UBNnxuj7x15+/lpTYe/7NlQB15+IPuQl3Atsmt5MH/fCo7CBBl7ZQ3r1W2/tv/yPIDObJ5VBP9Oz/5zUPyVe+v5ZO3XpXes3ZK55f+IFfcXks2HlAHOJklu1eNlrt/rr533fsSo6uu82RM0+fktzc8IfP24ZlOy6qvX1f35MdSZ8AKyc+IkT5N/qNt6q8v1JdJc+bLuO6vyyXq9VvqGRUJpFhYWFRYWBFmYVHuQIR5JmR44uOvZNjwETJy2EBpU/0B+d1tb0uKt+qn2zNXS7XfPSsbvcPGJn/ykCJlt8ik3Z7XqxRR+PGlV0lfT+JDti36VJGi78lHk2P165y0wXKt6rT/1Wa6R1AdmCS3XXGp/OvTofpzSHrc8Abym19fKw16jpVxY8fJqC8/lj9dqgj0440kzqdsxhdnDq2Wl++5SWoP2Ox9B5yTUydylegrQYGdjpNG/3tW+qzxplbSl8tjv75Ufnzjm7LVORQl/5jU+iuiq4Ec9J5Pr5eUQPjFI7Ik+vwT3Lu0lfzip9dK/a+GyISxY2RE/0Zyw+XV5Ip760mMvq+nZETDR+XSy34if7n3DRm/Dbnlxdkk6ftZHWk/FCJ2WtaPbaFF7OtDt3k+3v61fv1c3zn6tchuee3G78sVd9cRzx0XWfTFK3Lpj6+Vb/UQuaMy5JVrpNr/PSxrTcA+c4u8fv335ZJrXxMe2+lNX3lE2EjIaJ70r32H/OL6l2XQmPEydtwIaf/Jw5qIvfDVGv11J2KXd1XfrSYfjIele5EwW+5TwvAXj30myLacqLFyHTbQcq3nc39QQqzV/T+Waje+Lwe9QfbIrhDAX0vfTWn6df7MZvIDxjCO2iB52Vvk4Z/9VGpN9hqiQuziofJln8ma8J5cOUCuvqyavNZ5nefDc2dl64BPFaH/kzQaOFrZ2Xjp36Ge/F4R+j881UJ/J31mXfV7l8mnS73Zp3Nz5a4fVpNrq/fTmQww+O2/yyV/fE7WKV2xvvO/5Se/f1y6DZos48aMkT7NX9KZnHsbzdT7Dm3yD6n2g7/JaG8AY934d9TxL5cWyzwlplNqKZGliPRqryY5HTVVan9YX2buVg/qaJp0Up9fcuktMjHXY8clibDUyZ9rEVOrm2eCldM7Zss9P6smt72lRJjCqfSFcvv3lWioNU2/BrGzW+rvPN19veya+aX86rKrpMduU7p2XIY0Vz7ie3+TUVzDye3S6r0PZeAy9ftnMmVCs5flh9+/Ur7Qc2eclskf3Kh8xcuSorMs+TKs+r3yq1ufkl4TJsrYsROkY40ntB29+OVkv2V8MRva6nN5Z+ROzxsn90vtm6vJ/3u4oxQWcp6SQbXU71S7RgYwdCx9vNz4w+/L463Gez5Wz9mfOOj/+k1yydWPF0ywoTSvxG/7XH6mfu+NIWSN1RUcnSi3Kb9z28dDxRQ9ekTYK7JJGUDWtsFywxU/VyL3Oxk/bqwM7ddZ/nFlNfnedW/Inlw/jip9hTzzO2Vfz7X3irqjMqDGX6Xaj/8hM703YGOf59S1/EK6x6o9zmyX5/7yY/nTQ7VlyR6lnI6nydIVW+RYZqo0ue9K+fPzTWTU+PEybuRQafjEH9X3rpTP1xEM2yhPXXOZ/PWVTt4Scs8d+OqJq+TH//hYdjsmmGx+7+Vyyc0fSjxxgPipcssV1eThT733TiNBqt90qVS75mWJUgfbv7Kz/FTdoze/9bTvvNQZcvP3qsntDRZ6/LmFhUWFhxVhFhbljgDliLnbpMsXvSTpsKcj//LJ30m1q5+TDV4Rtqbbm+o7P5CWY/d4Xvf9WK78fzfIuGQPCdm6oEEREZadOkhHlx9sO0NnhSR5lPz9//1Qnm9T2PFPa/KC/L+rbpQ2w6fKpIkTZOKUaTJr1mxZvTW2cFyaP+SnSc+6r0j1NtMk9wLCsoeWfi03//bP8lzNT6ROnTrycb135K7fX6au71fSelKMdy+F3IPy3g3V5Mf3KVHhPaGvX/qLVPvlI7LMjwiL6PK0VPv5LfJ570nqeibKxMnTZPbsmbJ0U7ScNBHzzI3y7K+rSbW/vCuxfur8ktdOlE7desnX7WvKVd+7RN4Z4SGmuesYv1VNXu4/20u1NsvLN1wmv3joU4nynsr8Dm/ID392vQzUuu2g9H1RPcOrnpJNx8yPH5AerysR+ZN7ZI5iUuc2e0XYWMjofmn14M/k5/fUkSmTJslEdf5Tps2S2XMXyI4k37TfWVnW93ltQ43nObIP5yLk4wd+6onUq/t1PGa0FmEPtFjtlyBrKNHR9B6PCMvwisUtnz+mjv0HGbzFQwCPTWmsRNgPpOH4dZKa2EPdh99Iz81eheODjLm95JoffV9q9PXYKRjZ5Gn56ZU3yxdTp6jrmiCTtJ3NlTXb4/V4sZjxZGAvl6YrPMIu//h0+cePqsnfaw3Q2Qgw6J3b5LLrXpK1KSLDX/2d/Ojvb8qAsZ7jseTD7FmzZFMMex+Tbz5RIuuHd8h4TxJHloxGhP1EWi71iO5JNW9T9+gpWRnnvCvHZc7Qr6XngN7y8at/lx8owj7laHAibO/E9vITdZ+NCMvbPkvu/n9KVLw9QL/OSpgutyiRcUf9+QUE+mj0SrlbCeZ7PughQ5s9KNUuvUOmnzKfZst3Te5R7/1NhhmFr7Bxcn/p3nuwtH3/Kbni8t9I52W8e0omvn+DEmH/lSR9eRlS9+7fyzUPvipDpio7mjBBpkyfKbNmLpQdfsY5gqi1rbUIe3u4Z4KdU5lT5VYlGn//v4FyyJFpWjGils7G1Bx+WCnPUXLd5T+S17pM937qH31evl4uu/ENWUtGy4vYje3k/6njGBGWlzNBbvUrwl6V7cqOoxbWkcurXS3N+o/Q7WLipCkya/ZsWbxmt/8p3xPny1O/rSZ/fN6IsIPS6x11j376T5nnvZ6VvRBhv5JukR4fvGN8a7laiZxqV94odb6e4DmPfdvl0f9Tz61GZ5k8Sf2u+u1pM2fL3PnLJZG1OTIXyWO/v1w9w95FhNGXjysRdmdd2WEU7Jnj0vCuy+V7SoTtVb+/f0Z3dT3V5H+tTUDHgxHVb1HndL3Mjc2RuMUdtQh7b4gnEHI4bor8XZ3fnQ0WWRFmYVFJYEWYhUW5o1CE1Z/mXB8qX06cOCVmbLqvCDt3PEnav/RXueqW/8roKdOlbY0XpV6/BR6BpWBEWJ0pnpH8ZMKKiLAkjwh7ttVY/TmYUP9xufQXt8lMRzJF42yuZB0JMBJJfTa948dSs+XwgtIhcFb9LyDRdyI/U3p9+LC8+NkE2b55o2zcyLZF1gxrrDNNv32ilaSanzYi7N5mYoZ/dH/xWqn2q0f9irCdHZ+Qapf/TWbH+nyWf1yOHPXkVNK3jJOnb/yd/OSSavJs27mFhCbviIxq+pLc+Vh1mR2RLPt2jpK/qH3eGl5UhP3321l6zI3IJo8Ie7CBRHqJ3bz2r3tEmOayXhH2qydlgzejosngB39VQvER2aAOcsZkwsZtVZ/tkyZ3/Uj+37/ae3Z14FTWQR+yeU5WDHhN2dAlUn2QQ7RKojR64rfygz+/KJvVTx6NuhgR9nsZuMmjYo5ObqREmBJ849fK3thu8jP1d80JhZkwjRPHJDc/XzLmfaNF2Ae9vVkVdbcGN3xYfnDlHTLPV0vmZ8uRnHMSO4lS2sulybJdnrePTdMi7G81+4uZM3Pg27fKZdcrEabaw+CXfiWX3lhLPPS0EHm5mXLy7AHp9ckdSoTdLmO9OnHJqLfV8a+QVsscIuzqp2WVd4jZ6b1r5MOH75SXGn4rCQeOyNRvXpDLvnebTPZOvBKsCKvd3VPOpjNhfkTY7Z/MKWivJ2I2yENXVpOH6g2SQfWU4Pre9TIsydhttvT3irCRtP9TcfL5a/fJP99sI1uSD8nmoa3lZz/6mXRcyr5eEXbNK7JP36x0qXXHz+WqR5oqOVYU3J9cP9EVXxF2Omuu3HN5NfnpA60k3bH/+nFN5Ydqv/ozTqqLHqFF2Cudpno/9Y/eiLAbXpXVjodlRNibQ7H74jJhSoQpm9wz50P5HpnZGN9ZMY5Lur9JRwKKsPt18AOs6PmssomrpHuUEmFnT8lJZb9kdF+/57fq/Wpyb50+Erlnizz282pyV3N9o4sgK0Md+eB8eVSJsLve66WeQiEQYT+5q57sNBfjFGHKpA7O7ekpi/5kqNeXeDC9zp1S7bI7ZcXeExK/6Av9TN4d5EkhHo6dLH9TIuwfn1oRZmFRWWBFmIVFGLCsCeWIPpkwH3T+z9WKWL0oW727nD4cJ0O6dJCuw0fK+KlzZfeBomxq89yPdZS67nRv9mJvf/mDev1Q+1meEqT94+VWJcJeaDdJfw4ihnykx2Y88dmkggHx+Qc3SfsWLWVRpLMu0OC4LBvYRuq3G1GQoUAQbJwzWRbsSNRE/+ihA3LYOzOdP+RuGykP3fGMLPCOIytEmjRiLM8l18i3m7zU+0SmfHiTEmH3t5TDXvba6+W/SLWrHpfVftY3Tp7bXEeY76s3VJ2pF0cipWOjFrIwMUcxp0hp8L+XZeCijdLrTSWGfnKdDNziCdFnrhysZ4h7tNFs/Tp9W3+5Wr2uPtYzbffJzV20SPzfQM94LpHt8upNl8kv/91IzAR2i758S4mwG2SoTgIpEfaCInRX/Ue2GdZ0Jkka3P8T+eMr/TSRyt/WRc+O2Gg85PeE9H7nRkXGfyddlhSq4r2rRknjlv3PW0ft4Mbh8mclEv/4Uo/CrOXJjfLiDZfL39/oq9/Ljp4g16tzfrCNZ+yNX5w6LC3uUyLsrzXETNC2s9OTyj7/IEO3e4zv1PSmOhPWeNI2yctcJnd+v5r8331KfBoTOZ4sA7/4StYePisnVg2U3ysRVvO7woktNvStpe3s2TazCs41L32dfP5ZC2G4W/rsj9TvXS7NV3tra0/PlruVCLvlo8EFpHzou7fLZde9LFuV4a36grF1P5WGoz0kHmTuniH1m/WVI+eyZWDju5UIu1MmekvgVox/V+1/hbRb7TnahA9vUUL4X7LaK8KmNX5Uff5rGeit+hz7+SPyvUvvkJne+xG5upkSYVdKp93+FxVPGddaj4+q1cNzgLM7Z8mdVyjR9c4g/bogE9ZgkX4NDm4cIL+75OfSdV2iLBnwvvp9Jaj7ekpfEVYDmyoR9v2/ywRlngfG19SfN5/qEb4b+9aTyy+7Urrqnzsl46tfJ9WufFx26cs7owTrzaodXS0dZxWKxr3rhkrTdn0l3txQB+I3t/cQ/jERnjdOZ0ibx36uBMGtMivZyEaR2WSaf/gPmU/j3z9arlci7PVuszwfBsB3r96gM2EbjZpWiFnfSrfTN4d7rudc9ji5Wb2+/ZPheswXoIzxBze8LjvUz2dt7qPb5o1vfVMoLE8mSv/PPpVRzpJig31L5OnfVZM/vfSldzKSI9L3vZuk2v97QBbq1yJr+7ygn/k3jBPMXS2duo7y+MD8DPn2U/zzzTJx/Vr59L7LpdqvHpa5CYU+bcP4DtJi4BblZFfLk3+8XO75sF+RIMfnj/5Kvn/jO7KroJbzjDS9R4mwv9eSFA6TsVQe/1U1+cEt1YUKWA9OyecP/0Z+9s9PJFU57PgFnhLXD4Z5rjg7SdmQEmF3NzFrCuYpIXhICpLsFhYWFQ5WhFlYlCfO5smBxO3S5N7/pzr5avLwZ1MlKS2rSDRUzp6RI2nR8r4SH9W+d6tMWJ2mJ6/Y3L+uXPmjn8hjHzaTrl/3lO6du8rgifMl2Tt1d8rmwfIndcxfPVhHRk8aJs1rPS7fU69/8XhL2ZWWLSneMSh//l8riVK/qYVZ9kapfjuTGFwidz/3oXzW5CN56pFHpV7PRefPpHYqUxb2ekeRUXXMa2+Tf9x+q9xy661y8/V/kD/+s7qs2qe+kbxSXr7ul/KnpxpJzHnk4JzkHIiVtk/8Rn54Ry3ZlJZb5LpP5mbIUKLV6vgImz1ph+RI4lZ5VJHZale/JpuTs+Rozn5pcCeLRF8nwxanFok+gzPZMdLwgV/pY9z+n3ekRbNP5PkHH5J63aZLWmq8dHvt73LnB3002Tq2c5D8Xu13yY2vy9KYNMlYNVLfv8tufkm+nThB2r73uB5ndNN/2sm81btk/WTGLVWTe1ooQZR7QjJTp8o9P1Xnds3zMj/hiJw4ekj6f+CZcKXRyBg5dSZD+v/vD1Lt0j9Im4mrZU/EHpnd5yP5y58flrE7svVU6dv6vqGP+UTrYTqiv3dBX7n5cp771fJ6rUbSqOYb8u9/vSSj1vpZsTbvqAxt8JT88NKrpNnozZKUFC+TOn0o/7+9e4+qqsoDOH5XDjW9nGmWWVOr5WSrJjPNmlzzMG2mXKWAyOMCQioqCUiXx+UNIsrDlDLBV4AvHgImJJJGPsAXqWjeRFEQBQQlAQW6PBUV+c4+5+KjbOaPWStHF/uzln/syz37nL3P3tf9O/ucfYYMfY9cER1d72zhwKZwdbD77MQ4KuuauPLzc9LdxYXy/dj+UezzsTF8W9FMR5uRbFfl2R8zQr88SFtHJ6WL7dTjHDcnA2PHVdKDxWBcpPu/9BYuOldsx45Ft2gDba1GCj9TAioNo9zWUttkitJ66gtxHC4G9eLzkTauBPvN4v13R6NfsYeOy01si1Zm3jQ4pmynpf0SdaVx6oIHj40J4NjFVjqMdYSMGSC+8ydWi/7QcXoTYwaKY9b8AfPJHxHykQuj/2HO4tyTXDGeQ2+htIGBfFzYQFe7kZTIMWr+k1YZ6LzWQ0GY8qydGT6xCWRv/oqI6abyvD0zhozMZVi+9pRI98d+YRbHTpexcZFpkQTnVQU0/sL7F64cSWW4CBofGeHIyoxMPnG1UPvaI8M+wNDcLQbQW3jjIQ1PjJzJjuITlJYcJNxqKCOcF6Cs3dBVvRWLP5uJfQwmZm0BhwtSMX/xAZF+AOfF+RSJINZM5Pe8pZ7k9FTc/ymCLpG2cF3GiepzbAwcJdKP4puYTFpWHvtzljGiv6gfs6ewcfXD392JUWOtSMivuWNGVOl336w0tcO/+q+ntrFFXZjj3O4EXn/8NwxxiOVkVTXlB9ZjNfR5psVtp6e7jTNfeKvHNGRyFKcbRHvuze+WHlrqTzDtVVGufq+QVFBz87UDF8uzGGam4dHXJ5OyIZU53hPUvvbbkR4UVXWK7U7iOvxBcfzDSTkg+nlnFfMmKu8k1PDiOw4EBPuiHfs3nCLT+PFna773XO3g3K4EXhbffXCEi6n9NJegf1tZmOM5VlRcpLOtmTSf19T8ZuWVcen8Rt4d9jKh2aVcaG5mW8IHDByk5URbJwdSdeptgZqn38TVNwQ3J3PestKzt66V2v1LGCT+9ru/z8RQe2tp/wTHF0TezxC1LE20pxwMou9rnxV59H+H7UcviPDpKvsSXHn8wYdwitpAZXUN360P59UhbxCbJwLnq21sWazcQqvhX7O/FX2unbJdi3hCpAdOWEp92xV+2BzF4CcHMj4yS32uUpKk+48MwiTpbrpmZFfWUnRubri7u+HhE8aGncdv3qKkEoPro/mphHi7i+/oWJZZgPKYWMv3SYx+5SXes7Ji7Kg3GTp0KC8/N4DhE0MRY2cx+jCKwdRstNYTcZzqRUJuDjF+XsyJz6SkooycZXNxF/t1840gU+zzxgXY5hPbCZlhz/hx5tg6OBGduueO4EbR03iM+NAPmTZjBtOmTsbZ2dn0z8mZ+em7TYOw8wbCnC1x9E/kzvfgXqd81zp8xPZuXnPYUFj2k3LXl+9hSbiPWi+uM3Sk5B+iePd6MYBU6iGIrH3HqS7fQbSXkvYkPn3XzVvVbtdWsYsoD0fMx43Dxt6ZuYnb1PJU7E7Fc4Yr8bmH1P121B0iVgSd08VnMWvzaRPBQE58ALbW1kzynE321kKWB0xCa+9Jyua95Hw+T+zXnYAFSRgqGzj2zRp8lWPzCGbd1mLqqw+xNMIHN1HH0Z/n0tT2A4mOg9E8PJip3r4EBfnjoQth40HTSodtDUdZFRWEmyiv99w49paaZuS+37iEqXZWjDO3EudRT3bRz+8VvZ2R3Lggprrqif10If6B0eSXmi6/t58vY118mHrMs/ThZBYYaOl939pNl5rYt3kN/h5KnXqzautRaqqOszzCU90uKukrKmvPk7UkRE3ro5dzRJkcu15P2kI91hbvY2GjJTjuS9OM1cUSEqMDRB24owuJ4WuDaXZU/dOJPAKmOYh2Nh6tw2QWZBaqQXhbjYHESL2af8SKLMpr6ihc/xkeSt36RLGlqJxzpfnE+HuIfD1Zsm6nOltyZncGHzla8/44Sxw+8GDlVtMsWsvxnczzU8rjwScZe2iqPs7KGFP+wYtFkNF+nUs1O9E72aOdNE1sd5KOhoPMFW3GSpQlIDaZbXkbmOWgxSkonl379rEqUpxXsX3g/NUcrv6lVneZwuQY7G0nYjfZl3Vr17N0rg6v6JUcvXCZlprN/OURDU+9qcUvMAJ/71kERidx5rbJ7IvFG/GaqsXKyg7XwGBCwvzReYSIflJBZ2sVywOnYz3RlunhS9m5LZfZos86TgnDUN9JU1U+XqI8DpNmkryjVK3zkrxEXLRKO5rAJBcd6fv/wzN8lUUkiXOm1I938Hy+PljGjdffnf12PV4uLgTPjyU6PJTFab39vLWSzE9D1d8Td79IsvaW3ZxJv6VbBA7p6GeJ3xzRHj5OzKai8UZr6GD3umjsbayxd3Zn2aYcFob4ELxwLceqGykT5zZIp2ynIy45T32VwbX671ign4Kl6NcTtZMIXZLNzexu0916li0p8eiU9uM7my8PVHC2eAdRapuYRXzWAc5XHiEh0lstc/iKzdSfLSZJpH1mx5HxxVrmBYTxxY17VUUf+2pFBFqr8ZhPsGWKTwz7zynhVhN5SfNNv6miX6/ZcpjW3uO5YMjgQ0c77Kf4kr71MIYdyQR4Kvv3ZeWmfSJwVL51naLsWKa7uBEZG8fcoECS9/bu01hJ2qemPucfs4bSczXszFikpj38P2ZvpZELB9dhb2lJ4Oqdt2b9JUm6r8ggTJLuA9eNJUTMtCAwwzTQvH6phcZmI82nCtDZOZBcJP8bvud0N7BUuR3xaQuOKYMuZVm4X00PXXdMc0n3iubKjbzaT8NIP9OtZHdcn7jdr9lM/kfdXV334mH9Krou3f3f0itdP7kMJ0lSHyGDMEm6DzTuWc0zGg1jQ7MoPWt6Gqu1tpQtKXGERSdyovW/Duuk/wsjSTZPo/n9WL6X8VGf1l6bxzDRf4d55vV+IkmSJPV1MgiTpPtAT3MNK30tGWD2AINeG42drS0TbBzwm7+K4np5FfXec41T+9Kxeak//R4ehNfyHKoa73jKTuoLOhrIWeLBk2b9GPCGIxkFR2iVXVaSJKnPk0GYJN03LnO++jSlJUcxGAyUnbntxTvSPaaH1sZayssrqKo8xanKWtq7eh+0kfqWa5epE/32VGUVp0+d5Gz9j1yVE9eSJEl9ngzCJEmSJEmSJEmS7iIZhEmSJEmSJEmSJN1FMgiTJEmSJEmSJEm6i2QQJkmSJEmSJEmSdNfAvwHCWPC3iI7XHAAAAABJRU5ErkJggg==;" vertex="1" parent="1">
          <mxGeometry x="60" y="250" width="745" height="317.81" as="geometry" />
        </mxCell>
        <mxCell id="q-sqeVSz4Pgh850xunst-2" value="目的IP匹配域：y1y2&lt;div&gt;目的端口匹配域：x1x2&lt;/div&gt;&lt;div&gt;目的端口指的是：TCP/UDP的端口&lt;/div&gt;" style="text;html=1;align=center;verticalAlign=middle;whiteSpace=wrap;rounded=0;" vertex="1" parent="1">
          <mxGeometry x="50" y="150" width="200" height="100" as="geometry" />
        </mxCell>
        <mxCell id="q-sqeVSz4Pgh850xunst-6" value="R1" style="text;html=1;align=center;verticalAlign=middle;whiteSpace=wrap;rounded=0;" vertex="1" parent="1">
          <mxGeometry x="320" y="198" width="40" height="20" as="geometry" />
        </mxCell>
        <mxCell id="q-sqeVSz4Pgh850xunst-7" value="" style="shape=image;verticalLabelPosition=bottom;labelBackgroundColor=default;verticalAlign=top;aspect=fixed;imageAspect=0;image=data:image/png,iVBORw0KGgoAAAANSUhEUgAAAEYAAAAaCAYAAAAKYioIAAAAAXNSR0IArs4c6QAAAARnQU1BAACxjwv8YQUAAAAJcEhZcwAADsMAAA7DAcdvqGQAAAXMSURBVFhH7Zh/bFNVFMe/biw2NCPTMlkWanFUpMGUzTTAjHU4J5BSA1YYJhObQIaYgjYaQ02sEkOgJJDOJUyIDFgUhiWQbYBDwliyOYwZbMCWFZN2ZCuRxc6IbdwfTDze96Oja99rHzDjP/0kL/fd827Ove/ce3689xgxkCGJLLHNkICyExO9hRtDd/C32J3MNOTp5mN2rthVwlTrwygG+0cwJvYSmV7wPIpmih2lcIZJS4edCtlQbnjyVUj2DnGcUqZaH3mpVFKXcJV6xWEPQCbGyJCJMTJkf7R9+/bHxY4co4PnceLACZwLZmF+sRbTOWHUjzMH63HKHydLCxcLfkTLoRPouqOBYV4+YnOPXmpAbcsgZhQZMEuZMkYUt2704MJ3R9GcsI6o/wwO1v+EsTlzMWdGujeUIMJ7lBzt5Fm9nhyuFaTN5vy1iBxXmTjSRtU6FWXzMiO5h4XRKelvILfLRXZTPmVzvq+uoPqJyX+hjw1CPMizNYmydJwlr2MXOSw6UvOxRFybSKNFzeuD0U1KlpdIGsPEGCa3UVi40d1N3lIDWY8OUDjkpz5/iBJ1REJBCskq7iFHkaDL5Lk/KDJwlGzabGnDhIMUDIv3SUToYLmK11dQ1SbKGOEuchUz40wyTJiCfX3U1+dPsT4BZVmJ0e/U85PnaDRksPooIMrj4V7OsbiActJklmG3UdBVtn+SUZtsOirbH7e/7OV2WIool53MlJmlyUZ5TB90m6lbFHFw8+g2C5Jwq4MW5Gbz8/JXjobKPQNJmxpDcfBdsNQINjnG787HezVrMVcQT3C75XO4LtzFWHgE46JMDu26cuhZO36pEceiggz4HseuP4t3LFqhe+VLvF87grvRXxG9J4hkWbUKi1SsHWpF/WVBBIRw+PQYrJtN7LYOtsoWPFfbg3AkhPYdZuT/8zsuuqz4pFccnohoIAWItUJOGe1PcQy9pdyOpKtFOsheyI3Lo5jnDHtLyRgfJEQ67IX8DqeuRSJsXuE0GGMBj9VKxop63o36nQbSO3sEucjZSg0/Xu/sFyWTyaof5cyTnmCND9e5m/FrOH+RFz0CZryxhDt/d9Df4WdtJ9yH1fhg20L+6YOTizcrFvB3N7s7Wa4KoWZbL8x7NoA7f7O2nkL7FyX88xiW0nl8Oz13Bt8mklV3QIFlgrvx1j4NtlpZvcpe5sq5ifP60JSbDWDZCbcHeuH/7EP0WvZgg+hFD4P2tRJwq4sOXsHNZicOaz5FzM4zi5I/MTqvDrFixYDl62QmfWGHbLgXCbCMpCWrj4XbhmXEXHki0ge8q2njSWFUDGWuxOh3EoszLGAayKCvojYZ91TmShwNtEzF9OVy+kzkkcoOE5ylSg2okGUxuagAb1wSmIDVKc5iHRVXushhZq2rW1AQYXGGr10MtLHWRoZST1J2UmwYaiJbnjDW1iS1CAHlhomVFCoWZ5JjVTw9LMOqdNWym8EhHXwjzPpqYRJ9VXxqHqZ9ZqFwUhvsxB2iRJQbJkAuVtQVyqT+GMoNQ+Sz5pLK6KLuFC8cabOTTmdPaRSOB8hKylBsmICHTHqrpHHjUWwYdsqr9EZypbBKpK2a9MxtW9NFD8b/9BHZiU2vH0dF4zGsTSyIHooQ6lZuwZ87T2GXSfpHTtS/Gyurh+A69y1WTPybCaLmxRJskaplRANNEbFyv4Diq3O2VxRqP0knL3OfDwHy2cxkS3dUeO6X+/GfDxzha0zfD0FW5Eeo220mcywOShFgsZEPDRKX3klSlczU/Y8JdOJQaxd++0vsQ42njC/BYilBAerw8jQHOu9lQ6V+Bkv3NsL3rolVHykY6UVz80X4/4jV0Tl4YvYivPq2mVXNP2PT00vwdYhJ1flYuP4bHP9qeVI1HmOgZS9aBqTr8ScXV2HTKxIpmzfPfw7bVc8aKlvjoCNdChxcAQGfgywWO+08Lf+98yhk/uDJkPmDJ0PGMDJkDCMJ8C+lTwrEwMlRcwAAAABJRU5ErkJggg==;" vertex="1" parent="1">
          <mxGeometry x="370" y="199.43" width="50" height="18.57" as="geometry" />
        </mxCell>
        <mxCell id="q-sqeVSz4Pgh850xunst-10" value="R2" style="text;html=1;align=center;verticalAlign=middle;whiteSpace=wrap;rounded=0;" vertex="1" parent="1">
          <mxGeometry x="320" y="230" width="40" height="20" as="geometry" />
        </mxCell>
        <mxCell id="q-sqeVSz4Pgh850xunst-12" value="" style="shape=image;verticalLabelPosition=bottom;labelBackgroundColor=default;verticalAlign=top;aspect=fixed;imageAspect=0;image=data:image/png,iVBORw0KGgoAAAANSUhEUgAAABoAAAAjCAYAAACKPxqrAAAAAXNSR0IArs4c6QAAAARnQU1BAACxjwv8YQUAAAAJcEhZcwAADsMAAA7DAcdvqGQAAAJUSURBVEhL7ZZPaBNREMY/TQtCCMSDB5eG0vo3KPES1B5iSqyXUBHTihcx4EEPAQVBLEoEodBFKolCpRfRHExES2hBPIiIbGhBpEZKaFSI0Bi00NjW7EljGfdtnsaYNLtZtBfzg2XezC777Zv3Zt6uIwWsAeu5/ec0hQzTFDLMmglpFKyM3Js5LH/n7h+0WNuxs83CPQ2Y0OpI5BfAPqTmJfgl/pw2/1ELyr9P4UlEhDjyCGmZBxn5KUTEEcRn8jygEzWBFaQoEhygAb+TNpnYWpip53aB3yN6e8FeWiOrj8Z5TA91N8OrQGfppU6RfkkVZumez0ammkILlMks8HEl9XddNkgOJtTqptHypIjGfdTuHqUsd5nA5KCXOi0mQleIxyqpvxlsx+HZqtjiFGLR8kI9js5g20kvbKo3jRtnb2L+m4yP8ooaqQkXXBXJL6jps/p4orIh6nIE6HXJKyP5SWCzNzQjBdfR/bAqdjklIa3YRPAOzOcuYo96Vz/adeRxwW5S7KdZJNNXcD7pxfCpUtIaQVvIcgj7OhQrpzHYF8OO0KWGZ8PQFsIudDtY8ubwxT6MIY/OJlrBC30taPf2zYDQi/C1I3ynNYqgRyiDsadF9IbDOLaFhxrGpi2UOH0Y93tiiBpXUakSknPPEY9PI6fUZ+ZhHy5/voqxISe0VkZ+9wGLbFD8qhyX1VSdR7cOtCCQWIFpgxkd3dcRe3AGzroq80hOTOBZeglFHmnd2Ia9B0/AxbrKT9Sy/Y3CS5H63f0UuDupdLC/R/Mn3zBNIYMAPwBfMZHVq+qY/AAAAABJRU5ErkJggg==;" vertex="1" parent="1">
          <mxGeometry x="387" y="228.46" width="16" height="21.54" as="geometry" />
        </mxCell>
        <mxCell id="q-sqeVSz4Pgh850xunst-14" value="d,f在ACL和转发表上有相同行为" style="text;html=1;align=center;verticalAlign=middle;whiteSpace=wrap;rounded=0;" vertex="1" parent="1">
          <mxGeometry x="510" y="585" width="120" height="30" as="geometry" />
        </mxCell>
      </root>
    </mxGraphModel>
  </diagram>
</mxfile>
